<svg width="9" height="12" viewBox="0 0 9 12" fill="none" xmlns="http://www.w3.org/2000/svg">
    <path d="M6.70312 0.890625C6.70312 0.611328 6.4668 0.375 6.1875 0.375C5.88672 0.375 5.67188 0.611328 5.67188 0.890625V2.78125H6.70312V0.890625ZM2.57812 0.890625C2.57812 0.611328 2.3418 0.375 2.0625 0.375C1.76172 0.375 1.54688 0.611328 1.54688 0.890625V2.78125H2.57812V0.890625ZM7.90625 3.46875H0.34375C0.150391 3.46875 0 3.64062 0 3.8125V4.15625C0 4.34961 0.150391 4.5 0.34375 4.5H0.6875V5.875C0.6875 7.61523 1.95508 9.01172 3.60938 9.26953V11.375H4.64062V9.26953C6.27344 9.01172 7.5625 7.61523 7.5625 5.875V4.5H7.90625C8.07812 4.5 8.25 4.34961 8.25 4.15625V3.8125C8.25 3.64062 8.07812 3.46875 7.90625 3.46875ZM6.53125 5.875C6.53125 7.20703 5.43555 8.28125 4.125 8.28125C2.79297 8.28125 1.71875 7.20703 1.71875 5.875V4.5H6.53125V5.875Z" fill="white" fill-opacity="0.48"/>
</svg>
