<svg width="24" height="24" viewBox="0 0 24 24" fill="none" xmlns="http://www.w3.org/2000/svg">
<g clip-path="url(#clip0)">
<path d="M1.70456 19.8609H7.99997V4.13916H1.79742C0.804703 4.13916 0 4.94386 0 5.93658V18.0659C0 19.0274 0.755062 19.8126 1.70456 19.8609Z" fill="#41479B"/>
<path d="M16.0004 4.13892H8.00024V19.8603H16.0004V4.13892Z" fill="#FFE15A"/>
<path d="M22.2954 19.8609C23.2449 19.8126 24 19.0274 24 18.0659V5.93658C24 4.94391 23.1953 4.13916 22.2025 4.13916H16V19.8609H22.2954Z" fill="#FF4B55"/>
<path d="M14.8136 13.3438C14.8136 13.2237 14.7162 13.1263 14.5961 13.1263C14.57 13.1263 14.5454 13.1317 14.5222 13.1401C14.4145 13.0444 14.2195 12.8068 14.4152 12.4715C14.4416 12.4921 14.4745 12.5048 14.5106 12.5048C14.5969 12.5048 14.6668 12.4349 14.6668 12.3486C14.6668 12.2805 14.6229 12.2231 14.562 12.2018C14.7228 12.1197 14.9522 11.9456 14.9403 11.62C14.9235 11.1581 14.5452 10.9032 14.3132 11.0051C14.314 10.9987 14.3151 10.9923 14.3151 10.9856C14.3151 10.9006 14.2462 10.8316 14.1611 10.8316C14.1088 10.8316 14.0627 10.8578 14.035 10.8977C14.0255 10.8515 14.0266 10.7658 14.134 10.6731C14.3333 10.5009 14.5599 10.0886 14.1475 9.79863C13.9192 9.63808 13.4828 9.56116 13.3366 9.78054C13.2731 9.87565 13.324 10.0123 13.3964 10.043C13.2797 10.1081 13.0584 10.2057 12.8835 10.1294C12.6343 10.0207 12.7782 9.80477 12.8337 9.70807C12.9311 9.53815 12.87 9.25952 12.5437 9.25952C12.3262 9.25952 12.2175 9.47702 12.0001 9.47702C11.7826 9.47702 11.6739 9.25952 11.4564 9.25952C11.1302 9.25952 11.069 9.53815 11.1664 9.70807C11.2219 9.80472 11.3658 10.0207 11.1166 10.1294C10.9417 10.2058 10.7204 10.1081 10.6037 10.043C10.6761 10.0124 10.727 9.87569 10.6636 9.78054C10.5173 9.56121 10.0809 9.63808 9.85257 9.79863C9.44025 10.0886 9.66685 10.5009 9.86616 10.6731C9.9735 10.7658 9.97463 10.8515 9.96516 10.8977C9.93732 10.8578 9.89129 10.8316 9.83902 10.8316C9.75394 10.8316 9.68499 10.9006 9.68499 10.9856C9.68499 10.9923 9.68611 10.9987 9.68696 11.0051C9.45488 10.9032 9.07655 11.1581 9.05977 11.62C9.04791 11.9456 9.27732 12.1197 9.43814 12.2018C9.37725 12.2231 9.33333 12.2805 9.33333 12.3486C9.33333 12.4349 9.40327 12.5048 9.48952 12.5048C9.52561 12.5048 9.55843 12.4921 9.58491 12.4715C9.78061 12.8069 9.58561 13.0444 9.47794 13.1401C9.45478 13.1317 9.43008 13.1263 9.40402 13.1263C9.28393 13.1263 9.18652 13.2237 9.18652 13.3438C9.18652 13.4566 9.27263 13.5483 9.38255 13.5592C9.23264 13.7132 9.09816 14.0525 9.39043 14.438C9.70983 14.8594 10.471 14.8254 10.838 14.839C11.0707 14.8476 11.2457 14.9681 11.3429 15.0553C11.2808 15.0936 11.2389 15.1616 11.2389 15.24C11.2389 15.3498 11.3206 15.4397 11.4264 15.4544C11.4649 15.5159 11.5326 15.5571 11.6105 15.5571C11.6975 15.5571 11.772 15.5057 11.8068 15.4318C11.9216 15.5265 12.0002 15.5662 12.0002 15.5662C12.0002 15.5662 12.0787 15.5265 12.1935 15.4318C12.2283 15.5057 12.3028 15.5571 12.3898 15.5571C12.4677 15.5571 12.5354 15.5159 12.5739 15.4544C12.6797 15.4397 12.7614 15.3498 12.7614 15.24C12.7614 15.1616 12.7195 15.0935 12.6574 15.0553C12.7546 14.9681 12.9296 14.8476 13.1623 14.839C13.5293 14.8254 14.2905 14.8594 14.6099 14.438C14.9021 14.0525 14.7677 13.7131 14.6178 13.5592C14.7275 13.5482 14.8136 13.4566 14.8136 13.3438Z" fill="#DCBE82"/>
<path d="M10.0427 10.5506V13.704C10.0427 14.0644 10.3348 14.3565 10.6952 14.3565H11.5651C11.8913 14.3565 12 14.574 12 14.574C12 14.574 12.1087 14.3565 12.435 14.3565H13.3049C13.6652 14.3565 13.9574 14.0644 13.9574 13.704V10.5506C13.9574 10.4906 13.9087 10.4419 13.8486 10.4419H10.1516C10.0914 10.4418 10.0427 10.4906 10.0427 10.5506Z" fill="#D2AA73"/>
<path d="M11.8901 10.6594H10.259V12.2905H11.8901V10.6594Z" fill="#FF4B55"/>
<path d="M11.8896 14.1389C10.9888 14.1389 10.2585 13.4087 10.2585 12.5078H11.8896V14.1389Z" fill="#FF4B55"/>
<path d="M12.1077 14.1389V12.5078H13.7387C13.7387 13.4087 13.0084 14.1389 12.1077 14.1389Z" fill="#FFE15A"/>
<path d="M12.3414 10.6594H12.1084V12.2905H12.3414V10.6594Z" fill="#FFE15A"/>
<path d="M12.5755 10.6594H12.3425V12.2905H12.5755V10.6594Z" fill="#FF4B55"/>
<path d="M12.808 10.6594H12.575V12.2905H12.808V10.6594Z" fill="#FFE15A"/>
<path d="M13.0409 10.6594H12.8079V12.2905H13.0409V10.6594Z" fill="#FF4B55"/>
<path d="M13.2745 10.6594H13.0415V12.2905H13.2745V10.6594Z" fill="#FFE15A"/>
<path d="M13.7411 10.6594H13.5081V12.2905H13.7411V10.6594Z" fill="#FFE15A"/>
<path d="M13.5072 10.6594H13.2742V12.2905H13.5072V10.6594Z" fill="#FF4B55"/>
<path d="M10.9844 12.5083H10.8032V14.1394H10.9844V12.5083Z" fill="#FF4B55"/>
<path d="M11.1668 12.5081H10.9856V14.1391H11.1668V12.5081Z" fill="#FFE15A"/>
<path d="M11.5294 12.5081H11.3481V14.1391H11.5294V12.5081Z" fill="#FFE15A"/>
<path d="M11.3465 12.5081H11.1653V14.1391H11.3465V12.5081Z" fill="#FF4B55"/>
<path d="M11.8904 12.5081H11.7092V14.1391H11.8904V12.5081Z" fill="#FFE15A"/>
<path d="M11.7108 12.5081H11.5295V14.1391H11.7108V12.5081Z" fill="#FF4B55"/>
<path d="M10.4417 14.0559V12.5078H10.2605V13.7039C10.2605 13.8492 10.3323 13.9769 10.4417 14.0559Z" fill="#FFE15A"/>
<path d="M10.6216 14.1316V12.5078H10.4404V14.0559C10.4933 14.0941 10.5547 14.1203 10.6216 14.1316Z" fill="#FF4B55"/>
<path d="M10.6226 12.5078V14.1316C10.6462 14.1356 10.6702 14.1389 10.6951 14.1389H10.8038V12.5079L10.6226 12.5078Z" fill="#FFE15A"/>
<path d="M10.503 12.1976C10.4949 12.1976 10.4867 12.1953 10.4795 12.1905C10.3725 12.1198 10.3663 12.046 10.3721 12.0084C10.3799 11.9576 10.4177 11.9155 10.4683 11.901C10.5165 11.8874 10.5646 11.9016 10.5971 11.9394C10.6646 12.0178 10.7343 12.0487 10.7929 12.027C10.8394 12.0098 10.8671 11.964 10.8671 11.9298C10.8671 11.9061 10.8862 11.887 10.9099 11.887C10.9337 11.887 10.9528 11.9061 10.9528 11.9298C10.9528 12.0047 10.8981 12.0794 10.8228 12.1073C10.7677 12.1277 10.6569 12.1402 10.5321 11.9952C10.5187 11.9798 10.503 11.9802 10.4918 11.9833C10.4766 11.9877 10.4598 12.0012 10.4567 12.0214C10.4522 12.0509 10.4777 12.0865 10.5267 12.119C10.5464 12.132 10.5518 12.1586 10.5387 12.1784C10.5305 12.1908 10.5169 12.1976 10.503 12.1976Z" fill="#F5F5F5"/>
<path d="M11.6524 12.1977C11.6385 12.1977 11.6249 12.1909 11.6167 12.1786C11.6037 12.1588 11.609 12.1322 11.6288 12.1192C11.6778 12.0867 11.7033 12.0512 11.6987 12.0216C11.6956 12.0014 11.6788 11.9879 11.6636 11.9836C11.6525 11.9805 11.6367 11.98 11.6233 11.9955C11.4985 12.1406 11.3877 12.128 11.3327 12.1076C11.2573 12.0796 11.2026 12.0049 11.2026 11.9301C11.2026 11.9064 11.2218 11.8872 11.2455 11.8872C11.2692 11.8872 11.2883 11.9063 11.2883 11.9301C11.2883 11.9643 11.316 12.01 11.3625 12.0273C11.4212 12.0491 11.4909 12.0181 11.5584 11.9396C11.5909 11.9017 11.639 11.8876 11.6871 11.9012C11.7377 11.9157 11.7755 11.9578 11.7833 12.0087C11.7891 12.0462 11.7829 12.1199 11.676 12.1907C11.6687 12.1954 11.6605 12.1977 11.6524 12.1977Z" fill="#F5F5F5"/>
<path d="M10.4791 12.2486C10.47 12.2486 10.461 12.2457 10.4532 12.2399C10.4343 12.2255 10.4307 12.1987 10.445 12.1799L11.3761 10.9555C11.385 10.9394 11.3884 10.9172 11.3923 10.8915C11.3994 10.8435 11.4084 10.7836 11.4818 10.7394C11.5297 10.7107 11.5865 10.7115 11.634 10.7419C11.6864 10.7753 11.7173 10.8377 11.7109 10.897C11.707 10.933 11.686 10.9988 11.5884 11.0349C11.5661 11.0432 11.5416 11.0318 11.5334 11.0097C11.5252 10.9875 11.5365 10.9628 11.5586 10.9547C11.5871 10.9441 11.6218 10.924 11.6257 10.8879C11.6286 10.8605 11.613 10.8303 11.5878 10.8141C11.5737 10.805 11.5515 10.7973 11.526 10.8129C11.4871 10.8362 11.4833 10.8618 11.4769 10.9042C11.4724 10.9343 11.4673 10.9683 11.4472 11.003L10.5131 12.2317C10.5049 12.2427 10.492 12.2486 10.4791 12.2486Z" fill="#FFE15A"/>
<path d="M11.0811 10.9019L10.6528 11.4158L10.8241 11.9299H11.3381L11.5095 11.4158L11.0811 10.9019Z" fill="#FFE15A"/>
<path d="M11.0815 10.8352L10.605 11.407L10.7936 11.973H11.3693L11.5579 11.407L11.0815 10.8352ZM10.7014 11.4253L11.0387 11.0205V11.8873H10.8554L10.7014 11.4253ZM11.3077 11.8873H11.1244V11.0205L11.4617 11.4253L11.3077 11.8873Z" fill="#F5F5F5"/>
<path d="M13.3396 13.0229L13.3461 12.9279C13.3461 12.9279 13.4304 12.8675 13.3893 12.8113C13.3482 12.7551 13.3007 12.7443 13.2013 12.7573C13.102 12.7703 12.9464 12.7681 12.8795 12.7724C12.8125 12.7768 12.7779 12.8134 12.6721 12.7832L12.7002 12.7184C12.7002 12.7184 12.6505 12.7228 12.6203 12.7378C12.6038 12.7461 12.5641 12.6925 12.5252 12.7011C12.4865 12.7097 12.4475 12.7897 12.387 12.8308L12.4194 12.8956C12.4194 12.8956 12.4561 12.8783 12.4842 12.8977C12.5123 12.9172 12.5209 12.9301 12.5685 12.9301L12.5987 12.9431C12.5987 12.9431 12.5879 13.0122 12.6333 13.0447C12.6333 13.0447 12.5814 13.1116 12.5879 13.1224C12.5944 13.1332 12.6376 13.2153 12.6549 13.2628L12.6938 13.1894C12.6938 13.1894 12.6354 13.1375 12.6463 13.131C12.6571 13.1245 12.6959 13.1159 12.6894 13.0986C12.683 13.0813 12.7197 13.1008 12.7607 13.1072C12.7607 13.1072 12.7629 13.1721 12.7716 13.1807C12.7802 13.1893 12.7932 13.2239 12.791 13.2606C12.7889 13.2973 12.7565 13.3081 12.7565 13.3081L12.8148 13.3254C12.8148 13.3254 12.8299 13.3038 12.8408 13.306C12.8408 13.306 12.8364 13.1267 12.8602 13.0986C12.8602 13.0986 13.0006 13.1267 13.0654 13.0921C13.0654 13.0921 13.0737 13.1026 13.0899 13.1125C13.0834 13.1276 13.0779 13.1426 13.0803 13.147C13.0858 13.1568 13.1031 13.1557 13.1074 13.1448C13.1091 13.1407 13.1116 13.1324 13.1141 13.1237C13.122 13.1263 13.1305 13.1283 13.1403 13.1293C13.1394 13.1429 13.1393 13.1555 13.1425 13.1584C13.1506 13.1659 13.1668 13.1595 13.1675 13.1478C13.1678 13.144 13.1676 13.1369 13.1674 13.1292C13.1786 13.1282 13.1905 13.1263 13.2036 13.1224L13.1302 13.2434L13.0935 13.2584L13.141 13.2822L13.1842 13.2649C13.1842 13.2649 13.2252 13.1612 13.2922 13.131C13.2922 13.131 13.3375 13.239 13.2813 13.2974L13.331 13.3254L13.3548 13.2758C13.3548 13.2758 13.3461 13.1786 13.3785 13.1159L13.3396 13.0229Z" fill="#FF4B55"/>
<path d="M12.5253 12.7144C12.5253 12.7144 12.5037 12.6938 12.4982 12.6667C12.4928 12.6396 12.4863 12.6277 12.4624 12.6201C12.4624 12.6201 12.4775 12.6375 12.4754 12.6646C12.4733 12.6916 12.4754 12.7285 12.4906 12.7404L12.5253 12.7144Z" fill="#4173CD"/>
<path d="M12.7148 12.7907C12.7148 12.7907 12.6853 12.891 12.5986 12.9431L12.5684 12.9301C12.5684 12.9301 12.6608 12.8511 12.672 12.7832L12.7148 12.7907Z" fill="#4173CD"/>
<path d="M12.5661 12.7381C12.563 12.7349 12.6041 12.723 12.5943 12.6904C12.5845 12.6579 12.5845 12.634 12.6041 12.6189C12.6041 12.6189 12.6062 12.646 12.6214 12.6633C12.6365 12.6807 12.6453 12.724 12.6203 12.749C12.6204 12.7489 12.5954 12.7685 12.5661 12.7381Z" fill="#4173CD"/>
<path d="M12.5711 13.0338C12.566 13.0313 12.5638 13.0249 12.5664 13.0198L12.5794 12.9932C12.5871 12.9775 12.582 12.9581 12.567 12.9495C12.5504 12.9399 12.5296 12.9465 12.5214 12.9633L12.5078 12.991C12.5052 12.9962 12.4989 12.9984 12.4938 12.9958L12.4856 13.0124C12.4856 13.0124 12.4976 13.0183 12.5121 13.0254L12.5118 13.026C12.5085 13.0327 12.5113 13.0409 12.518 13.0442C12.5247 13.0475 12.5328 13.0447 12.5361 13.038L12.5365 13.0374C12.551 13.0445 12.563 13.0504 12.563 13.0504L12.5711 13.0338Z" fill="#4173CD"/>
<path d="M12.6751 13.2163L12.7076 13.2228L12.6805 13.3063L12.6531 13.2628L12.6751 13.2163Z" fill="#4173CD"/>
<path d="M12.7554 13.3081L12.7356 13.3432H12.8136L12.8138 13.3254L12.7554 13.3081Z" fill="#4173CD"/>
<path d="M13.1396 13.2822V13.3031H13.051L13.0939 13.2603L13.1396 13.2822Z" fill="#4173CD"/>
<path d="M13.2808 13.2974L13.2371 13.3411H13.3291L13.3304 13.3254L13.2808 13.2974Z" fill="#4173CD"/>
<path d="M13.3396 13.6995L13.3461 13.6044C13.3461 13.6044 13.4304 13.544 13.3893 13.4878C13.3482 13.4317 13.3007 13.4208 13.2013 13.4338C13.102 13.4468 12.9464 13.4446 12.8795 13.4489C12.8125 13.4533 12.7779 13.4899 12.6721 13.4597L12.7002 13.3949C12.7002 13.3949 12.6505 13.3993 12.6203 13.4144C12.6038 13.4227 12.5641 13.369 12.5252 13.3777C12.4865 13.3862 12.4475 13.4662 12.387 13.5073L12.4194 13.5721C12.4194 13.5721 12.4561 13.5548 12.4842 13.5743C12.5123 13.5937 12.5209 13.6066 12.5685 13.6066L12.5987 13.6196C12.5987 13.6196 12.5879 13.6887 12.6333 13.7212C12.6333 13.7212 12.5814 13.7881 12.5879 13.7989C12.5944 13.8097 12.6376 13.8918 12.6549 13.9393L12.6938 13.8658C12.6938 13.8658 12.6354 13.814 12.6463 13.8075C12.6571 13.8009 12.6959 13.7924 12.6894 13.7751C12.683 13.7578 12.7197 13.7772 12.7607 13.7837C12.7607 13.7837 12.7629 13.8485 12.7716 13.8571C12.7802 13.8658 12.7932 13.9003 12.791 13.9371C12.7889 13.9738 12.7565 13.9846 12.7565 13.9846L12.8148 14.0019C12.8148 14.0019 12.8299 13.9803 12.8408 13.9824C12.8408 13.9824 12.8364 13.8031 12.8602 13.7751C12.8602 13.7751 13.0006 13.8031 13.0654 13.7686C13.0654 13.7686 13.0737 13.7791 13.0899 13.789C13.0834 13.804 13.0779 13.819 13.0803 13.8234C13.0858 13.8332 13.1031 13.8321 13.1074 13.8213C13.1091 13.8172 13.1116 13.8088 13.1141 13.8001C13.122 13.8027 13.1305 13.8047 13.1403 13.8057C13.1394 13.8194 13.1393 13.8319 13.1425 13.8348C13.1506 13.8424 13.1668 13.836 13.1675 13.8243C13.1678 13.8205 13.1676 13.8133 13.1674 13.8056C13.1786 13.8047 13.1905 13.8027 13.2036 13.7988L13.1302 13.9198L13.0935 13.9349L13.141 13.9587L13.1842 13.9414C13.1842 13.9414 13.2252 13.8377 13.2922 13.8075C13.2922 13.8075 13.3375 13.9155 13.2813 13.9738L13.331 14.0019L13.3548 13.9523C13.3548 13.9523 13.3461 13.8551 13.3785 13.7924L13.3396 13.6995Z" fill="#FF4B55"/>
<path d="M12.5253 13.3911C12.5253 13.3911 12.5037 13.3706 12.4982 13.3435C12.4928 13.3164 12.4863 13.3044 12.4624 13.2969C12.4624 13.2969 12.4775 13.3142 12.4754 13.3413C12.4733 13.3684 12.4754 13.4053 12.4906 13.4172L12.5253 13.3911Z" fill="#4173CD"/>
<path d="M12.7148 13.4675C12.7148 13.4675 12.6853 13.5677 12.5986 13.6199L12.5684 13.6069C12.5684 13.6069 12.6608 13.5278 12.672 13.46L12.7148 13.4675Z" fill="#4173CD"/>
<path d="M12.5661 13.4149C12.563 13.4117 12.6041 13.3998 12.5943 13.3672C12.5845 13.3347 12.5845 13.3108 12.6041 13.2957C12.6041 13.2957 12.6062 13.3227 12.6214 13.3401C12.6366 13.3574 12.6453 13.4008 12.6203 13.4257C12.6204 13.4257 12.5954 13.4453 12.5661 13.4149Z" fill="#4173CD"/>
<path d="M12.5711 13.7105C12.566 13.708 12.5638 13.7017 12.5664 13.6965L12.5794 13.6699C12.5871 13.6543 12.582 13.6349 12.567 13.6262C12.5504 13.6167 12.5296 13.6233 12.5214 13.6401L12.5078 13.6677C12.5052 13.6729 12.4989 13.6751 12.4938 13.6725L12.4856 13.6891C12.4856 13.6891 12.4976 13.695 12.5121 13.7022L12.5118 13.7028C12.5085 13.7095 12.5113 13.7176 12.518 13.7209C12.5247 13.7242 12.5328 13.7214 12.5361 13.7147L12.5365 13.7141C12.551 13.7212 12.563 13.7271 12.563 13.7271L12.5711 13.7105Z" fill="#4173CD"/>
<path d="M12.6751 13.8931L12.7076 13.8996L12.6805 13.9831L12.6531 13.9395L12.6751 13.8931Z" fill="#4173CD"/>
<path d="M12.7554 13.9849L12.7356 14.0199H12.8136L12.8138 14.0022L12.7554 13.9849Z" fill="#4173CD"/>
<path d="M13.1396 13.959V13.9799H13.051L13.0939 13.937L13.1396 13.959Z" fill="#4173CD"/>
<path d="M13.2808 13.9741L13.2371 14.0179H13.3291L13.3304 14.0022L13.2808 13.9741Z" fill="#4173CD"/>
</g>
<defs>
<clipPath id="clip0">
<rect width="24" height="24" fill="white"/>
</clipPath>
</defs>
</svg>
