<svg width="24" height="24" viewBox="0 0 24 24" fill="none" xmlns="http://www.w3.org/2000/svg">
<path d="M14.5 15C13.6729 15 13 15.6729 13 16.5V22.5C13 23.3271 13.6729 24 14.5 24C15.3271 24 16 23.3271 16 22.5V16.5C16 15.6729 15.3271 15 14.5 15Z" fill="#82C341"/>
<path opacity="0.1" d="M14.5 23.75C13.6729 23.75 13 23.0771 13 22.25V22.5C13 23.3271 13.6729 24 14.5 24C15.3271 24 16 23.3271 16 22.5V22.25C16 23.0771 15.3271 23.75 14.5 23.75Z" fill="black"/>
<path d="M9.5 15C8.67285 15 8 15.6729 8 16.5V22.5C8 23.3271 8.67285 24 9.5 24C10.3271 24 11 23.3271 11 22.5V16.5C11 15.6729 10.3271 15 9.5 15Z" fill="#82C341"/>
<path opacity="0.1" d="M9.5 23.75C8.67285 23.75 8 23.0771 8 22.25V22.5C8 23.3271 8.67285 24 9.5 24C10.3271 24 11 23.3271 11 22.5V22.25C11 23.0771 10.3271 23.75 9.5 23.75Z" fill="black"/>
<path d="M18 8H6V17C6 18.1046 6.89543 19 8 19H16C17.1046 19 18 18.1046 18 17V8Z" fill="#82C341"/>
<path d="M20.5 8C19.6729 8 19 8.67285 19 9.5V15.5C19 16.3271 19.6729 17 20.5 17C21.3271 17 22 16.3271 22 15.5V9.5C22 8.67285 21.3271 8 20.5 8Z" fill="#82C341"/>
<path d="M9.12655 2.81053C8.95955 2.81053 8.79598 2.72703 8.70125 2.57469L7.57528 0.764141C7.42977 0.529766 7.50155 0.221172 7.73592 0.075176C7.97127 -0.0698435 8.27889 0.000957176 8.42489 0.23582L9.55086 2.04637C9.69637 2.28074 9.62459 2.58934 9.39022 2.73533C9.3077 2.78611 9.21688 2.81053 9.12655 2.81053Z" fill="#82C341"/>
<path d="M14.8736 2.81053C14.7833 2.81053 14.6925 2.78611 14.6099 2.73533C14.3756 2.58934 14.3038 2.28074 14.4493 2.04637L15.5753 0.235821C15.7213 0.000957221 16.0289 -0.0698436 16.2642 0.075176C16.4986 0.221172 16.5704 0.529766 16.4249 0.764141L15.2989 2.57469C15.2042 2.72703 15.0406 2.81053 14.8736 2.81053Z" fill="#82C341"/>
<path d="M12 1C8.68628 1 6 3.68628 6 7H18C18 3.68628 15.3137 1 12 1Z" fill="#82C341"/>
<path opacity="0.2" d="M18 8H6V8.25H18V8Z" fill="white"/>
<path opacity="0.1" d="M16 18.75H8C6.89545 18.75 6 17.8546 6 16.75V17C6 18.1046 6.89545 19 8 19H16C17.1046 19 18 18.1046 18 17V16.75C18 17.8546 17.1046 18.75 16 18.75Z" fill="black"/>
<path opacity="0.2" d="M20.5 8C19.6729 8 19 8.67285 19 9.5V9.75C19 8.92285 19.6729 8.25 20.5 8.25C21.3271 8.25 22 8.92285 22 9.75V9.5C22 8.67285 21.3271 8 20.5 8Z" fill="white"/>
<path opacity="0.1" d="M20.5 16.75C19.6729 16.75 19 16.0771 19 15.25V15.5C19 16.3271 19.6729 17 20.5 17C21.3271 17 22 16.3271 22 15.5V15.25C22 16.0771 21.3271 16.75 20.5 16.75Z" fill="black"/>
<path opacity="0.2" d="M11.9999 1.25C14.5138 1.25 16.6652 2.71017 17.6008 4.84377C16.743 2.57888 14.5655 1 11.9999 1C9.43439 1 7.25531 2.58302 6.39746 4.84791C7.33307 2.71431 9.48609 1.25 11.9999 1.25Z" fill="white"/>
<path d="M9.5 5C9.77614 5 10 4.77614 10 4.5C10 4.22386 9.77614 4 9.5 4C9.22386 4 9 4.22386 9 4.5C9 4.77614 9.22386 5 9.5 5Z" fill="white"/>
<path d="M14.5 5C14.7761 5 15 4.77614 15 4.5C15 4.22386 14.7761 4 14.5 4C14.2239 4 14 4.22386 14 4.5C14 4.77614 14.2239 5 14.5 5Z" fill="white"/>
<path opacity="0.1" d="M6.01263 6.75C6.00916 6.83356 6 6.91559 6 7H18C18 6.91559 17.9908 6.83356 17.9874 6.75H6.01263Z" fill="black"/>
<path d="M3.5 8C2.67285 8 2 8.67285 2 9.5V15.5C2 16.3271 2.67285 17 3.5 17C4.32715 17 5 16.3271 5 15.5V9.5C5 8.67285 4.32715 8 3.5 8Z" fill="#82C341"/>
<path opacity="0.2" d="M3.5 8C2.67285 8 2 8.67285 2 9.5V9.75C2 8.92285 2.67285 8.25 3.5 8.25C4.32715 8.25 5 8.92285 5 9.75V9.5C5 8.67285 4.32715 8 3.5 8Z" fill="white"/>
<path opacity="0.1" d="M3.5 16.75C2.67285 16.75 2 16.0771 2 15.25V15.5C2 16.3271 2.67285 17 3.5 17C4.32715 17 5 16.3271 5 15.5V15.25C5 16.0771 4.32715 16.75 3.5 16.75Z" fill="black"/>
<path d="M6 17C6 18.1045 6.89545 19 8 19V22.5C8 23.3271 8.67285 24 9.5 24C10.3271 24 11 23.3271 11 22.5V19H13V22.5C13 23.3271 13.6729 24 14.5 24C15.3271 24 16 23.3271 16 22.5V19C17.1046 19 18 18.1045 18 17V7.99998H6V17ZM20.5 7.99998C19.6729 7.99998 19 8.67283 19 9.49998V15.5C19 16.3271 19.6729 17 20.5 17C21.3271 17 22 16.3271 22 15.5V9.49998C22 8.67283 21.3271 7.99998 20.5 7.99998ZM15.55 2.17076L16.4248 0.764141C16.5703 0.529766 16.4985 0.221172 16.2642 0.075176C16.0288 -0.0698435 15.7212 0.000957251 15.5752 0.235821L14.6981 1.64616C13.8863 1.23619 12.9716 0.999981 12 0.999981C11.0284 0.999981 10.1137 1.23619 9.30188 1.64616L8.4248 0.235821C8.27881 0.000957251 7.97119 -0.0698436 7.73584 0.0751759C7.50146 0.221172 7.42969 0.529766 7.5752 0.764141L8.44995 2.17076C6.96661 3.26316 6 5.01652 6 6.99998H18C18 5.01652 17.0334 3.26316 15.55 2.17076ZM3.5 7.99998C2.67285 7.99998 2 8.67283 2 9.49998V15.5C2 16.3271 2.67285 17 3.5 17C4.32715 17 5 16.3271 5 15.5V9.49998C5 8.67283 4.32715 7.99998 3.5 7.99998Z" fill="url(#paint0_linear)"/>
<defs>
<linearGradient id="paint0_linear" x1="2.81538" y1="7.419" x2="21.796" y2="16.2698" gradientUnits="userSpaceOnUse">
<stop stop-color="white" stop-opacity="0.2"/>
<stop offset="1" stop-color="white" stop-opacity="0"/>
</linearGradient>
</defs>
</svg>
