<svg width="36" height="46" viewBox="0 0 36 46" fill="none" xmlns="http://www.w3.org/2000/svg">
<path opacity="0.8" d="M0 4C0 1.79086 1.79086 0 4 0H28L36 8V42C36 44.2091 34.2091 46 32 46H4C1.79086 46 0 44.2091 0 42V4Z" fill="#6376AF"/>
<path opacity="0.7" d="M28 0L36 8H28V0Z" fill="#B4BFDF"/>
<path d="M14.3745 27.7261C14.3745 28.7866 14.0801 29.5981 13.4912 30.1606C12.9023 30.7202 12.0542 31 10.9468 31H9.14941V24.5752H11.1357C12.1582 24.5752 12.9536 24.8506 13.522 25.4014C14.0903 25.9521 14.3745 26.7271 14.3745 27.7261ZM13.2671 27.7612C13.2671 26.2231 12.5479 25.4541 11.1094 25.4541H10.1997V30.1167H10.9468C12.4937 30.1167 13.2671 29.3315 13.2671 27.7612ZM21.4629 27.7788C21.4629 28.8247 21.2007 29.6377 20.6763 30.2178C20.1548 30.7979 19.415 31.0879 18.457 31.0879C17.4873 31.0879 16.7417 30.8008 16.2202 30.2266C15.7017 29.6494 15.4424 28.8306 15.4424 27.77C15.4424 26.7095 15.7031 25.895 16.2246 25.3267C16.749 24.7583 17.4961 24.4741 18.4658 24.4741C19.4209 24.4741 20.1592 24.7627 20.6807 25.3398C21.2021 25.917 21.4629 26.73 21.4629 27.7788ZM16.5586 27.7788C16.5586 28.5698 16.7183 29.1704 17.0376 29.5806C17.3569 29.9878 17.8301 30.1914 18.457 30.1914C19.0811 30.1914 19.5513 29.9893 19.8677 29.585C20.187 29.1807 20.3467 28.5786 20.3467 27.7788C20.3467 26.9907 20.1885 26.3931 19.8721 25.9858C19.5586 25.5786 19.0898 25.375 18.4658 25.375C17.8359 25.375 17.3599 25.5786 17.0376 25.9858C16.7183 26.3931 16.5586 26.9907 16.5586 27.7788ZM25.5762 25.3838C24.9727 25.3838 24.498 25.5977 24.1523 26.0254C23.8066 26.4531 23.6338 27.0435 23.6338 27.7964C23.6338 28.5845 23.7993 29.1807 24.1304 29.585C24.4644 29.9893 24.9463 30.1914 25.5762 30.1914C25.8486 30.1914 26.1123 30.165 26.3672 30.1123C26.6221 30.0566 26.8872 29.9863 27.1626 29.9014V30.8022C26.6587 30.9927 26.0874 31.0879 25.4487 31.0879C24.5083 31.0879 23.7861 30.8037 23.2822 30.2354C22.7783 29.6641 22.5264 28.8481 22.5264 27.7876C22.5264 27.1196 22.6479 26.5352 22.8911 26.0342C23.1372 25.5332 23.4917 25.1494 23.9546 24.8828C24.4175 24.6162 24.9609 24.4829 25.585 24.4829C26.2412 24.4829 26.8477 24.6206 27.4043 24.896L27.0264 25.7705C26.8096 25.668 26.5796 25.5786 26.3364 25.5024C26.0962 25.4233 25.8428 25.3838 25.5762 25.3838Z" fill="white" fill-opacity="0.89"/>
</svg>
