<svg width="36" height="46" viewBox="0 0 36 46" fill="none" xmlns="http://www.w3.org/2000/svg">
<path opacity="0.8" d="M0 4C0 1.79086 1.79086 0 4 0H28L36 8V42C36 44.2091 34.2091 46 32 46H4C1.79086 46 0 44.2091 0 42V4Z" fill="#488B57"/>
<path opacity="0.7" d="M28 0L36 8H28V0Z" fill="#B0DDB8"/>
<path d="M16.5103 27.7261C16.5103 28.7866 16.2158 29.5981 15.627 30.1606C15.0381 30.7202 14.1899 31 13.0825 31H11.2852V24.5752H13.2715C14.2939 24.5752 15.0894 24.8506 15.6577 25.4014C16.2261 25.9521 16.5103 26.7271 16.5103 27.7261ZM15.4028 27.7612C15.4028 26.2231 14.6836 25.4541 13.2451 25.4541H12.3354V30.1167H13.0825C14.6294 30.1167 15.4028 29.3315 15.4028 27.7612ZM23.8228 31H22.6802L21.5903 27.168C21.5435 27.001 21.4849 26.7607 21.4146 26.4473C21.3442 26.1309 21.3018 25.9111 21.2871 25.7881C21.2578 25.9756 21.2095 26.2188 21.1421 26.5176C21.0776 26.8164 21.0234 27.0391 20.9795 27.1855L19.916 31H18.7734L17.9429 27.7832L17.0991 24.5752H18.1714L19.0898 28.3193C19.2334 28.9199 19.3359 29.4502 19.3975 29.9102C19.4297 29.6611 19.478 29.3828 19.5425 29.0752C19.6069 28.7676 19.6655 28.5186 19.7183 28.3281L20.7642 24.5752H21.8057L22.8779 28.3457C22.9805 28.6943 23.0889 29.2158 23.2031 29.9102C23.2471 29.4912 23.3525 28.958 23.5195 28.3105L24.4336 24.5752H25.4971L23.8228 31Z" fill="white" fill-opacity="0.89"/>
</svg>
