<svg width="24" height="24" viewBox="0 0 24 24" fill="none" xmlns="http://www.w3.org/2000/svg">
<path d="M23 10.4348C23 4.67177 18.0752 0 12 0C6.25773 0 1.49938 4.0673 1 9.3913C4.0119 6.3913 7.5 4 12 4.17391C14.5193 4.27128 16.698 6.4624 16.698 10.5059L7.27843 10.502C7.27843 9.19761 7.80952 7.82609 8.85714 6.26087C5.36508 8.17391 3.09524 10.4109 3.09524 14.6087C3.09524 19.7953 8.02008 24 14.0952 24C16.6691 24 19.0309 23.4272 20.9048 22.3787V17.7391C19.4695 18.8145 17.5437 19.8261 15.1429 19.8261C11.0883 19.8261 7.31475 18.6798 7.22745 14.5059L23 14.498V10.4348Z" fill="#009ADA"/>
<path d="M7.27832 10.752L16.6979 10.7559C16.6979 10.6674 16.6828 10.5925 16.6807 10.5059L7.30334 10.502C7.29913 10.5846 7.27832 10.6699 7.27832 10.752Z" fill="url(#paint0_linear)"/>
<path d="M3.09521 14.6086C3.09521 14.6544 3.10242 14.6987 3.10321 14.7443C3.14526 10.7216 5.302 8.51404 8.62268 6.64874C8.70435 6.51825 8.76794 6.39398 8.85712 6.26074C5.36505 8.17377 3.09521 10.4108 3.09521 14.6086Z" fill="url(#paint1_linear)"/>
<path opacity="0.2" d="M12 0C6.25775 0 1.49939 4.06726 1 9.3913C1.01398 9.37738 1.02832 9.36401 1.0423 9.35016C1.68616 4.17133 6.36407 0.25 12 0.25C18.0751 0.25 23 4.92175 23 10.6848V10.4348C23 4.67175 18.0751 0 12 0Z" fill="white"/>
<path d="M15.1429 20.076C17.5437 20.076 19.4695 19.0645 20.9048 17.9891V17.7391C19.4695 18.8145 17.5437 19.826 15.1429 19.826C11.1731 19.826 7.48206 18.7194 7.24719 14.7559H7.22754C7.31482 18.9298 11.0884 20.076 15.1429 20.076Z" fill="url(#paint2_linear)"/>
<path opacity="0.1" d="M7.24719 14.5117L23.0001 14.5039V14.2539L7.22754 14.2617C7.22937 14.3489 7.24219 14.4271 7.24719 14.5117Z" fill="black"/>
<path opacity="0.1" d="M14.0952 23.9941C16.6691 23.9941 19.0309 23.4213 20.9048 22.3728V22.1228C19.0309 23.1713 16.6691 23.7441 14.0952 23.7441C8.07379 23.7441 3.18921 19.6118 3.10321 14.4885C3.10278 14.5285 3.09521 14.5624 3.09521 14.6028C3.09521 19.7894 8.02008 23.9941 14.0952 23.9941Z" fill="black"/>
<path opacity="0.1" d="M12 4.17176C14.4642 4.26697 16.5885 6.37806 16.6808 10.2537H16.6981C16.6981 6.21027 14.5193 4.01911 12 3.92176C7.52087 3.74866 4.04462 6.11756 1.0423 9.09803C1.03015 9.19575 1.00922 9.2906 1 9.38917C4.0119 6.38917 7.5 3.99787 12 4.17176Z" fill="black"/>
<path d="M23 10.4348C23 4.67177 18.0752 0 12 0C6.25773 0 1.49938 4.0673 1 9.3913C4.0119 6.3913 7.5 4 12 4.17391C14.5193 4.27128 16.698 6.4624 16.698 10.5059L7.27843 10.502C7.27843 9.19761 7.80952 7.82609 8.85714 6.26087C5.36508 8.17391 3.09524 10.4109 3.09524 14.6087C3.09524 19.7953 8.02008 24 14.0952 24C16.6691 24 19.0309 23.4272 20.9048 22.3787V17.7391C19.4695 18.8145 17.5437 19.8261 15.1429 19.8261C11.0883 19.8261 7.31475 18.6798 7.22745 14.5059L23 14.498V10.4348Z" fill="url(#paint3_linear)"/>
<defs>
<linearGradient id="paint0_linear" x1="8.08991" y1="8.81515" x2="15.9038" y2="12.4588" gradientUnits="userSpaceOnUse">
<stop stop-color="white" stop-opacity="0.2"/>
<stop offset="1" stop-color="white" stop-opacity="0"/>
</linearGradient>
<linearGradient id="paint1_linear" x1="4.39176" y1="9.76185" x2="6.71857" y2="10.8469" gradientUnits="userSpaceOnUse">
<stop stop-color="white" stop-opacity="0.2"/>
<stop offset="1" stop-color="white" stop-opacity="0"/>
</linearGradient>
<linearGradient id="paint2_linear" x1="7.28589" y1="14.6307" x2="19.7588" y2="20.4469" gradientUnits="userSpaceOnUse">
<stop stop-color="white" stop-opacity="0.2"/>
<stop offset="1" stop-color="white" stop-opacity="0"/>
</linearGradient>
<linearGradient id="paint3_linear" x1="1.61542" y1="6.72724" x2="23.4544" y2="16.9109" gradientUnits="userSpaceOnUse">
<stop stop-color="white" stop-opacity="0.2"/>
<stop offset="1" stop-color="white" stop-opacity="0"/>
</linearGradient>
</defs>
</svg>
