<svg width="24" height="24" viewBox="0 0 24 24" fill="none" xmlns="http://www.w3.org/2000/svg">
<path d="M22.5 3H13.4866C10.1663 8.90308 10 12.5 10 12.5H14C14 12.5 13.5 14.7083 13.5 17C13.5 18.5699 13.7479 19.9308 14.0414 21H22.5C22.7764 21 23 20.7764 23 20.5V3.5C23 3.22363 22.7764 3 22.5 3Z" fill="#F2F2F2"/>
<path d="M14 12.5H10C10 12.5 10.1663 8.90308 13.4866 3H1.5C1.22363 3 1 3.22363 1 3.5V20.5C1 20.7764 1.22363 21 1.5 21H14.0414C13.7479 19.9308 13.5 18.5699 13.5 17C13.5 14.7083 14 12.5 14 12.5Z" fill="url(#paint0_linear)"/>
<path d="M11.9999 17.5C9.32264 17.5 6.72596 16.8999 4.28211 15.7163C4.03358 15.5957 3.92957 15.2969 4.04969 15.0484C4.16981 14.7993 4.47157 14.6968 4.71766 14.816C9.33192 17.0513 14.6679 17.0513 19.2821 14.816C19.5306 14.6968 19.83 14.8003 19.9501 15.0484C20.0702 15.2969 19.9662 15.5957 19.7177 15.7163C17.2738 16.8999 14.6771 17.5 11.9999 17.5Z" fill="#1A1A1A"/>
<path d="M6.5 9C6.22363 9 6 8.77637 6 8.5V6.5C6 6.22363 6.22363 6 6.5 6C6.77637 6 7 6.22363 7 6.5V8.5C7 8.77637 6.77637 9 6.5 9Z" fill="#1A1A1A"/>
<path d="M16.5 9C16.2236 9 16 8.77637 16 8.5V6.5C16 6.22363 16.2236 6 16.5 6C16.7764 6 17 6.22363 17 6.5V8.5C17 8.77637 16.7764 9 16.5 9Z" fill="#1A1A1A"/>
<path opacity="0.2" d="M22.5 3H1.5C1.22363 3 1 3.22363 1 3.5V3.75C1 3.47363 1.22363 3.25 1.5 3.25H22.5C22.7764 3.25 23 3.47363 23 3.75V3.5C23 3.22363 22.7764 3 22.5 3Z" fill="white"/>
<path opacity="0.1" d="M22.5 20.75H1.5C1.22363 20.75 1 20.5264 1 20.25V20.5C1 20.7764 1.22363 21 1.5 21H22.5C22.7764 21 23 20.7764 23 20.5V20.25C23 20.5264 22.7764 20.75 22.5 20.75Z" fill="black"/>
<path d="M22.5 3H1.5C1.22363 3 1 3.22363 1 3.5V20.5C1 20.7764 1.22363 21 1.5 21H22.5C22.7764 21 23 20.7764 23 20.5V3.5C23 3.22363 22.7764 3 22.5 3Z" fill="url(#paint1_linear)"/>
<defs>
<linearGradient id="paint0_linear" x1="7.46796" y1="3.24275" x2="7.53046" y2="23.9928" gradientUnits="userSpaceOnUse">
<stop stop-color="#15BEF0"/>
<stop offset="0.14514" stop-color="#17B7EB"/>
<stop offset="0.353313" stop-color="#1CA4DE"/>
<stop offset="0.59957" stop-color="#2585C7"/>
<stop offset="0.872788" stop-color="#305AA9"/>
<stop offset="1" stop-color="#374499"/>
</linearGradient>
<linearGradient id="paint1_linear" x1="-0.333653" y1="6.24872" x2="24.3337" y2="17.7513" gradientUnits="userSpaceOnUse">
<stop stop-color="white" stop-opacity="0.2"/>
<stop offset="1" stop-color="white" stop-opacity="0"/>
</linearGradient>
</defs>
</svg>
