<svg width="17" height="12" viewBox="0 0 17 12" fill="none" xmlns="http://www.w3.org/2000/svg">
<path d="M14.1172 6.125H13.5078C13.0508 6.125 12.6445 6.27734 12.3145 6.50586C12.6445 6.75977 12.9492 7.06445 13.1777 7.41992C13.2793 7.39453 13.3809 7.34375 13.5078 7.34375H14.1172C14.5996 7.34375 15.0312 7.77539 15.0312 8.25781C15.0312 8.61328 15.2852 8.86719 15.6406 8.86719C15.9707 8.86719 16.25 8.61328 16.25 8.25781C16.25 7.08984 15.2852 6.125 14.1172 6.125ZM13.8125 5.3125C14.9297 5.3125 15.8438 4.42383 15.8438 3.28125C15.8438 2.16406 14.9297 1.25 13.8125 1.25C12.6699 1.25 11.7812 2.16406 11.7812 3.28125C11.7812 4.42383 12.6699 5.3125 13.8125 5.3125ZM13.8125 2.46875C14.2441 2.46875 14.625 2.84961 14.625 3.28125C14.625 3.73828 14.2441 4.09375 13.8125 4.09375C13.3555 4.09375 13 3.73828 13 3.28125C13 2.84961 13.3555 2.46875 13.8125 2.46875ZM3.91016 6.50586C3.58008 6.27734 3.17383 6.125 2.74219 6.125H2.13281C0.939453 6.125 0 7.08984 0 8.25781C0 8.61328 0.253906 8.86719 0.609375 8.86719C0.939453 8.86719 1.21875 8.61328 1.21875 8.25781C1.21875 7.77539 1.625 7.34375 2.13281 7.34375H2.74219C2.84375 7.34375 2.94531 7.39453 3.04688 7.41992C3.27539 7.06445 3.58008 6.75977 3.91016 6.50586ZM2.4375 5.3125C3.55469 5.3125 4.46875 4.42383 4.46875 3.28125C4.46875 2.16406 3.55469 1.25 2.4375 1.25C1.29492 1.25 0.40625 2.16406 0.40625 3.28125C0.40625 4.42383 1.29492 5.3125 2.4375 5.3125ZM2.4375 2.46875C2.86914 2.46875 3.25 2.84961 3.25 3.28125C3.25 3.73828 2.86914 4.09375 2.4375 4.09375C1.98047 4.09375 1.625 3.73828 1.625 3.28125C1.625 2.84961 1.98047 2.46875 2.4375 2.46875ZM9.24219 6.78516C8.88672 6.88672 8.50586 6.9375 8.125 6.9375C7.71875 6.9375 7.33789 6.88672 6.98242 6.78516C5.78906 6.4043 4.44336 6.81055 3.73242 7.82617C3.42773 8.30859 3.25 8.86719 3.25 9.47656V10.5938C3.25 11.2793 3.7832 11.8125 4.46875 11.8125H11.7812C12.4414 11.8125 13 11.2793 13 10.5938V9.47656C13 8.86719 12.7969 8.30859 12.4922 7.82617C11.7812 6.81055 10.4355 6.4043 9.24219 6.78516ZM11.7812 10.5938H4.46875V9.47656C4.46875 8.53711 5.20508 7.77539 6.11914 7.77539C6.75391 8.0293 7.43945 8.15625 8.125 8.15625C8.78516 8.15625 9.4707 8.0293 10.1055 7.77539C11.0195 7.77539 11.7812 8.53711 11.7812 9.47656V10.5938ZM8.125 6.125C9.67383 6.125 10.9688 4.85547 10.9688 3.28125V0.4375L9.54688 1.14844L8.125 0.4375L6.70312 1.14844L5.28125 0.4375V3.28125C5.28125 4.85547 6.55078 6.125 8.125 6.125ZM6.5 2.875H9.75V3.28125C9.75 4.19531 9.01367 4.90625 8.125 4.90625C7.21094 4.90625 6.5 4.19531 6.5 3.28125V2.875Z" fill="#9BAAD4"/>
</svg>
