<svg width="24" height="24" viewBox="0 0 24 24" fill="none" xmlns="http://www.w3.org/2000/svg">
<path d="M12 0C5.37256 0 0 5.37256 0 12C0 18.6274 5.37256 24 12 24C18.6274 24 24 18.6274 24 12C24 5.37256 18.6274 0 12 0ZM12.5 20.5C8.91016 20.5 6 16.6944 6 12C6 7.30554 8.91016 3.5 12.5 3.5C16.0898 3.5 19 7.30554 19 12C19 16.6944 16.0898 20.5 12.5 20.5Z" fill="#EE3124"/>
<path d="M12 0C5.37256 0 0 5.37256 0 12C0 18.6274 5.37256 24 12 24C18.6274 24 24 18.6274 24 12C24 5.37256 18.6274 0 12 0ZM12.5 20.5C8.91016 20.5 6 16.6944 6 12C6 7.30554 8.91016 3.5 12.5 3.5C16.0898 3.5 19 7.30554 19 12C19 16.6944 16.0898 20.5 12.5 20.5Z" fill="url(#paint0_linear)"/>
<path d="M16 22C10.4772 22 6 17.5228 6 12C6 6.47711 10.4772 2 16 2C17.2347 2 18.4121 2.23444 19.504 2.64368C17.4484 0.99292 14.8416 0 12 0C5.37256 0 0 5.37256 0 12C0 18.6274 5.37256 24 12 24C14.8416 24 17.4484 23.0071 19.504 21.3563C18.4121 21.7656 17.2347 22 16 22Z" fill="#EE3124"/>
<path d="M16 22C10.4772 22 6 17.5228 6 12C6 6.47711 10.4772 2 16 2C17.2347 2 18.4121 2.23444 19.504 2.64368C17.4484 0.99292 14.8416 0 12 0C5.37256 0 0 5.37256 0 12C0 18.6274 5.37256 24 12 24C14.8416 24 17.4484 23.0071 19.504 21.3563C18.4121 21.7656 17.2347 22 16 22Z" fill="url(#paint1_linear)"/>
<path d="M12 0C5.37256 0 0 5.37256 0 12C0 18.6274 5.37256 24 12 24C18.6274 24 24 18.6274 24 12C24 5.37256 18.6274 0 12 0ZM12.5 20.5C8.91016 20.5 6 16.6944 6 12C6 7.30554 8.91016 3.5 12.5 3.5C16.0898 3.5 19 7.30554 19 12C19 16.6944 16.0898 20.5 12.5 20.5Z" fill="url(#paint2_linear)"/>
<defs>
<linearGradient id="paint0_linear" x1="14.3603" y1="20.639" x2="10.0686" y2="4.93064" gradientUnits="userSpaceOnUse">
<stop stop-color="#F2F2F2" stop-opacity="0.1"/>
<stop offset="0.341215" stop-color="#969696" stop-opacity="0.168243"/>
<stop offset="0.662638" stop-color="#454545" stop-opacity="0.232528"/>
<stop offset="0.888792" stop-color="#131313" stop-opacity="0.277758"/>
<stop offset="1" stop-opacity="0.3"/>
</linearGradient>
<linearGradient id="paint1_linear" x1="8.71732" y1="3.356" x2="12.5507" y2="20.5227" gradientUnits="userSpaceOnUse">
<stop stop-color="white" stop-opacity="0.1"/>
<stop offset="1" stop-opacity="0.3"/>
</linearGradient>
<linearGradient id="paint2_linear" x1="1.12171" y1="6.92736" x2="22.8783" y2="17.0726" gradientUnits="userSpaceOnUse">
<stop stop-color="white" stop-opacity="0.2"/>
<stop offset="1" stop-color="white" stop-opacity="0"/>
</linearGradient>
</defs>
</svg>
