<svg width="36" height="46" viewBox="0 0 36 46" fill="none" xmlns="http://www.w3.org/2000/svg">
<path opacity="0.8" d="M0 4C0 1.79086 1.79086 0 4 0H28L36 8V42C36 44.2091 34.2091 46 32 46H4C1.79086 46 0 44.2091 0 42V4Z" fill="#B75457"/>
<path opacity="0.7" d="M28 0L36 8H28V0Z" fill="#F2AEAE"/>
<path d="M14.6338 26.5176C14.6338 27.1885 14.4141 27.7026 13.9746 28.0601C13.5352 28.4175 12.9097 28.5962 12.0981 28.5962H11.4302V31H10.3799V24.5752H12.23C13.0327 24.5752 13.6333 24.7393 14.0317 25.0674C14.4331 25.3955 14.6338 25.8789 14.6338 26.5176ZM11.4302 27.7129H11.9883C12.5273 27.7129 12.9229 27.6191 13.1748 27.4316C13.4268 27.2441 13.5527 26.9512 13.5527 26.5527C13.5527 26.1836 13.4399 25.9082 13.2144 25.7266C12.9888 25.5449 12.6372 25.4541 12.1597 25.4541H11.4302V27.7129ZM21.1421 27.7261C21.1421 28.7866 20.8477 29.5981 20.2588 30.1606C19.6699 30.7202 18.8218 31 17.7144 31H15.917V24.5752H17.9033C18.9258 24.5752 19.7212 24.8506 20.2896 25.4014C20.8579 25.9521 21.1421 26.7271 21.1421 27.7261ZM20.0347 27.7612C20.0347 26.2231 19.3154 25.4541 17.877 25.4541H16.9673V30.1167H17.7144C19.2612 30.1167 20.0347 29.3315 20.0347 27.7612ZM23.5679 31H22.5264V24.5752H26.1519V25.4629H23.5679V27.4712H25.9893V28.3633H23.5679V31Z" fill="white" fill-opacity="0.89"/>
</svg>
