<svg width="12" height="13" viewBox="0 0 12 13" fill="none" xmlns="http://www.w3.org/2000/svg"><path d="M11.5312 0.6875H11.2969C11.1328 0.6875 11.0156 0.828125 11.0156 0.96875V3.57031C9.98438 1.85938 8.10938 0.6875 5.97656 0.710938C2.76562 0.710938 0.164062 3.33594 0.1875 6.52344C0.1875 9.73438 2.78906 12.3125 6 12.3125C7.47656 12.3125 8.85938 11.75 9.89062 10.8359C10.0078 10.7188 10.0078 10.5312 9.89062 10.4141L9.72656 10.25C9.63281 10.1562 9.44531 10.1328 9.35156 10.25C8.46094 11.0469 7.28906 11.5156 6 11.5156C3.23438 11.5156 0.984375 9.28906 0.984375 6.5C0.984375 3.75781 3.21094 1.48438 6 1.48438C7.92188 1.48438 9.60938 2.60938 10.4531 4.20312H7.78125C7.61719 4.20312 7.5 4.34375 7.5 4.48438V4.71875C7.5 4.88281 7.61719 5 7.78125 5H11.5312C11.6719 5 11.8125 4.88281 11.8125 4.71875V0.96875C11.8125 0.828125 11.6719 0.6875 11.5312 0.6875Z" fill="#2A618F"/></svg>
