<svg width="12" height="13" viewBox="0 0 12 13" fill="none" xmlns="http://www.w3.org/2000/svg">
<path d="M6 8.46875C5.625 8.46875 5.34375 8.77344 5.34375 9.125C5.34375 9.5 5.625 9.78125 6 9.78125C6.35156 9.78125 6.65625 9.5 6.65625 9.125C6.65625 8.77344 6.35156 8.46875 6 8.46875ZM6.16406 7.90625C6.32812 7.90625 6.44531 7.78906 6.44531 7.625C6.44531 6.61719 8.27344 6.6875 8.27344 5.11719C8.27344 3.92188 7.19531 3.21875 5.97656 3.21875C4.92188 3.21875 4.33594 3.64062 3.84375 4.27344C3.75 4.41406 3.77344 4.57812 3.91406 4.67188L4.21875 4.90625C4.33594 4.97656 4.5 4.95312 4.59375 4.83594C4.94531 4.39062 5.29688 4.15625 5.97656 4.15625C6.91406 4.15625 7.33594 4.64844 7.33594 5.11719C7.33594 6.125 5.50781 5.98438 5.50781 7.625C5.50781 7.78906 5.64844 7.90625 5.78906 7.90625H6.16406ZM6 1.4375C8.76562 1.4375 11.0625 3.71094 11.0625 6.5C11.0625 9.3125 8.78906 11.5625 6 11.5625C3.1875 11.5625 0.9375 9.3125 0.9375 6.5C0.9375 3.71094 3.1875 1.4375 6 1.4375ZM6 0.6875C2.78906 0.6875 0.1875 3.3125 0.1875 6.5C0.1875 9.71094 2.78906 12.3125 6 12.3125C9.1875 12.3125 11.8125 9.71094 11.8125 6.5C11.8125 3.3125 9.1875 0.6875 6 0.6875Z" fill="black" fill-opacity="0.24"/>
</svg>
