<svg width="12" height="13" viewBox="0 0 12 13" fill="none" xmlns="http://www.w3.org/2000/svg">
<path d="M6 1.4375C8.76562 1.4375 11.0625 3.71094 11.0625 6.5C11.0625 9.3125 8.78906 11.5625 6 11.5625C3.1875 11.5625 0.9375 9.3125 0.9375 6.5C0.9375 3.71094 3.1875 1.4375 6 1.4375ZM6 0.6875C2.78906 0.6875 0.1875 3.3125 0.1875 6.5C0.1875 9.71094 2.78906 12.3125 6 12.3125C9.1875 12.3125 11.8125 9.71094 11.8125 6.5C11.8125 3.3125 9.1875 0.6875 6 0.6875ZM5.71875 3.5C5.55469 3.5 5.4375 3.64062 5.4375 3.80469L5.60156 7.74219C5.60156 7.88281 5.74219 8 5.88281 8H6.09375C6.23438 8 6.375 7.88281 6.375 7.74219L6.53906 3.80469C6.53906 3.64062 6.42188 3.5 6.25781 3.5H5.71875ZM6 8.46875C5.625 8.46875 5.34375 8.77344 5.34375 9.125C5.34375 9.5 5.625 9.78125 6 9.78125C6.35156 9.78125 6.65625 9.5 6.65625 9.125C6.65625 8.77344 6.35156 8.46875 6 8.46875Z" fill="#EB3E19"/>
</svg>
