<svg width="13" height="14" viewBox="0 0 13 14" fill="none"
    xmlns="http://www.w3.org/2000/svg">
    <path d="M3.55469 7.83594H9.44531C9.59766 7.83594 9.75 7.70898 9.75 7.53125V6.71875C9.75 6.56641 9.59766 6.41406 9.44531 6.41406H3.55469C3.37695 6.41406 3.25 6.56641 3.25 6.71875V7.53125C3.25 7.70898 3.37695 7.83594 3.55469 7.83594ZM12.7969 7.125C12.7969 3.64648 9.97852 0.828125 6.5 0.828125C3.02148 0.828125 0.203125 3.64648 0.203125 7.125C0.203125 10.6035 3.02148 13.4219 6.5 13.4219C9.97852 13.4219 12.7969 10.6035 12.7969 7.125ZM11.5781 7.125C11.5781 9.94336 9.29297 12.2031 6.5 12.2031C3.68164 12.2031 1.42188 9.94336 1.42188 7.125C1.42188 4.33203 3.68164 2.04688 6.5 2.04688C9.29297 2.04688 11.5781 4.33203 11.5781 7.125Z" fill="#EB3E19"/>
</svg>
