<svg width="16" height="16" viewBox="0 0 16 16" fill="none" xmlns="http://www.w3.org/2000/svg">
<g clip-path="url(#clip0)">
<path d="M1.13637 13.2407H5.33331V2.75952H1.19828C0.536469 2.75952 0 3.29599 0 3.9578V12.044C0 12.685 0.503375 13.2085 1.13637 13.2407Z" fill="#41479B"/>
<path d="M10.6655 2.7594H5.33203V13.2403H10.6655V2.7594Z" fill="#FFE15A"/>
<path d="M14.8649 13.2407C15.4979 13.2085 16.0013 12.685 16.0013 12.044V3.9578C16.0013 3.29602 15.4648 2.75952 14.803 2.75952H10.668V13.2407H14.8649Z" fill="#FF4B55"/>
<path d="M9.87524 8.89585C9.87524 8.81579 9.81033 8.75085 9.73024 8.75085C9.71287 8.75085 9.69643 8.75441 9.68096 8.76004C9.60921 8.69622 9.47918 8.53785 9.60965 8.31429C9.62727 8.32801 9.64918 8.33651 9.67324 8.33651C9.73077 8.33651 9.77737 8.28988 9.77737 8.23238C9.77737 8.18694 9.74808 8.14869 9.70749 8.13447C9.81471 8.07979 9.96762 7.96369 9.95974 7.7466C9.94852 7.43872 9.69633 7.26879 9.54161 7.33672C9.54218 7.33241 9.54293 7.32816 9.54293 7.32372C9.54293 7.267 9.49696 7.22104 9.44024 7.22104C9.40536 7.22104 9.37468 7.2385 9.35615 7.26507C9.34983 7.23429 9.35058 7.17713 9.42215 7.11535C9.55505 7.00057 9.70608 6.72569 9.43121 6.53238C9.27899 6.42535 8.98802 6.37407 8.89055 6.52032C8.84827 6.58372 8.88218 6.67485 8.93046 6.69532C8.85268 6.73869 8.70511 6.80379 8.58852 6.75291C8.42239 6.68044 8.51833 6.53647 8.5553 6.472C8.62024 6.35872 8.57949 6.17297 8.36199 6.17297C8.21699 6.17297 8.14452 6.31797 7.99955 6.31797C7.85458 6.31797 7.78208 6.17297 7.63711 6.17297C7.41964 6.17297 7.37886 6.35872 7.4438 6.472C7.48077 6.53644 7.5767 6.68041 7.41058 6.75291C7.29399 6.80382 7.14645 6.73869 7.06864 6.69532C7.11689 6.67488 7.15083 6.58375 7.10855 6.52032C7.01108 6.3741 6.72011 6.42535 6.56789 6.53238C6.29301 6.72569 6.44408 7.00057 6.57695 7.11535C6.64851 7.17713 6.64926 7.23432 6.64295 7.26507C6.62439 7.2385 6.5937 7.22104 6.55886 7.22104C6.50214 7.22104 6.45617 7.267 6.45617 7.32372C6.45617 7.32816 6.45692 7.33244 6.45748 7.33672C6.30276 7.26875 6.05054 7.43872 6.03936 7.7466C6.03145 7.96366 6.18439 8.07979 6.29161 8.13447C6.25101 8.14872 6.22173 8.18694 6.22173 8.23238C6.22173 8.28991 6.26836 8.33651 6.32586 8.33651C6.34992 8.33651 6.3718 8.32804 6.38945 8.31429C6.51992 8.53788 6.38992 8.69622 6.31814 8.76004C6.3027 8.75441 6.28623 8.75085 6.26886 8.75085C6.1888 8.75085 6.12386 8.81575 6.12386 8.89585C6.12386 8.97104 6.18126 9.03213 6.25455 9.03941C6.15461 9.14207 6.06495 9.36832 6.2598 9.62532C6.47273 9.90622 6.98017 9.88357 7.22483 9.89263C7.37995 9.89838 7.49664 9.97869 7.56142 10.0368C7.52002 10.0623 7.49214 10.1077 7.49214 10.1599C7.49214 10.2332 7.54661 10.2931 7.61714 10.3029C7.64277 10.3439 7.68792 10.3714 7.73983 10.3714C7.79783 10.3714 7.84749 10.3371 7.87071 10.2878C7.94727 10.3509 7.99961 10.3774 7.99961 10.3774C7.99961 10.3774 8.05196 10.351 8.12852 10.2878C8.15171 10.3371 8.20139 10.3714 8.25939 10.3714C8.3113 10.3714 8.35646 10.3439 8.38208 10.3029C8.45261 10.2931 8.50708 10.2332 8.50708 10.1599C8.50708 10.1077 8.47921 10.0623 8.4378 10.0368C8.50255 9.97872 8.61924 9.89838 8.77439 9.89263C9.01905 9.88357 9.52649 9.90622 9.73943 9.62532C9.93424 9.36832 9.84462 9.14204 9.74468 9.03941C9.81783 9.0321 9.87524 8.97104 9.87524 8.89585Z" fill="#DCBE82"/>
<path d="M6.69531 7.03365V9.13594C6.69531 9.37616 6.89003 9.57091 7.13028 9.57091H7.71022C7.92769 9.57091 8.00019 9.71591 8.00019 9.71591C8.00019 9.71591 8.07266 9.57091 8.29016 9.57091H8.87009C9.11031 9.57091 9.30506 9.37619 9.30506 9.13594V7.03365C9.30506 6.99362 9.27263 6.96118 9.23259 6.96118H6.76787C6.72775 6.96112 6.69531 6.99362 6.69531 7.03365Z" fill="#D2AA73"/>
<path d="M7.92722 7.10632H6.83984V8.1937H7.92722V7.10632Z" fill="#FF4B55"/>
<path d="M7.92722 9.42587C7.32666 9.42587 6.83984 8.93906 6.83984 8.3385H7.92722V9.42587Z" fill="#FF4B55"/>
<path d="M8.07031 9.42587V8.3385H9.15769C9.15766 8.93906 8.67081 9.42587 8.07031 9.42587Z" fill="#FFE15A"/>
<path d="M8.22566 7.10632H8.07031V8.1937H8.22566V7.10632Z" fill="#FFE15A"/>
<path d="M8.38191 7.10632H8.22656V8.1937H8.38191V7.10632Z" fill="#FF4B55"/>
<path d="M8.53816 7.10632H8.38281V8.1937H8.53816V7.10632Z" fill="#FFE15A"/>
<path d="M8.69441 7.10632H8.53906V8.1937H8.69441V7.10632Z" fill="#FF4B55"/>
<path d="M8.85066 7.10632H8.69531V8.1937H8.85066V7.10632Z" fill="#FFE15A"/>
<path d="M9.16316 7.10632H9.00781V8.1937H9.16316V7.10632Z" fill="#FFE15A"/>
<path d="M9.00691 7.10632H8.85156V8.1937H9.00691V7.10632Z" fill="#FF4B55"/>
<path d="M7.32394 8.33887H7.20312V9.42624H7.32394V8.33887Z" fill="#FF4B55"/>
<path d="M7.44503 8.33875H7.32422V9.42612H7.44503V8.33875Z" fill="#FFE15A"/>
<path d="M7.68722 8.33875H7.56641V9.42612H7.68722V8.33875Z" fill="#FFE15A"/>
<path d="M7.56613 8.33875H7.44531V9.42612H7.56613V8.33875Z" fill="#FF4B55"/>
<path d="M7.9255 8.33875H7.80469V9.42612H7.9255V8.33875Z" fill="#FFE15A"/>
<path d="M7.80831 8.33875H7.6875V9.42612H7.80831V8.33875Z" fill="#FF4B55"/>
<path d="M6.96066 9.37056V8.3385H6.83984V9.13591C6.83981 9.23275 6.88772 9.31791 6.96066 9.37056Z" fill="#FFE15A"/>
<path d="M7.08175 9.42103V8.3385H6.96094V9.37056C6.99616 9.39603 7.03709 9.4135 7.08175 9.42103Z" fill="#FF4B55"/>
<path d="M7.08203 8.3385V9.42103C7.09781 9.42369 7.11378 9.42591 7.13038 9.42591H7.20284V8.33853L7.08203 8.3385Z" fill="#FFE15A"/>
<path d="M7.00235 8.13188C6.99694 8.13188 6.99147 8.13035 6.98663 8.12716C6.91535 8.08 6.91119 8.03084 6.91507 8.00578C6.92028 7.9719 6.94547 7.94381 6.97922 7.93415C7.01135 7.92512 7.04341 7.93459 7.06503 7.95974C7.11003 8.01206 7.1565 8.03265 7.19562 8.01818C7.22659 8.00671 7.24506 7.97618 7.24506 7.95337C7.24506 7.93759 7.25781 7.9248 7.27362 7.9248C7.28944 7.9248 7.30219 7.93756 7.30219 7.95337C7.30219 8.00331 7.26575 8.05309 7.2155 8.07172C7.17878 8.08528 7.10494 8.09366 7.02175 7.997C7.01281 7.98668 7.00231 7.987 6.99488 7.98906C6.98475 7.99196 6.97353 8.00096 6.97147 8.01443C6.96844 8.03412 6.98544 8.05781 7.0181 8.07947C7.03128 8.08816 7.03485 8.10591 7.02616 8.11906C7.02069 8.12735 7.0116 8.13188 7.00235 8.13188Z" fill="#F5F5F5"/>
<path d="M7.7686 8.1318C7.75935 8.1318 7.75025 8.12727 7.74478 8.11905C7.7361 8.10587 7.73969 8.08815 7.75285 8.07946C7.7855 8.0578 7.8025 8.03412 7.79947 8.01443C7.79738 8.00096 7.78619 7.99196 7.77607 7.98905C7.76863 7.98699 7.7581 7.98665 7.74919 7.99699C7.666 8.09371 7.59213 8.08534 7.55544 8.07171C7.50519 8.05309 7.46875 8.00327 7.46875 7.95337C7.46875 7.93759 7.4815 7.9248 7.49731 7.9248C7.51309 7.9248 7.52588 7.93755 7.52588 7.95337C7.52588 7.97618 7.54434 8.00668 7.57531 8.01818C7.61444 8.03271 7.66094 8.01206 7.70591 7.95974C7.72757 7.93446 7.75963 7.92506 7.79172 7.93415C7.82547 7.94381 7.85069 7.9719 7.85588 8.00577C7.85975 8.0308 7.8556 8.07996 7.78432 8.12715C7.77947 8.13024 7.774 8.1318 7.7686 8.1318Z" fill="#F5F5F5"/>
<path d="M6.98558 8.16567C6.97955 8.16567 6.97348 8.16376 6.9683 8.15989C6.95573 8.1503 6.95333 8.13242 6.96286 8.11986L7.58361 7.30364C7.58954 7.29293 7.5918 7.27808 7.59436 7.26099C7.59914 7.22893 7.60514 7.18902 7.65408 7.15958C7.68598 7.14046 7.72383 7.14099 7.75548 7.16121C7.79042 7.18352 7.81101 7.22508 7.80676 7.26461C7.8042 7.28864 7.79017 7.33249 7.72514 7.35658C7.71026 7.36211 7.69389 7.35449 7.68845 7.33977C7.68298 7.32499 7.69051 7.30852 7.70526 7.30308C7.72423 7.29605 7.74739 7.28261 7.74995 7.25855C7.75192 7.2403 7.74154 7.22014 7.7247 7.20933C7.71529 7.2033 7.70051 7.19814 7.68348 7.20855C7.65758 7.22411 7.65501 7.24118 7.65076 7.26946C7.64776 7.28949 7.64436 7.31218 7.63098 7.33527L7.00826 8.15445C7.00276 8.16173 6.9942 8.16567 6.98558 8.16567Z" fill="#FFE15A"/>
<path d="M7.38709 7.26782L7.10156 7.61048L7.21575 7.95317H7.55844L7.67269 7.61048L7.38709 7.26782Z" fill="#FFE15A"/>
<path d="M7.388 7.22339L7.07031 7.60461L7.19606 7.98192H7.57987L7.70563 7.60461L7.388 7.22339ZM7.13456 7.61676L7.35947 7.34689V7.9248H7.23725L7.13456 7.61676ZM7.53878 7.9248H7.41656V7.34689L7.64147 7.61676L7.53878 7.9248Z" fill="#F5F5F5"/>
<path d="M8.89291 8.68196L8.89722 8.61862C8.89722 8.61862 8.95341 8.57831 8.926 8.54087C8.89866 8.50343 8.86697 8.49621 8.80072 8.50487C8.73447 8.51353 8.63078 8.51209 8.58616 8.51493C8.5415 8.51784 8.51847 8.54227 8.44791 8.52215L8.46663 8.47893C8.46663 8.47893 8.43353 8.48184 8.41334 8.4919C8.40234 8.49743 8.37591 8.46165 8.35 8.46743C8.32419 8.47315 8.29816 8.52646 8.25781 8.55384L8.27941 8.59706C8.27941 8.59706 8.30387 8.58553 8.32262 8.59849C8.34134 8.61146 8.34709 8.62009 8.37881 8.62009L8.399 8.62874C8.399 8.62874 8.39178 8.67481 8.42203 8.69643C8.42203 8.69643 8.38747 8.74109 8.39178 8.74828C8.39609 8.7555 8.42488 8.81022 8.43644 8.84187L8.46238 8.7929C8.46238 8.7929 8.42347 8.75834 8.43069 8.754C8.43791 8.74968 8.46378 8.74393 8.45947 8.7324C8.45516 8.72087 8.47966 8.73384 8.507 8.73815C8.507 8.73815 8.50844 8.78137 8.51422 8.78712C8.52 8.79287 8.52863 8.8159 8.52719 8.8404C8.52575 8.86487 8.50416 8.87209 8.50416 8.87209L8.54306 8.88362C8.54306 8.88362 8.55313 8.86922 8.56035 8.87065C8.56035 8.87065 8.55744 8.75112 8.57331 8.7324C8.57331 8.7324 8.66691 8.75112 8.7101 8.72809C8.7101 8.72809 8.71563 8.73506 8.72641 8.74168C8.7221 8.75172 8.71844 8.76171 8.72007 8.76465C8.72369 8.77118 8.73525 8.77043 8.73813 8.76321C8.73922 8.7605 8.74091 8.7549 8.7426 8.74912C8.74782 8.75084 8.75353 8.75218 8.76007 8.75284C8.75944 8.76193 8.75938 8.77031 8.76147 8.77225C8.76691 8.77728 8.77769 8.773 8.77819 8.76521C8.77838 8.76268 8.77825 8.7579 8.77813 8.75278C8.78557 8.75215 8.7935 8.75084 8.80225 8.74825L8.75328 8.8289L8.72882 8.83897L8.7605 8.85481L8.78929 8.84328C8.78929 8.84328 8.81663 8.77415 8.86129 8.754C8.86129 8.754 8.89154 8.826 8.85407 8.8649L8.88716 8.88362L8.90301 8.85053C8.90301 8.85053 8.89725 8.78575 8.91885 8.74396L8.89291 8.68196Z" fill="#FF4B55"/>
<path d="M8.35053 8.47605C8.35053 8.47605 8.33609 8.46233 8.33247 8.44427C8.32884 8.42621 8.3245 8.41824 8.30859 8.41321C8.30859 8.41321 8.31869 8.42477 8.31728 8.44283C8.31584 8.4609 8.31728 8.48549 8.32737 8.49343L8.35053 8.47605Z" fill="#4173CD"/>
<path d="M8.4765 8.52713C8.4765 8.52713 8.45684 8.59394 8.39909 8.62869L8.37891 8.62003C8.37891 8.62003 8.44056 8.56734 8.44803 8.52209L8.4765 8.52713Z" fill="#4173CD"/>
<path d="M8.37902 8.49195C8.37695 8.48983 8.40433 8.48186 8.3978 8.46017C8.39127 8.43848 8.39127 8.42257 8.40433 8.41248C8.40433 8.41248 8.40577 8.43054 8.4159 8.4421C8.42599 8.45367 8.43181 8.48258 8.41518 8.4992C8.41521 8.49917 8.39855 8.5122 8.37902 8.49195Z" fill="#4173CD"/>
<path d="M8.38125 8.68903C8.37781 8.68735 8.37634 8.68313 8.37806 8.67969L8.38678 8.66194C8.39187 8.65153 8.3885 8.63859 8.37847 8.63281C8.36744 8.62646 8.35356 8.63084 8.34806 8.64206L8.339 8.6605C8.33731 8.66394 8.33309 8.66541 8.32966 8.66369L8.32422 8.67475C8.32422 8.67475 8.33222 8.67869 8.34191 8.68344L8.34169 8.68385C8.33947 8.68832 8.34134 8.69375 8.34581 8.69594C8.35028 8.69816 8.35572 8.69629 8.35791 8.69182L8.35812 8.69141C8.36781 8.69616 8.37581 8.7001 8.37581 8.7001L8.38125 8.68903Z" fill="#4173CD"/>
<path d="M8.45219 8.81079L8.47384 8.81514L8.45578 8.87079L8.4375 8.84176L8.45219 8.81079Z" fill="#4173CD"/>
<path d="M8.50541 8.87195L8.49219 8.89532H8.54422L8.54431 8.88348L8.50541 8.87195Z" fill="#4173CD"/>
<path d="M8.75825 8.85474V8.86862H8.69922L8.72778 8.84009L8.75825 8.85474Z" fill="#4173CD"/>
<path d="M8.85337 8.86475L8.82422 8.8939H8.88559L8.88647 8.88346L8.85337 8.86475Z" fill="#4173CD"/>
<path d="M8.89291 9.13301L8.89722 9.06967C8.89722 9.06967 8.95341 9.02936 8.926 8.99192C8.89866 8.95448 8.86697 8.94726 8.80072 8.95592C8.73447 8.96458 8.63078 8.96314 8.58616 8.96598C8.5415 8.96889 8.51847 8.99333 8.44791 8.9732L8.46663 8.92998C8.46663 8.92998 8.43353 8.93289 8.41334 8.94295C8.40234 8.94848 8.37591 8.9127 8.35 8.91848C8.32419 8.9242 8.29816 8.97751 8.25781 9.00489L8.27941 9.04811C8.27941 9.04811 8.30387 9.03658 8.32262 9.04954C8.34134 9.06251 8.34709 9.07114 8.37881 9.07114L8.399 9.07979C8.399 9.07979 8.39178 9.12586 8.42203 9.14748C8.42203 9.14748 8.38747 9.19214 8.39178 9.1993C8.39609 9.20651 8.42488 9.26123 8.43644 9.29289L8.46238 9.24392C8.46238 9.24392 8.42347 9.20936 8.43069 9.20501C8.43791 9.20067 8.46378 9.19495 8.45947 9.18342C8.45516 9.17189 8.47966 9.18486 8.507 9.18917C8.507 9.18917 8.50844 9.23239 8.51422 9.23814C8.51997 9.24389 8.52863 9.26692 8.52719 9.29142C8.52575 9.31589 8.50416 9.32311 8.50416 9.32311L8.54306 9.33464C8.54306 9.33464 8.55313 9.32023 8.56035 9.32167C8.56035 9.32167 8.55744 9.20214 8.57331 9.18342C8.57331 9.18342 8.66691 9.20214 8.7101 9.17911C8.7101 9.17911 8.71563 9.18608 8.72641 9.1927C8.7221 9.20273 8.71844 9.21273 8.72007 9.21567C8.72369 9.2222 8.73525 9.22145 8.73813 9.21423C8.73922 9.21151 8.74091 9.20592 8.7426 9.20014C8.74782 9.20186 8.75353 9.2032 8.76007 9.20386C8.75944 9.21295 8.75938 9.22133 8.76147 9.22326C8.76691 9.2283 8.77769 9.22401 8.77819 9.21623C8.77838 9.2137 8.77825 9.20892 8.77813 9.2038C8.78557 9.20317 8.7935 9.20186 8.80225 9.19926L8.75328 9.27992L8.72882 9.28998L8.7605 9.30583L8.78929 9.2943C8.78929 9.2943 8.81663 9.22517 8.86129 9.20501C8.86129 9.20501 8.89154 9.27702 8.85407 9.31592L8.88716 9.33464L8.90301 9.30155C8.90301 9.30155 8.89725 9.23676 8.91885 9.19498L8.89291 9.13301Z" fill="#FF4B55"/>
<path d="M8.35053 8.92722C8.35053 8.92722 8.33609 8.91351 8.33247 8.89544C8.32884 8.87738 8.3245 8.86941 8.30859 8.86438C8.30859 8.86438 8.31869 8.87594 8.31728 8.894C8.31584 8.91207 8.31728 8.93666 8.32737 8.9446L8.35053 8.92722Z" fill="#4173CD"/>
<path d="M8.4765 8.9783C8.4765 8.9783 8.45684 9.04511 8.39909 9.07986L8.37891 9.0712C8.37891 9.0712 8.44056 9.01852 8.44803 8.97327L8.4765 8.9783Z" fill="#4173CD"/>
<path d="M8.37902 8.94314C8.37695 8.94102 8.40433 8.93305 8.3978 8.91136C8.39127 8.88968 8.39127 8.87377 8.40433 8.86365C8.40433 8.86365 8.40577 8.88171 8.4159 8.89327C8.42603 8.90483 8.43181 8.93373 8.41518 8.95036C8.41521 8.95036 8.39855 8.96339 8.37902 8.94314Z" fill="#4173CD"/>
<path d="M8.38125 9.1402C8.37781 9.13852 8.37634 9.1343 8.37806 9.13086L8.38678 9.11311C8.39187 9.1027 8.3885 9.08976 8.37847 9.08398C8.36744 9.07764 8.35356 9.08201 8.34806 9.09323L8.339 9.11167C8.33731 9.11511 8.33309 9.11658 8.32966 9.11486L8.32422 9.12592C8.32422 9.12592 8.33222 9.12986 8.34191 9.13461L8.34169 9.13502C8.33947 9.13948 8.34134 9.14492 8.34581 9.14711C8.35028 9.14933 8.35572 9.14745 8.35791 9.14298L8.35812 9.14258C8.36781 9.14733 8.37581 9.15127 8.37581 9.15127L8.38125 9.1402Z" fill="#4173CD"/>
<path d="M8.45219 9.26196L8.47384 9.26631L8.45578 9.32196L8.4375 9.29293L8.45219 9.26196Z" fill="#4173CD"/>
<path d="M8.50541 9.32324L8.49219 9.34662H8.54422L8.54431 9.33477L8.50541 9.32324Z" fill="#4173CD"/>
<path d="M8.75825 9.30592V9.31982H8.69922L8.72778 9.29126L8.75825 9.30592Z" fill="#4173CD"/>
<path d="M8.85337 9.31592L8.82422 9.34511H8.88559L8.88647 9.33467L8.85337 9.31592Z" fill="#4173CD"/>
</g>
<defs>
<clipPath id="clip0">
<rect width="16" height="16" fill="white"/>
</clipPath>
</defs>
</svg>
