<svg width="16" height="16" viewBox="0 0 16 16" fill="none" xmlns="http://www.w3.org/2000/svg">
    <path d="M4.66646 8C4.66646 6.15906 6.15885 4.66667 7.9998 4.66667C8.51347 4.66667 8.99418 4.79248 9.42875 5H15.4128C14.2255 2.06934 11.3563 0 7.9998 0C5.43168 0 3.15226 1.21488 1.68848 3.09595L4.69474 8.28072C4.68677 8.18665 4.66646 8.09615 4.66646 8Z" fill="#F44336"/>
    <path d="M8 11.3333C6.25521 11.3333 4.83976 9.98808 4.69495 8.28072L1.68868 3.09595C0.634115 4.45113 0 6.14982 0 8C0 12.0483 3.00993 15.3856 6.91227 15.9175L9.87964 10.7509C9.34428 11.1174 8.69779 11.3333 8 11.3333Z" fill="#00B060"/>
    <path d="M9.42879 5C10.5516 5.53625 11.3332 6.67273 11.3332 8C11.3332 9.14315 10.7565 10.1504 9.87948 10.7509L6.91211 15.9175C7.26872 15.9661 7.62988 16 7.99984 16C12.4181 16 15.9998 12.4183 15.9998 8C15.9998 6.93823 15.7885 5.92704 15.4129 5H9.42879Z" fill="#FFC107"/>
    <path d="M7.99967 10.6667C9.47243 10.6667 10.6663 9.4728 10.6663 8.00004C10.6663 6.52728 9.47243 5.33337 7.99967 5.33337C6.52692 5.33337 5.33301 6.52728 5.33301 8.00004C5.33301 9.4728 6.52692 10.6667 7.99967 10.6667Z" fill="#2196F3"/>
    <path d="M10.9703 6.50736L15.4128 5H9.42871C10.0953 5.31836 10.6364 5.85152 10.9703 6.50736Z" fill="url(#paint0_linear)"/>
    <path d="M5.22196 6.17368L1.69531 3.08008L4.68736 8.26245C4.62975 7.52596 4.82094 6.79077 5.22196 6.17368Z" fill="url(#paint1_linear)"/>
    <path d="M7.80742 11.319L6.8916 15.9199L9.88365 10.7375C9.27463 11.1557 8.54235 11.3577 7.80742 11.319Z" fill="url(#paint2_linear)"/>
    <path d="M8 16C12.4183 16 16 12.4183 16 8C16 3.58172 12.4183 0 8 0C3.58172 0 0 3.58172 0 8C0 12.4183 3.58172 16 8 16Z" fill="url(#paint3_linear)"/>
    <defs>
        <linearGradient id="paint0_linear" x1="10.9247" y1="3.50398" x2="13.9168" y2="6.49602" gradientUnits="userSpaceOnUse">
            <stop stop-opacity="0.1"/>
            <stop offset="1" stop-opacity="0"/>
        </linearGradient>
        <linearGradient id="paint1_linear" x1="1.25599" y1="3.5194" x2="5.3432" y2="7.60661" gradientUnits="userSpaceOnUse">
            <stop stop-opacity="0.1"/>
            <stop offset="1" stop-opacity="0"/>
        </linearGradient>
        <linearGradient id="paint2_linear" x1="7.09263" y1="12.0337" x2="8.93521" y2="13.8763" gradientUnits="userSpaceOnUse">
            <stop stop-opacity="0.1"/>
            <stop offset="1" stop-opacity="0"/>
        </linearGradient>
        <linearGradient id="paint3_linear" x1="0.747808" y1="4.61825" x2="15.2522" y2="11.3818" gradientUnits="userSpaceOnUse">
            <stop stop-color="white" stop-opacity="0.2"/>
            <stop offset="1" stop-color="white" stop-opacity="0"/>
        </linearGradient>
    </defs>
</svg>
