<svg width="13" height="12" viewBox="0 0 13 12" fill="none" xmlns="http://www.w3.org/2000/svg">
    <path d="M12.2461 5.01562L10.9785 3.98438V1.92188C10.9785 1.83594 10.9141 1.75 10.8066 1.75H10.1191C10.0332 1.77148 9.96875 1.83594 9.96875 1.92188V3.14648L6.93945 0.654297C6.74609 0.482422 6.4668 0.396484 6.1875 0.396484C5.88672 0.396484 5.60742 0.482422 5.41406 0.654297L0.107422 5.01562C0.0429688 5.08008 0 5.16602 0 5.27344C0 5.35938 0.0214844 5.44531 0.0644531 5.48828L0.300781 5.76758C0.34375 5.83203 0.451172 5.875 0.558594 5.875C0.644531 5.875 0.708984 5.85352 0.773438 5.81055L1.375 5.31641V6.5625H1.35352V11.0312C1.35352 11.2246 1.50391 11.375 1.69727 11.375H10.6562C10.8281 11.375 11 11.2246 11 11.0312V5.31641L11.5801 5.81055C11.6445 5.85352 11.709 5.89648 11.7949 5.89648C11.9023 5.89648 12.0098 5.83203 12.0742 5.76758L12.2891 5.48828C12.332 5.44531 12.375 5.35938 12.375 5.27344C12.375 5.16602 12.3105 5.08008 12.2461 5.01562ZM9.96875 5.1875H9.94727V10.3438H7.5625V7.25C7.5625 6.88477 7.24023 6.5625 6.875 6.5625H5.5C5.11328 6.5625 4.8125 6.88477 4.8125 7.25V10.3438H2.38477V4.56445H2.40625V4.47852L6.1875 1.36328L9.96875 4.47852V5.1875Z" fill="#B0DDB8"/>
</svg>
