<svg width="13" height="13" viewBox="0 0 13 13" fill="none" xmlns="http://www.w3.org/2000/svg">
<path d="M6.5 0.328125C3.02148 0.328125 0.203125 3.14648 0.203125 6.625C0.203125 10.1035 3.02148 12.9219 6.5 12.9219C9.97852 12.9219 12.7969 10.1035 12.7969 6.625C12.7969 3.14648 9.97852 0.328125 6.5 0.328125ZM6.5 11.7031C3.68164 11.7031 1.42188 9.44336 1.42188 6.625C1.42188 3.83203 3.68164 1.54688 6.5 1.54688C9.29297 1.54688 11.5781 3.83203 11.5781 6.625C11.5781 9.44336 9.29297 11.7031 6.5 11.7031ZM8.04883 9.0625C8.20117 9.16406 8.37891 9.13867 8.48047 8.98633L8.96289 8.35156C9.06445 8.19922 9.03906 8.02148 8.88672 7.91992L7.21094 6.67578V3.07031C7.21094 2.91797 7.05859 2.76562 6.90625 2.76562H6.09375C5.91602 2.76562 5.78906 2.91797 5.78906 3.07031V7.25977C5.78906 7.33594 5.81445 7.4375 5.89062 7.48828L8.04883 9.0625Z" fill="white" fill-opacity="0.48"/>
</svg>
