<svg width="12" height="12" viewBox="0 0 12 12" fill="none" xmlns="http://www.w3.org/2000/svg">
    <mask id="path-1-inside-1" fill="white">
        <path fill-rule="evenodd" clip-rule="evenodd" d="M6.65613 5.74086L11.6899 0.707107L10.9828 0L5.94903 5.03375L0.956513 0.0412373L0.249406 0.748344L5.24192 5.74086L0 10.9828L0.707107 11.6899L5.94903 6.44797L11.2322 11.7311L11.9393 11.024L6.65613 5.74086Z"/>
    </mask>
    <path d="M11.6899 0.707107L12.397 1.41421L13.1041 0.707107L12.397 5.2434e-07L11.6899 0.707107ZM6.65613 5.74086L5.94903 5.03375L5.24192 5.74086L5.94903 6.44797L6.65613 5.74086ZM10.9828 0L11.6899 -0.707107L10.9828 -1.41421L10.2757 -0.707107L10.9828 0ZM5.94903 5.03375L5.24192 5.74086L5.94903 6.44797L6.65614 5.74086L5.94903 5.03375ZM0.956513 0.0412373L1.66362 -0.665869L0.956513 -1.37298L0.249406 -0.665869L0.956513 0.0412373ZM0.249406 0.748344L-0.457701 0.0412373L-1.16481 0.748344L-0.457701 1.45545L0.249406 0.748344ZM5.24192 5.74086L5.94903 6.44797L6.65614 5.74086L5.94903 5.03375L5.24192 5.74086ZM0 10.9828L-0.707107 10.2757L-1.41421 10.9828L-0.707107 11.6899L0 10.9828ZM0.707107 11.6899L-1.21016e-08 12.397L0.707107 13.1041L1.41421 12.397L0.707107 11.6899ZM5.94903 6.44797L6.65613 5.74086L5.94903 5.03375L5.24192 5.74086L5.94903 6.44797ZM11.2322 11.7311L10.5251 12.4382L11.2322 13.1453L11.9393 12.4382L11.2322 11.7311ZM11.9393 11.024L12.6464 11.7311L13.3535 11.024L12.6464 10.3169L11.9393 11.024ZM10.9828 3.19413e-07L5.94903 5.03375L7.36324 6.44797L12.397 1.41421L10.9828 3.19413e-07ZM10.2757 0.707107L10.9828 1.41421L12.397 5.2434e-07L11.6899 -0.707107L10.2757 0.707107ZM6.65614 5.74086L11.6899 0.707107L10.2757 -0.707107L5.24192 4.32665L6.65614 5.74086ZM0.249406 0.748344L5.24192 5.74086L6.65613 4.32665L1.66362 -0.665869L0.249406 0.748344ZM0.956513 1.45545L1.66362 0.748344L0.249406 -0.665869L-0.457701 0.0412373L0.956513 1.45545ZM5.94903 5.03375L0.956513 0.0412373L-0.457701 1.45545L4.53481 6.44797L5.94903 5.03375ZM0.707107 11.6899L5.94903 6.44797L4.53481 5.03375L-0.707107 10.2757L0.707107 11.6899ZM1.41421 10.9828L0.707107 10.2757L-0.707107 11.6899L-1.21016e-08 12.397L1.41421 10.9828ZM5.24192 5.74086L-1.11908e-07 10.9828L1.41421 12.397L6.65613 7.15507L5.24192 5.74086ZM11.9393 11.024L6.65613 5.74086L5.24192 7.15507L10.5251 12.4382L11.9393 11.024ZM11.2322 10.3169L10.5251 11.024L11.9393 12.4382L12.6464 11.7311L11.2322 10.3169ZM5.94903 6.44797L11.2322 11.7311L12.6464 10.3169L7.36324 5.03375L5.94903 6.44797Z" fill="white" fill-opacity="0.89" mask="url(#path-1-inside-1)"/>
</svg>
