<svg width="16" height="14" viewBox="0 0 16 14" fill="none" xmlns="http://www.w3.org/2000/svg">
<path d="M14.25 0H1.75C1.04688 0 0.5 0.572917 0.5 1.25V9.58333C0.5 10.2865 1.04688 10.8333 1.75 10.8333H6.75L6.33333 12.0833H4.45833C4.09375 12.0833 3.83333 12.3698 3.83333 12.7083C3.83333 13.0729 4.09375 13.3333 4.45833 13.3333H11.5417C11.8802 13.3333 12.1667 13.0729 12.1667 12.7083C12.1667 12.3698 11.8802 12.0833 11.5417 12.0833H9.66667L9.25 10.8333H14.25C14.9271 10.8333 15.5 10.2865 15.5 9.58333V1.25C15.5 0.572917 14.9271 0 14.25 0ZM13.8333 7.5H2.16667V1.66667H13.8333V7.5Z" fill="white" fill-opacity="0.48"/>
</svg>
