<svg width="16" height="16" viewBox="0 0 16 16" fill="none" xmlns="http://www.w3.org/2000/svg">
    <path d="M14.8017 2.75879H1.19828C0.536469 2.75879 0 3.29526 0 3.95707V12.0433C0 12.7051 0.536469 13.2416 1.19828 13.2416H14.8017C15.4635 13.2416 16 12.7051 16 12.0433V3.95707C16 3.29526 15.4635 2.75879 14.8017 2.75879Z" fill="#F5F5F5"/>
    <path d="M0.0654297 3.56516H15.9336C15.7712 3.09588 15.3257 2.75879 14.8012 2.75879H1.1978C0.673305 2.75879 0.227836 3.09588 0.0654297 3.56516Z" fill="#FF4B55"/>
    <path d="M16 5.98425H0V6.7906H16V5.98425Z" fill="#FF4B55"/>
    <path d="M16 4.37146H0V5.1778H16V4.37146Z" fill="#FF4B55"/>
    <path d="M0 8.12754C0 8.27988 0.123531 8.40341 0.275875 8.40341H16V7.59705H0V8.12754Z" fill="#FF4B55"/>
    <path d="M16 10.8226H0V11.629H16V10.8226Z" fill="#FF4B55"/>
    <path d="M15.9336 12.4351H0.0654297C0.227836 12.9043 0.673336 13.2414 1.1978 13.2414H14.8012C15.3257 13.2414 15.7712 12.9043 15.9336 12.4351Z" fill="#FF4B55"/>
    <path d="M16 9.20984H0V10.0162H16V9.20984Z" fill="#FF4B55"/>
    <path d="M0.275875 8.40326H7.17244C7.32478 8.40326 7.44831 8.27973 7.44831 8.12739V3.03454C7.44831 2.88217 7.32478 2.75867 7.17244 2.75867H1.19828C0.536469 2.7587 0 3.29517 0 3.95698V8.12739C0 8.27976 0.123531 8.40326 0.275875 8.40326Z" fill="#41479B"/>
    <path d="M0.77555 3.39181L0.836612 3.57493L1.02964 3.5764C1.05464 3.57662 1.06499 3.6085 1.04489 3.62334L0.889612 3.738L0.947862 3.92203C0.955424 3.94584 0.928268 3.96559 0.907924 3.95103L0.750893 3.83881L0.593862 3.95106C0.573519 3.96562 0.546425 3.94587 0.553925 3.92206L0.612175 3.73803L0.456894 3.62337C0.4368 3.6085 0.447144 3.57662 0.472144 3.57643L0.665175 3.57496L0.726237 3.39184C0.734112 3.36809 0.767612 3.36809 0.77555 3.39181Z" fill="#F5F5F5"/>
    <path d="M0.77555 4.34967L0.836612 4.5328L1.02964 4.53427C1.05464 4.53449 1.06499 4.56633 1.04489 4.5812L0.889612 4.69589L0.947862 4.87993C0.955424 4.90374 0.928268 4.92349 0.907924 4.90893L0.750893 4.79671L0.593862 4.90896C0.573519 4.92349 0.546425 4.90377 0.553925 4.87996L0.612175 4.69592L0.456894 4.58124C0.4368 4.56636 0.447144 4.53452 0.472144 4.5343L0.665175 4.53283L0.726237 4.3497C0.734112 4.32598 0.767612 4.32598 0.77555 4.34967Z" fill="#F5F5F5"/>
    <path d="M0.77555 5.30758L0.836612 5.49071L1.02964 5.49217C1.05464 5.49239 1.06499 5.52424 1.04489 5.53911L0.889612 5.6538L0.947862 5.83783C0.955424 5.86164 0.928268 5.88139 0.907924 5.86683L0.750893 5.75461L0.593862 5.86686C0.573519 5.88139 0.546425 5.86171 0.553925 5.83786L0.612175 5.65383L0.456894 5.53914C0.4368 5.52427 0.447144 5.49242 0.472144 5.49221L0.665175 5.49074L0.726237 5.30761C0.734112 5.28386 0.767612 5.28386 0.77555 5.30758Z" fill="#F5F5F5"/>
    <path d="M0.77555 6.26571L0.836612 6.44883L1.02964 6.4503C1.05464 6.45052 1.06499 6.4824 1.04489 6.49724L0.889612 6.61193L0.947862 6.79596C0.955424 6.81977 0.928268 6.83952 0.907924 6.82496L0.750893 6.71274L0.593862 6.82499C0.573519 6.83952 0.546425 6.8198 0.553925 6.79599L0.612175 6.61196L0.456894 6.49727C0.4368 6.48246 0.447144 6.45055 0.472144 6.45033L0.665175 6.44886L0.726237 6.26574C0.734112 6.24199 0.767612 6.24199 0.77555 6.26571Z" fill="#F5F5F5"/>
    <path d="M0.77555 7.22369L0.836612 7.40682L1.02964 7.40829C1.05464 7.40851 1.06499 7.44035 1.04489 7.45523L0.889612 7.56991L0.947862 7.75394C0.955424 7.77776 0.928268 7.79751 0.907924 7.78294L0.750893 7.67073L0.593862 7.78298C0.573519 7.79751 0.546425 7.77779 0.553925 7.75398L0.612175 7.56994L0.456894 7.45526C0.4368 7.44038 0.447144 7.40854 0.472144 7.40832L0.665175 7.40685L0.726237 7.22373C0.734112 7.20001 0.767612 7.20001 0.77555 7.22369Z" fill="#F5F5F5"/>
    <path d="M1.51871 3.86127L1.57978 4.0444L1.77281 4.04587C1.79781 4.04609 1.80815 4.07796 1.78806 4.0928L1.63278 4.20749L1.69103 4.39152C1.69859 4.41534 1.67143 4.43509 1.65109 4.42053L1.49406 4.30827L1.33703 4.42053C1.31668 4.43506 1.28959 4.41534 1.29709 4.39152L1.35534 4.20749L1.20006 4.0928C1.17996 4.07793 1.19031 4.04609 1.21531 4.04587L1.40834 4.0444L1.4694 3.86127C1.47728 3.83758 1.51081 3.83758 1.51871 3.86127Z" fill="#F5F5F5"/>
    <path d="M1.51871 4.8193L1.57978 5.00243L1.77281 5.0039C1.79781 5.00412 1.80815 5.03599 1.78806 5.05083L1.63278 5.16552L1.69103 5.34955C1.69859 5.37337 1.67143 5.39312 1.65109 5.37855L1.49406 5.2663L1.33703 5.37855C1.31668 5.39308 1.28959 5.3734 1.29709 5.34955L1.35534 5.16552L1.20006 5.05083C1.17996 5.03602 1.19031 5.00412 1.21531 5.0039L1.40834 5.00243L1.4694 4.8193C1.47728 4.79558 1.51081 4.79558 1.51871 4.8193Z" fill="#F5F5F5"/>
    <path d="M1.51871 5.77731L1.57978 5.96044L1.77281 5.96191C1.79781 5.96212 1.80815 5.99397 1.78806 6.00884L1.63278 6.12353L1.69103 6.30756C1.69859 6.33138 1.67143 6.35113 1.65109 6.33656L1.49406 6.22431L1.33703 6.33656C1.31668 6.35109 1.28959 6.33138 1.29709 6.30756L1.35534 6.12353L1.20006 6.00884C1.17996 5.99397 1.19031 5.96212 1.21531 5.96191L1.40834 5.96044L1.4694 5.77731C1.47728 5.75359 1.51081 5.75359 1.51871 5.77731Z" fill="#F5F5F5"/>
    <path d="M1.51871 6.73529L1.57978 6.91842L1.77281 6.91989C1.79781 6.92011 1.80815 6.95195 1.78806 6.96683L1.63278 7.08151L1.69103 7.26554C1.69859 7.28936 1.67143 7.30911 1.65109 7.29454L1.49406 7.18229L1.33703 7.29454C1.31668 7.30911 1.28959 7.28936 1.29709 7.26554L1.35534 7.08151L1.20006 6.96683C1.17996 6.95195 1.19031 6.92011 1.21531 6.91989L1.40834 6.91842L1.4694 6.73529C1.47728 6.71161 1.51081 6.71161 1.51871 6.73529Z" fill="#F5F5F5"/>
    <path d="M2.26285 3.39169L2.32392 3.57482L2.51695 3.57628C2.54195 3.5765 2.55229 3.60838 2.5322 3.62322L2.37692 3.73788L2.43517 3.92191C2.44273 3.94572 2.41557 3.96547 2.39523 3.95091L2.2382 3.83866L2.08117 3.95091C2.06082 3.96547 2.03373 3.94572 2.04123 3.92191L2.09948 3.73788L1.9442 3.62322C1.9241 3.60835 1.93445 3.57647 1.95945 3.57628L2.15248 3.57482L2.21354 3.39169C2.22142 3.36797 2.25495 3.36797 2.26285 3.39169Z" fill="#F5F5F5"/>
    <path d="M2.26285 4.34955L2.32392 4.53268L2.51695 4.53415C2.54195 4.53437 2.55229 4.56621 2.5322 4.58108L2.37692 4.69577L2.43517 4.8798C2.44273 4.90361 2.41557 4.92336 2.39523 4.9088L2.2382 4.79655L2.08117 4.9088C2.06082 4.92333 2.03373 4.90361 2.04123 4.8798L2.09948 4.69577L1.9442 4.58108C1.9241 4.56621 1.93445 4.53437 1.95945 4.53415L2.15248 4.53268L2.21354 4.34955C2.22142 4.32587 2.25495 4.32587 2.26285 4.34955Z" fill="#F5F5F5"/>
    <path d="M2.26285 5.30758L2.32392 5.49071L2.51695 5.49218C2.54195 5.4924 2.55229 5.52424 2.5322 5.53912L2.37692 5.6538L2.43517 5.83783C2.44273 5.86165 2.41557 5.8814 2.39523 5.86683L2.2382 5.75458L2.08117 5.86683C2.06082 5.88137 2.03373 5.86168 2.04123 5.83783L2.09948 5.6538L1.9442 5.53912C1.9241 5.52424 1.93445 5.4924 1.95945 5.49218L2.15248 5.49071L2.21354 5.30758C2.22142 5.28387 2.25495 5.28387 2.26285 5.30758Z" fill="#F5F5F5"/>
    <path d="M2.26285 6.26559L2.32392 6.44872L2.51695 6.45019C2.54195 6.45041 2.55229 6.48228 2.5322 6.49712L2.37692 6.61181L2.43517 6.79584C2.44273 6.81966 2.41557 6.83941 2.39523 6.82484L2.2382 6.71259L2.08117 6.82484C2.06082 6.83938 2.03373 6.81966 2.04123 6.79584L2.09948 6.61181L1.9442 6.49712C1.9241 6.48231 1.93445 6.45041 1.95945 6.45019L2.15248 6.44872L2.21354 6.26559C2.22142 6.24187 2.25495 6.24187 2.26285 6.26559Z" fill="#F5F5F5"/>
    <path d="M2.26285 7.22358L2.32392 7.4067L2.51695 7.40817C2.54195 7.40839 2.55229 7.44023 2.5322 7.45511L2.37692 7.56979L2.43517 7.75382C2.44273 7.77764 2.41557 7.79739 2.39523 7.78283L2.2382 7.67057L2.08117 7.78283C2.06082 7.79736 2.03373 7.77764 2.04123 7.75382L2.09948 7.56979L1.9442 7.45511C1.9241 7.44023 1.93445 7.40839 1.95945 7.40817L2.15248 7.4067L2.21354 7.22358C2.22142 7.19989 2.25495 7.19989 2.26285 7.22358Z" fill="#F5F5F5"/>
    <path d="M3.00602 3.86127L3.06708 4.0444L3.26011 4.04587C3.28511 4.04609 3.29546 4.07796 3.27536 4.0928L3.12008 4.20749L3.17833 4.39152C3.18589 4.41534 3.15874 4.43509 3.13839 4.42053L2.98136 4.30827L2.82433 4.42053C2.80399 4.43506 2.77689 4.41534 2.78439 4.39152L2.84264 4.20749L2.68736 4.0928C2.66727 4.07793 2.67761 4.04609 2.70261 4.04587L2.89564 4.0444L2.95671 3.86127C2.96455 3.83758 2.99811 3.83758 3.00602 3.86127Z" fill="#F5F5F5"/>
    <path d="M3.00602 4.8193L3.06708 5.00243L3.26011 5.0039C3.28511 5.00412 3.29546 5.03599 3.27536 5.05083L3.12008 5.16552L3.17833 5.34955C3.18589 5.37337 3.15874 5.39312 3.13839 5.37855L2.98136 5.2663L2.82433 5.37855C2.80399 5.39308 2.77689 5.3734 2.78439 5.34955L2.84264 5.16552L2.68736 5.05083C2.66727 5.03602 2.67761 5.00412 2.70261 5.0039L2.89564 5.00243L2.95671 4.8193C2.96455 4.79558 2.99811 4.79558 3.00602 4.8193Z" fill="#F5F5F5"/>
    <path d="M3.00602 5.77731L3.06708 5.96044L3.26011 5.96191C3.28511 5.96212 3.29546 5.99397 3.27536 6.00884L3.12008 6.12353L3.17833 6.30756C3.18589 6.33138 3.15874 6.35113 3.13839 6.33656L2.98136 6.22431L2.82433 6.33656C2.80399 6.35109 2.77689 6.33138 2.78439 6.30756L2.84264 6.12353L2.68736 6.00884C2.66727 5.99397 2.67761 5.96212 2.70261 5.96191L2.89564 5.96044L2.95671 5.77731C2.96455 5.75359 2.99811 5.75359 3.00602 5.77731Z" fill="#F5F5F5"/>
    <path d="M3.00602 6.73529L3.06708 6.91842L3.26011 6.91989C3.28511 6.92011 3.29546 6.95195 3.27536 6.96683L3.12008 7.08151L3.17833 7.26554C3.18589 7.28936 3.15874 7.30911 3.13839 7.29454L2.98136 7.18229L2.82433 7.29454C2.80399 7.30911 2.77689 7.28936 2.78439 7.26554L2.84264 7.08151L2.68736 6.96683C2.66727 6.95195 2.67761 6.92011 2.70261 6.91989L2.89564 6.91842L2.95671 6.73529C2.96455 6.71161 2.99811 6.71161 3.00602 6.73529Z" fill="#F5F5F5"/>
    <path d="M3.75019 3.39169L3.81125 3.57481L4.00429 3.57628C4.02929 3.5765 4.03963 3.60837 4.01954 3.62322L3.86425 3.73787L3.9225 3.9219C3.93007 3.94572 3.90291 3.96547 3.88257 3.9509L3.7255 3.83869L3.56847 3.95094C3.54813 3.9655 3.52103 3.94575 3.52853 3.92194L3.58679 3.7379L3.4315 3.62325C3.41141 3.60837 3.42175 3.5765 3.44675 3.57631L3.63979 3.57484L3.70085 3.39172C3.70875 3.36797 3.74229 3.36797 3.75019 3.39169Z" fill="#F5F5F5"/>
    <path d="M3.75019 4.34955L3.81125 4.53268L4.00429 4.53415C4.02929 4.53437 4.03963 4.56621 4.01954 4.58108L3.86425 4.69577L3.9225 4.8798C3.93007 4.90361 3.90291 4.92336 3.88257 4.9088L3.7255 4.79655L3.56847 4.9088C3.54813 4.92333 3.52103 4.90361 3.52853 4.8798L3.58679 4.69577L3.4315 4.58108C3.41141 4.56621 3.42175 4.53437 3.44675 4.53415L3.63979 4.53268L3.70085 4.34955C3.70875 4.32587 3.74229 4.32587 3.75019 4.34955Z" fill="#F5F5F5"/>
    <path d="M3.75019 5.30747L3.81125 5.49059L4.00429 5.49206C4.02929 5.49228 4.03963 5.52412 4.01954 5.539L3.86425 5.65368L3.9225 5.83772C3.93007 5.86153 3.90291 5.88128 3.88257 5.86672L3.7255 5.75443L3.56847 5.86668C3.54813 5.88122 3.52103 5.8615 3.52853 5.83768L3.58679 5.65365L3.4315 5.53897C3.41141 5.52409 3.42175 5.49225 3.44675 5.49203L3.63979 5.49056L3.70085 5.30743C3.70875 5.28375 3.74229 5.28375 3.75019 5.30747Z" fill="#F5F5F5"/>
    <path d="M3.75019 6.26559L3.81125 6.44872L4.00429 6.45019C4.02929 6.45041 4.03963 6.48228 4.01954 6.49712L3.86425 6.61181L3.9225 6.79584C3.93007 6.81966 3.90291 6.83941 3.88257 6.82484L3.7255 6.71259L3.56847 6.82484C3.54813 6.83938 3.52103 6.81966 3.52853 6.79584L3.58679 6.61181L3.4315 6.49712C3.41141 6.48231 3.42175 6.45041 3.44675 6.45019L3.63979 6.44872L3.70085 6.26559C3.70875 6.24187 3.74229 6.24187 3.75019 6.26559Z" fill="#F5F5F5"/>
    <path d="M3.75019 7.22358L3.81125 7.4067L4.00429 7.40817C4.02929 7.40839 4.03963 7.44023 4.01954 7.45511L3.86425 7.56979L3.9225 7.75382C3.93007 7.77764 3.90291 7.79739 3.88257 7.78283L3.7255 7.67057L3.56847 7.78283C3.54813 7.79736 3.52103 7.77764 3.52853 7.75382L3.58679 7.56979L3.4315 7.45511C3.41141 7.44023 3.42175 7.40839 3.44675 7.40817L3.63979 7.4067L3.70085 7.22358C3.70875 7.19989 3.74229 7.19989 3.75019 7.22358Z" fill="#F5F5F5"/>
    <path d="M4.49234 3.86127L4.55341 4.0444L4.74644 4.04587C4.77144 4.04609 4.78178 4.07796 4.76169 4.0928L4.60641 4.20749L4.66466 4.39152C4.67222 4.41534 4.64506 4.43509 4.62472 4.42053L4.46769 4.30827L4.31066 4.42053C4.29031 4.43506 4.26322 4.41534 4.27072 4.39152L4.32897 4.20749L4.17369 4.0928C4.1536 4.07793 4.16394 4.04609 4.18894 4.04587L4.38197 4.0444L4.44303 3.86127C4.45094 3.83758 4.48444 3.83758 4.49234 3.86127Z" fill="#F5F5F5"/>
    <path d="M4.49234 4.8193L4.55341 5.00243L4.74644 5.0039C4.77144 5.00412 4.78178 5.03599 4.76169 5.05083L4.60641 5.16552L4.66466 5.34955C4.67222 5.37337 4.64506 5.39312 4.62472 5.37855L4.46769 5.2663L4.31066 5.37855C4.29031 5.39308 4.26322 5.3734 4.27072 5.34955L4.32897 5.16552L4.17369 5.05083C4.1536 5.03602 4.16394 5.00412 4.18894 5.0039L4.38197 5.00243L4.44303 4.8193C4.45094 4.79558 4.48444 4.79558 4.49234 4.8193Z" fill="#F5F5F5"/>
    <path d="M4.49234 5.77731L4.55341 5.96044L4.74644 5.96191C4.77144 5.96212 4.78178 5.99397 4.76169 6.00884L4.60641 6.12353L4.66466 6.30756C4.67222 6.33138 4.64506 6.35113 4.62472 6.33656L4.46769 6.22431L4.31066 6.33656C4.29031 6.35109 4.26322 6.33138 4.27072 6.30756L4.32897 6.12353L4.17369 6.00884C4.1536 5.99397 4.16394 5.96212 4.18894 5.96191L4.38197 5.96044L4.44303 5.77731C4.45094 5.75359 4.48444 5.75359 4.49234 5.77731Z" fill="#F5F5F5"/>
    <path d="M4.49234 6.73529L4.55341 6.91842L4.74644 6.91989C4.77144 6.92011 4.78178 6.95195 4.76169 6.96683L4.60641 7.08151L4.66466 7.26554C4.67222 7.28936 4.64506 7.30911 4.62472 7.29454L4.46769 7.18229L4.31066 7.29454C4.29031 7.30911 4.26322 7.28936 4.27072 7.26554L4.32897 7.08151L4.17369 6.96683C4.1536 6.95195 4.16394 6.92011 4.18894 6.91989L4.38197 6.91842L4.44303 6.73529C4.45094 6.71161 4.48444 6.71161 4.49234 6.73529Z" fill="#F5F5F5"/>
    <path d="M5.23648 3.39169L5.29755 3.57482L5.49058 3.57628C5.51558 3.5765 5.52592 3.60838 5.50583 3.62322L5.35055 3.73788L5.4088 3.92191C5.41636 3.94572 5.3892 3.96547 5.36886 3.95091L5.21183 3.83866L5.0548 3.95091C5.03446 3.96547 5.00736 3.94572 5.01486 3.92191L5.07311 3.73788L4.91783 3.62322C4.89774 3.60835 4.90808 3.57647 4.93308 3.57628L5.12611 3.57482L5.18717 3.39169C5.19502 3.36797 5.22858 3.36797 5.23648 3.39169Z" fill="#F5F5F5"/>
    <path d="M5.23648 4.34955L5.29755 4.53268L5.49058 4.53415C5.51558 4.53437 5.52592 4.56621 5.50583 4.58108L5.35055 4.69577L5.4088 4.8798C5.41636 4.90361 5.3892 4.92336 5.36886 4.9088L5.21183 4.79655L5.0548 4.9088C5.03446 4.92333 5.00736 4.90361 5.01486 4.8798L5.07311 4.69577L4.91783 4.58108C4.89774 4.56621 4.90808 4.53437 4.93308 4.53415L5.12611 4.53268L5.18717 4.34955C5.19502 4.32587 5.22858 4.32587 5.23648 4.34955Z" fill="#F5F5F5"/>
    <path d="M5.23648 5.30758L5.29755 5.49071L5.49058 5.49218C5.51558 5.4924 5.52592 5.52424 5.50583 5.53912L5.35055 5.6538L5.4088 5.83783C5.41636 5.86165 5.3892 5.8814 5.36886 5.86683L5.21183 5.75458L5.0548 5.86683C5.03446 5.88137 5.00736 5.86168 5.01486 5.83783L5.07311 5.6538L4.91783 5.53912C4.89774 5.52424 4.90808 5.4924 4.93308 5.49218L5.12611 5.49071L5.18717 5.30758C5.19502 5.28387 5.22858 5.28387 5.23648 5.30758Z" fill="#F5F5F5"/>
    <path d="M5.23648 6.26559L5.29755 6.44872L5.49058 6.45019C5.51558 6.45041 5.52592 6.48228 5.50583 6.49712L5.35055 6.61181L5.4088 6.79584C5.41636 6.81966 5.3892 6.83941 5.36886 6.82484L5.21183 6.71259L5.0548 6.82484C5.03446 6.83938 5.00736 6.81966 5.01486 6.79584L5.07311 6.61181L4.91783 6.49712C4.89774 6.48231 4.90808 6.45041 4.93308 6.45019L5.12611 6.44872L5.18717 6.26559C5.19502 6.24187 5.22858 6.24187 5.23648 6.26559Z" fill="#F5F5F5"/>
    <path d="M5.23648 7.22358L5.29755 7.4067L5.49058 7.40817C5.51558 7.40839 5.52592 7.44023 5.50583 7.45511L5.35055 7.56979L5.4088 7.75382C5.41636 7.77764 5.3892 7.79739 5.36886 7.78283L5.21183 7.67057L5.0548 7.78283C5.03446 7.79736 5.00736 7.77764 5.01486 7.75382L5.07311 7.56979L4.91783 7.45511C4.89774 7.44023 4.90808 7.40839 4.93308 7.40817L5.12611 7.4067L5.18717 7.22358C5.19502 7.19989 5.22858 7.19989 5.23648 7.22358Z" fill="#F5F5F5"/>
    <path d="M5.98063 3.86127L6.04169 4.0444L6.23472 4.04587C6.25972 4.04609 6.27006 4.07796 6.24997 4.0928L6.09469 4.20749L6.15294 4.39152C6.1605 4.41534 6.13335 4.43509 6.113 4.42053L5.95597 4.30827L5.79894 4.42053C5.7786 4.43506 5.7515 4.41534 5.759 4.39152L5.81725 4.20749L5.66197 4.0928C5.64188 4.07793 5.65222 4.04609 5.67722 4.04587L5.87025 4.0444L5.93131 3.86127C5.93919 3.83758 5.97272 3.83758 5.98063 3.86127Z" fill="#F5F5F5"/>
    <path d="M5.98063 4.8193L6.04169 5.00243L6.23472 5.0039C6.25972 5.00412 6.27006 5.03599 6.24997 5.05083L6.09469 5.16552L6.15294 5.34955C6.1605 5.37337 6.13335 5.39312 6.113 5.37855L5.95597 5.2663L5.79894 5.37855C5.7786 5.39308 5.7515 5.3734 5.759 5.34955L5.81725 5.16552L5.66197 5.05083C5.64188 5.03602 5.65222 5.00412 5.67722 5.0039L5.87025 5.00243L5.93131 4.8193C5.93919 4.79558 5.97272 4.79558 5.98063 4.8193Z" fill="#F5F5F5"/>
    <path d="M5.98063 5.77731L6.04169 5.96044L6.23472 5.96191C6.25972 5.96212 6.27006 5.99397 6.24997 6.00884L6.09469 6.12353L6.15294 6.30756C6.1605 6.33138 6.13335 6.35113 6.113 6.33656L5.95597 6.22431L5.79894 6.33656C5.7786 6.35109 5.7515 6.33138 5.759 6.30756L5.81725 6.12353L5.66197 6.00884C5.64188 5.99397 5.65222 5.96212 5.67722 5.96191L5.87025 5.96044L5.93131 5.77731C5.93919 5.75359 5.97272 5.75359 5.98063 5.77731Z" fill="#F5F5F5"/>
    <path d="M5.98063 6.73529L6.04169 6.91842L6.23472 6.91989C6.25972 6.92011 6.27006 6.95195 6.24997 6.96683L6.09469 7.08151L6.15294 7.26554C6.1605 7.28936 6.13335 7.30911 6.113 7.29454L5.95597 7.18229L5.79894 7.29454C5.7786 7.30911 5.7515 7.28936 5.759 7.26554L5.81725 7.08151L5.66197 6.96683C5.64188 6.95195 5.65222 6.92011 5.67722 6.91989L5.87025 6.91842L5.93131 6.73529C5.93919 6.71161 5.97272 6.71161 5.98063 6.73529Z" fill="#F5F5F5"/>
    <path d="M6.72379 3.39169L6.78486 3.57482L6.97789 3.57628C7.00289 3.5765 7.01323 3.60838 6.99314 3.62322L6.83786 3.73788L6.89611 3.92191C6.90367 3.94572 6.87651 3.96547 6.85617 3.95091L6.69914 3.83866L6.54211 3.95091C6.52176 3.96547 6.49467 3.94572 6.50217 3.92191L6.56042 3.73788L6.40514 3.62322C6.38504 3.60835 6.39539 3.57647 6.42039 3.57628L6.61342 3.57482L6.67448 3.39169C6.68236 3.36797 6.71586 3.36797 6.72379 3.39169Z" fill="#F5F5F5"/>
    <path d="M6.72379 4.34955L6.78486 4.53268L6.97789 4.53415C7.00289 4.53437 7.01323 4.56621 6.99314 4.58108L6.83786 4.69577L6.89611 4.8798C6.90367 4.90361 6.87651 4.92336 6.85617 4.9088L6.69914 4.79655L6.54211 4.9088C6.52176 4.92333 6.49467 4.90361 6.50217 4.8798L6.56042 4.69577L6.40514 4.58108C6.38504 4.56621 6.39539 4.53437 6.42039 4.53415L6.61342 4.53268L6.67448 4.34955C6.68236 4.32587 6.71586 4.32587 6.72379 4.34955Z" fill="#F5F5F5"/>
    <path d="M6.72379 5.30758L6.78486 5.49071L6.97789 5.49218C7.00289 5.4924 7.01323 5.52424 6.99314 5.53912L6.83786 5.6538L6.89611 5.83783C6.90367 5.86165 6.87651 5.8814 6.85617 5.86683L6.69914 5.75458L6.54211 5.86683C6.52176 5.88137 6.49467 5.86168 6.50217 5.83783L6.56042 5.6538L6.40514 5.53912C6.38504 5.52424 6.39539 5.4924 6.42039 5.49218L6.61342 5.49071L6.67448 5.30758C6.68236 5.28387 6.71586 5.28387 6.72379 5.30758Z" fill="#F5F5F5"/>
    <path d="M6.72379 6.26559L6.78486 6.44872L6.97789 6.45019C7.00289 6.45041 7.01323 6.48228 6.99314 6.49712L6.83786 6.61181L6.89611 6.79584C6.90367 6.81966 6.87651 6.83941 6.85617 6.82484L6.69914 6.71259L6.54211 6.82484C6.52176 6.83938 6.49467 6.81966 6.50217 6.79584L6.56042 6.61181L6.40514 6.49712C6.38504 6.48231 6.39539 6.45041 6.42039 6.45019L6.61342 6.44872L6.67448 6.26559C6.68236 6.24187 6.71586 6.24187 6.72379 6.26559Z" fill="#F5F5F5"/>
    <path d="M6.72379 7.22358L6.78486 7.4067L6.97789 7.40817C7.00289 7.40839 7.01323 7.44023 6.99314 7.45511L6.83786 7.56979L6.89611 7.75382C6.90367 7.77764 6.87651 7.79739 6.85617 7.78283L6.69914 7.67057L6.54211 7.78283C6.52176 7.79736 6.49467 7.77764 6.50217 7.75382L6.56042 7.56979L6.40514 7.45511C6.38504 7.44023 6.39539 7.40839 6.42039 7.40817L6.61342 7.4067L6.67448 7.22358C6.68236 7.19989 6.71586 7.19989 6.72379 7.22358Z" fill="#F5F5F5"/>
</svg>
