<svg width="16" height="16" viewBox="0 0 16 16" fill="none" xmlns="http://www.w3.org/2000/svg">
    <path fill-rule="evenodd" clip-rule="evenodd" d="M6.41927 6.84368C6.41927 6.84368 11.5424 3.63605 15.7499 7.07736L15.7498 7.0773C15.8221 7.13711 15.8946 7.19855 15.9671 7.26161C15.5936 3.18962 12.1706 0.00012207 8.00112 0.00012207C6.25496 0.00012207 4.64073 0.561174 3.32525 1.51041C3.36344 1.98115 3.74956 5.8212 6.41927 6.84368ZM15.9997 7.89492C15.9987 7.81886 15.997 7.74292 15.9939 7.66736C15.9924 7.62473 15.99 7.58211 15.9875 7.53948L15.9875 7.53935L15.9854 7.50349C15.9806 7.42355 15.9746 7.34386 15.9672 7.26455L15.9555 7.26043L15.8939 7.23805C14.9622 6.89912 11.8835 5.77921 9.64878 7.09649C9.64878 7.09649 9.98308 13.3534 4.51329 15.2031C5.44965 15.6573 6.4877 15.9347 7.58431 15.991L7.6035 15.9917C7.71062 15.997 7.81862 15.9989 7.9268 15.9999C9.41759 15.9986 10.9268 15.5882 12.277 14.7264C14.7025 13.1784 16.0174 10.5592 15.9997 7.89492ZM4.50425 15.1985C1.83785 13.9007 0 11.1657 0 8.00097C0 5.33427 1.30592 2.97382 3.31176 1.52003C2.59709 7.42386 7.91876 9.96562 7.91876 9.96562C7.91876 13.2561 4.92774 14.972 4.50425 15.1985Z" fill="#9BAAD4"/>
    <path fill-rule="evenodd" clip-rule="evenodd" d="M7.91918 9.96572C7.91918 13.2562 4.92816 14.9721 4.50467 15.1986C4.50779 15.2001 4.51073 15.2018 4.51385 15.2033C9.98365 13.3537 9.64934 7.09671 9.64934 7.09671C11.9361 5.74873 15.1066 6.95284 15.9561 7.26064C15.96 7.26202 15.9639 7.26339 15.9678 7.26477C15.9678 7.26371 15.9677 7.26271 15.9676 7.26164C15.8951 7.19858 15.8226 7.13715 15.7503 7.07734C11.5429 3.63602 6.4197 6.84365 6.4197 6.84365C3.75005 5.82117 3.36387 1.98112 3.32568 1.51038C3.32118 1.51363 3.31662 1.51681 3.31212 1.52006C2.59751 7.42395 7.91918 9.96572 7.91918 9.96572Z" fill="#2C2F38"/>
</svg>
