<svg width="16" height="16" viewBox="0 0 16 16" fill="none" xmlns="http://www.w3.org/2000/svg">
    <path d="M7.9997 0C3.58159 0 0 3.58172 0 7.99999C0 12.4183 3.58159 16 7.9997 16C12.4178 16 15.9994 12.4183 15.9994 7.99999C15.9994 3.58172 12.4178 0 7.9997 0ZM7.9997 10.8774C6.41054 10.8774 5.12209 9.58921 5.12209 7.99999C5.12209 6.41078 6.41054 5.12262 7.9997 5.12262C9.58886 5.12262 10.877 6.41078 10.877 7.99999C10.877 9.58921 9.58886 10.8774 7.9997 10.8774Z" fill="#53BCE9"/>
    <path d="M7.99938 10.8773V15.9999C5.79015 15.9999 3.79056 15.1046 2.34277 13.6568L5.96486 10.0345C6.48565 10.5554 7.20462 10.8773 7.99938 10.8773Z" fill="#47C97F"/>
    <path d="M2.3431 2.34351L5.96518 5.96572C5.44439 6.48622 5.12243 7.20588 5.12243 8.00035H0C0 5.79135 0.89531 3.791 2.3431 2.34351Z" fill="#36A6CE"/>
    <path d="M13.6566 2.34319L10.0345 5.96537C9.51376 5.44456 8.79475 5.12259 8 5.12259V0C10.2092 0 12.2088 0.895343 13.6566 2.34319Z" fill="#B42048"/>
    <path d="M10.8779 7.99963H16.0003C16.0003 10.2086 15.105 12.2089 13.6572 13.6564L10.0352 10.0343C10.5559 9.51376 10.8779 8.79407 10.8779 7.99963Z" fill="#E29A4B"/>
    <path d="M10.0345 10.0345L13.6566 13.6568C12.2088 15.1046 10.2092 15.9999 8 15.9999V10.8773C8.79475 10.8773 9.51372 10.5554 10.0345 10.0345Z" fill="#FCB65F"/>
    <path d="M15.9994 8.00031H10.8769C10.8769 7.20588 10.555 6.48619 10.0342 5.96569L13.6563 2.34351C15.1041 3.791 15.9994 5.79135 15.9994 8.00031Z" fill="#E02F5E"/>
    <path d="M5.12243 7.99963C5.12243 8.79407 5.44439 9.51376 5.96518 10.0343L2.3431 13.6564C0.89531 12.2089 0 10.2086 0 7.99963H5.12243Z" fill="#35B568"/>
</svg>
