<svg width="13" height="10" viewBox="0 0 13 10" fill="none" xmlns="http://www.w3.org/2000/svg">
    <path d="M6.1875 0.0625C2.75 0.0625 0 2.83398 0 6.25C0 7.38867 0.300781 8.46289 0.837891 9.36523C0.945312 9.58008 1.18164 9.6875 1.41797 9.6875H10.9355C11.1719 9.6875 11.4082 9.58008 11.5156 9.36523C12.0527 8.46289 12.375 7.38867 12.375 6.25C12.375 2.83398 9.60352 0.0625 6.1875 0.0625ZM10.7422 8.65625H1.61133C1.22461 7.92578 1.03125 7.10938 1.03125 6.25C1.03125 3.41406 3.33008 1.09375 6.1875 1.09375C9.02344 1.09375 11.3438 3.41406 11.3438 6.25C11.3438 7.10938 11.1289 7.92578 10.7422 8.65625ZM7.71289 2.33984C7.43359 2.23242 7.1543 2.38281 7.06836 2.66211L6.08008 5.58398C5.37109 5.62695 4.8125 6.22852 4.8125 6.9375C4.8125 7.19531 4.87695 7.43164 4.98438 7.625H7.36914C7.47656 7.43164 7.5625 7.19531 7.5625 6.9375C7.5625 6.5293 7.36914 6.16406 7.06836 5.90625L8.03516 2.98438C8.12109 2.72656 7.99219 2.42578 7.71289 2.33984Z" fill="#F2C4A0"/>
</svg>
