<svg width="16" height="16" viewBox="0 0 16 16" fill="none" xmlns="http://www.w3.org/2000/svg">
<path d="M14.8017 2.75879H1.19828C0.536469 2.75879 0 3.29526 0 3.95707V12.0433C0 12.7051 0.536469 13.2416 1.19828 13.2416H14.8017C15.4635 13.2416 16 12.7051 16 12.0433V3.95707C16 3.29526 15.4635 2.75879 14.8017 2.75879Z" fill="#ECECEC"/>
<path d="M14.8017 2.75879H1.19828C0.536469 2.75879 0 3.29526 0 3.95707V12.0433C0 12.7051 0.536469 13.2416 1.19828 13.2416H14.8017C15.4635 13.2416 16 12.7051 16 12.0433V3.95707C16 3.29526 15.4635 2.75879 14.8017 2.75879Z" fill="#4A63AD" fill-opacity="0.08"/>
<line x1="0.413604" y1="12.236" x2="15.0803" y2="3.56937" stroke="black" stroke-opacity="0.24"/>
<line y1="-0.5" x2="17.0359" y2="-0.5" transform="matrix(-0.860927 -0.508729 -0.508729 0.860927 15.332 12.6665)" stroke="black" stroke-opacity="0.24"/>
</svg>
