<svg width="16" height="16" viewBox="0 0 16 16" fill="none" xmlns="http://www.w3.org/2000/svg">
    <path d="M8 7.33329H15.3333V0.666626L8 1.33329V7.33329Z" fill="#009ADA"/>
    <path d="M6.66699 7.33325V1.45447L0.666992 1.99992V7.33325H6.66699Z" fill="#009ADA"/>
    <path opacity="0.2" d="M8 1.33329V1.49996L15.3333 0.833293V0.666626L8 1.33329Z" fill="white"/>
    <path opacity="0.1" d="M15.3333 7.16663H8V7.33329H15.3333V7.16663Z" fill="black"/>
    <path opacity="0.2" d="M0.666992 1.99992V2.16659L6.66699 1.62113V1.45447L0.666992 1.99992Z" fill="white"/>
    <path opacity="0.1" d="M6.66699 7.16663H0.666992V7.33329H6.66699V7.16663Z" fill="black"/>
    <path d="M8 8.66663H15.3333V15.3333L8 14.6666V8.66663Z" fill="#009ADA"/>
    <path d="M6.66699 8.66663V14.5454L0.666992 14V8.66663H6.66699Z" fill="#009ADA"/>
    <path opacity="0.1" d="M8 14.6667V14.5L15.3333 15.1667V15.3333L8 14.6667Z" fill="black"/>
    <path opacity="0.2" d="M15.3333 8.66663H8V8.83329H15.3333V8.66663Z" fill="white"/>
    <path opacity="0.1" d="M0.666992 13.9999V13.8333L6.66699 14.3787V14.5454L0.666992 13.9999Z" fill="black"/>
    <path opacity="0.2" d="M6.66699 8.66663H0.666992V8.83329H6.66699V8.66663Z" fill="white"/>
    <path d="M8.00033 1.33329V7.33329H15.3337V0.666626L8.00033 1.33329ZM0.666992 7.33329H6.66699V1.45451L0.666992 1.99996V7.33329ZM8.00033 14.6666L15.3337 15.3333V8.66663H8.00033V14.6666ZM0.666992 14L6.66699 14.5454V8.66663H0.666992V14Z" fill="url(#paint0_linear)"/>
    <defs>
        <linearGradient id="paint0_linear" x1="-0.0660142" y1="3.5719" x2="17.0881" y2="11.571" gradientUnits="userSpaceOnUse">
            <stop stop-color="white" stop-opacity="0.2"/>
            <stop offset="1" stop-color="white" stop-opacity="0"/>
        </linearGradient>
    </defs>
</svg>
