<svg width="13" height="13" viewBox="0 0 13 13" fill="none" xmlns="http://www.w3.org/2000/svg">
<path d="M6.29688 0.328125C2.81836 0.328125 0 3.14648 0 6.625C0 10.1035 2.81836 12.9219 6.29688 12.9219C9.77539 12.9219 12.5938 10.1035 12.5938 6.625C12.5938 3.14648 9.77539 0.328125 6.29688 0.328125ZM10.8418 4.39062H9.14062C8.96289 3.47656 8.68359 2.66406 8.32812 2.00391C9.41992 2.48633 10.3086 3.32422 10.8418 4.39062ZM6.29688 1.54688C6.75391 1.54688 7.51562 2.61328 7.89648 4.39062H4.67188C5.05273 2.61328 5.81445 1.54688 6.29688 1.54688ZM1.21875 6.625C1.21875 6.29492 1.24414 5.93945 1.32031 5.60938H3.27539C3.25 5.96484 3.25 6.29492 3.25 6.625C3.25 6.98047 3.25 7.31055 3.27539 7.64062H1.32031C1.24414 7.33594 1.21875 6.98047 1.21875 6.625ZM1.72656 8.85938H3.42773C3.60547 9.79883 3.88477 10.6113 4.24023 11.2715C3.14844 10.7891 2.25977 9.92578 1.72656 8.85938ZM3.42773 4.39062H1.72656C2.25977 3.32422 3.14844 2.48633 4.24023 2.00391C3.88477 2.66406 3.60547 3.47656 3.42773 4.39062ZM6.29688 11.7031C5.81445 11.7031 5.05273 10.6621 4.67188 8.85938H7.89648C7.51562 10.6621 6.75391 11.7031 6.29688 11.7031ZM8.07422 7.64062H4.49414C4.46875 7.33594 4.46875 6.98047 4.46875 6.625C4.46875 6.26953 4.46875 5.93945 4.49414 5.60938H8.07422C8.09961 5.93945 8.125 6.26953 8.125 6.625C8.125 6.98047 8.09961 7.33594 8.07422 7.64062ZM8.32812 11.2715C8.68359 10.6113 8.96289 9.79883 9.14062 8.85938H10.8418C10.3086 9.92578 9.41992 10.7891 8.32812 11.2715ZM9.29297 7.64062C9.31836 7.31055 9.34375 6.98047 9.34375 6.625C9.34375 6.29492 9.31836 5.96484 9.29297 5.60938H11.2734C11.3242 5.93945 11.375 6.29492 11.375 6.625C11.375 6.98047 11.3242 7.33594 11.2734 7.64062H9.29297Z" fill="white" fill-opacity="0.48"/>
</svg>
