<svg width="11" height="9" viewBox="0 0 11 9" fill="none" xmlns="http://www.w3.org/2000/svg">
    <path d="M9.96875 0.75H1.03125C0.451172 0.75 0 1.22266 0 1.78125V7.96875C0 8.54883 0.451172 9 1.03125 9H9.96875C10.5273 9 11 8.54883 11 7.96875V1.78125C11 1.22266 10.5273 0.75 9.96875 0.75ZM9.96875 1.78125V2.66211C9.47461 3.07031 8.70117 3.67188 7.06836 4.96094C6.70312 5.24023 5.99414 5.92773 5.5 5.90625C4.98438 5.92773 4.27539 5.24023 3.91016 4.96094C2.27734 3.67188 1.50391 3.07031 1.03125 2.66211V1.78125H9.96875ZM1.03125 7.96875V3.99414C1.50391 4.38086 2.21289 4.93945 3.26562 5.77734C3.73828 6.14258 4.57617 6.95898 5.5 6.9375C6.40234 6.95898 7.21875 6.14258 7.71289 5.77734C8.76562 4.93945 9.47461 4.38086 9.96875 3.99414V7.96875H1.03125Z" fill="#B0DDB8"/>
</svg>
