<svg width="13" height="14" viewBox="0 0 13 14" fill="none" xmlns="http://www.w3.org/2000/svg">
<path d="M6.5 0.828125C3.02148 0.828125 0.203125 3.64648 0.203125 7.125C0.203125 10.6035 3.02148 13.4219 6.5 13.4219C9.97852 13.4219 12.7969 10.6035 12.7969 7.125C12.7969 3.64648 9.97852 0.828125 6.5 0.828125ZM9.57227 8.80078C9.69922 8.90234 9.69922 9.10547 9.57227 9.23242L8.58203 10.2227C8.45508 10.3496 8.25195 10.3496 8.15039 10.2227L6.5 8.54688L4.82422 10.2227C4.72266 10.3496 4.51953 10.3496 4.39258 10.2227L3.40234 9.20703C3.27539 9.10547 3.27539 8.90234 3.40234 8.77539L5.07812 7.125L3.40234 5.47461C3.27539 5.37305 3.27539 5.16992 3.40234 5.04297L4.41797 4.05273C4.51953 3.92578 4.72266 3.92578 4.84961 4.05273L6.5 5.70312L8.15039 4.05273C8.25195 3.92578 8.45508 3.92578 8.58203 4.05273L9.57227 5.04297C9.69922 5.16992 9.69922 5.37305 9.57227 5.47461L7.92188 7.125L9.57227 8.80078Z" fill="#F2AEAE"/>
</svg>
