<svg width="20" height="20" viewBox="0 0 20 20" fill="none" xmlns="http://www.w3.org/2000/svg">
    <path d="M12.084 12.5C11.3947 12.5 10.834 13.0607 10.834 13.75V18.75C10.834 19.4393 11.3947 20 12.084 20C12.7733 20 13.334 19.4393 13.334 18.75V13.75C13.334 13.0607 12.7733 12.5 12.084 12.5Z" fill="#82C341"/>
    <path opacity="0.1" d="M12.084 19.7916C11.3947 19.7916 10.834 19.2309 10.834 18.5416V18.75C10.834 19.4392 11.3947 20 12.084 20C12.7733 20 13.334 19.4392 13.334 18.75V18.5416C13.334 19.2309 12.7733 19.7916 12.084 19.7916Z" fill="black"/>
    <path d="M7.91699 12.5C7.2277 12.5 6.66699 13.0607 6.66699 13.75V18.75C6.66699 19.4393 7.2277 20 7.91699 20C8.60628 20 9.16699 19.4393 9.16699 18.75V13.75C9.16699 13.0607 8.60628 12.5 7.91699 12.5Z" fill="#82C341"/>
    <path opacity="0.1" d="M7.91699 19.7916C7.2277 19.7916 6.66699 19.2309 6.66699 18.5416V18.75C6.66699 19.4392 7.2277 20 7.91699 20C8.60628 20 9.16699 19.4392 9.16699 18.75V18.5416C9.16699 19.2309 8.60628 19.7916 7.91699 19.7916Z" fill="black"/>
    <path d="M15 6.66663H5V14.1666C5 15.0871 5.74619 15.8333 6.66667 15.8333H13.3333C14.2538 15.8333 15 15.0871 15 14.1666V6.66663Z" fill="#82C341"/>
    <path d="M17.084 6.66663C16.3947 6.66663 15.834 7.22734 15.834 7.91663V12.9166C15.834 13.6059 16.3947 14.1666 17.084 14.1666C17.7733 14.1666 18.334 13.6059 18.334 12.9166V7.91663C18.334 7.22734 17.7733 6.66663 17.084 6.66663Z" fill="#82C341"/>
    <path d="M7.60545 2.34211C7.46629 2.34211 7.32998 2.27253 7.25104 2.14557L6.31273 0.636784C6.19147 0.441471 6.25129 0.18431 6.4466 0.0626466C6.64273 -0.0582029 6.89907 0.000797647 7.02074 0.196517L7.95905 1.70531C8.08031 1.90062 8.02049 2.15778 7.82518 2.27944C7.75641 2.32176 7.68073 2.34211 7.60545 2.34211Z" fill="#82C341"/>
    <path d="M12.3948 2.34211C12.3196 2.34211 12.2439 2.32176 12.1751 2.27944C11.9798 2.15778 11.92 1.90062 12.0412 1.70531L12.9796 0.196517C13.1012 0.000797684 13.3576 -0.058203 13.5537 0.0626467C13.749 0.18431 13.8088 0.441471 13.6876 0.636784L12.7493 2.14557C12.6703 2.27253 12.534 2.34211 12.3948 2.34211Z" fill="#82C341"/>
    <path d="M10 0.833374C7.23857 0.833374 5 3.07194 5 5.83337H15C15 3.07194 12.7614 0.833374 10 0.833374Z" fill="#82C341"/>
    <path opacity="0.2" d="M15 6.66663H5V6.87496H15V6.66663Z" fill="white"/>
    <path opacity="0.1" d="M13.3333 15.625H6.66667C5.74621 15.625 5 14.8788 5 13.9584V14.1667C5 15.0872 5.74621 15.8334 6.66667 15.8334H13.3333C14.2538 15.8334 15 15.0872 15 14.1667V13.9584C15 14.8788 14.2538 15.625 13.3333 15.625Z" fill="black"/>
    <path opacity="0.2" d="M17.084 6.66663C16.3947 6.66663 15.834 7.22734 15.834 7.91663V8.12496C15.834 7.43567 16.3947 6.87496 17.084 6.87496C17.7733 6.87496 18.334 7.43567 18.334 8.12496V7.91663C18.334 7.22734 17.7733 6.66663 17.084 6.66663Z" fill="white"/>
    <path opacity="0.1" d="M17.084 13.9584C16.3947 13.9584 15.834 13.3977 15.834 12.7084V12.9167C15.834 13.606 16.3947 14.1667 17.084 14.1667C17.7733 14.1667 18.334 13.606 18.334 12.9167V12.7084C18.334 13.3977 17.7733 13.9584 17.084 13.9584Z" fill="black"/>
    <path opacity="0.2" d="M10.0008 1.04171C12.0956 1.04171 13.8885 2.25851 14.6682 4.03652C13.9533 2.14911 12.1387 0.833374 10.0008 0.833374C7.86281 0.833374 6.04691 2.15256 5.33203 4.03997C6.1117 2.26196 7.90589 1.04171 10.0008 1.04171Z" fill="white"/>
    <path d="M7.91667 4.16671C8.14679 4.16671 8.33333 3.98016 8.33333 3.75004C8.33333 3.51992 8.14679 3.33337 7.91667 3.33337C7.68655 3.33337 7.5 3.51992 7.5 3.75004C7.5 3.98016 7.68655 4.16671 7.91667 4.16671Z" fill="white"/>
    <path d="M12.0837 4.16671C12.3138 4.16671 12.5003 3.98016 12.5003 3.75004C12.5003 3.51992 12.3138 3.33337 12.0837 3.33337C11.8535 3.33337 11.667 3.51992 11.667 3.75004C11.667 3.98016 11.8535 4.16671 12.0837 4.16671Z" fill="white"/>
    <path opacity="0.1" d="M5.01053 5.625C5.00763 5.69463 5 5.76299 5 5.83333H15C15 5.76299 14.9924 5.69463 14.9895 5.625H5.01053Z" fill="black"/>
    <path d="M2.91699 6.66663C2.2277 6.66663 1.66699 7.22734 1.66699 7.91663V12.9166C1.66699 13.6059 2.2277 14.1666 2.91699 14.1666C3.60628 14.1666 4.16699 13.6059 4.16699 12.9166V7.91663C4.16699 7.22734 3.60628 6.66663 2.91699 6.66663Z" fill="#82C341"/>
    <path opacity="0.2" d="M2.91699 6.66663C2.2277 6.66663 1.66699 7.22734 1.66699 7.91663V8.12496C1.66699 7.43567 2.2277 6.87496 2.91699 6.87496C3.60628 6.87496 4.16699 7.43567 4.16699 8.12496V7.91663C4.16699 7.22734 3.60628 6.66663 2.91699 6.66663Z" fill="white"/>
    <path opacity="0.1" d="M2.91699 13.9584C2.2277 13.9584 1.66699 13.3977 1.66699 12.7084V12.9167C1.66699 13.606 2.2277 14.1667 2.91699 14.1667C3.60628 14.1667 4.16699 13.606 4.16699 12.9167V12.7084C4.16699 13.3977 3.60628 13.9584 2.91699 13.9584Z" fill="black"/>
    <path d="M5.00033 14.1667C5.00033 15.0871 5.74653 15.8333 6.66699 15.8333V18.75C6.66699 19.4393 7.2277 20 7.91699 20C8.60628 20 9.16699 19.4393 9.16699 18.75V15.8333H10.8337V18.75C10.8337 19.4393 11.3944 20 12.0837 20C12.773 20 13.3337 19.4393 13.3337 18.75V15.8333C14.2541 15.8333 15.0003 15.0871 15.0003 14.1667V6.66665H5.00033V14.1667ZM17.0837 6.66665C16.3944 6.66665 15.8337 7.22736 15.8337 7.91665V12.9167C15.8337 13.6059 16.3944 14.1667 17.0837 14.1667C17.7729 14.1667 18.3337 13.6059 18.3337 12.9167V7.91665C18.3337 7.22736 17.7729 6.66665 17.0837 6.66665ZM12.9587 1.80896L13.6877 0.636784C13.8089 0.441472 13.7491 0.18431 13.5538 0.0626467C13.3577 -0.0582029 13.1013 0.000797709 12.9797 0.196517L12.2488 1.3718C11.5722 1.03016 10.81 0.833317 10.0003 0.833317C9.19064 0.833317 8.42842 1.03016 7.75189 1.3718L7.021 0.196517C6.89933 0.000797709 6.64299 -0.058203 6.44686 0.0626466C6.25155 0.18431 6.19173 0.441471 6.31299 0.636784L7.04195 1.80896C5.80584 2.7193 5.00033 4.18043 5.00033 5.83332H15.0003C15.0003 4.18043 14.1948 2.7193 12.9587 1.80896ZM2.91699 6.66665C2.2277 6.66665 1.66699 7.22736 1.66699 7.91665V12.9167C1.66699 13.6059 2.2277 14.1667 2.91699 14.1667C3.60628 14.1667 4.16699 13.6059 4.16699 12.9167V7.91665C4.16699 7.22736 3.60628 6.66665 2.91699 6.66665Z" fill="url(#paint0_linear)"/>
    <defs>
        <linearGradient id="paint0_linear" x1="2.34648" y1="6.1825" x2="18.1637" y2="13.5582" gradientUnits="userSpaceOnUse">
            <stop stop-color="white" stop-opacity="0.2"/>
            <stop offset="1" stop-color="white" stop-opacity="0"/>
        </linearGradient>
    </defs>
</svg>
