<svg width="24" height="24" viewBox="0 0 24 24" fill="none" xmlns="http://www.w3.org/2000/svg">
<g clip-path="url(#clip0)">
<path d="M18.0031 12.5C18.0031 10.3485 19.2416 8.4906 21.0419 7.58679C19.4348 6.0816 17.3698 6 17.0029 6C16.0277 6 15.3317 6.26416 14.6592 6.51953C14.0077 6.76709 13.3924 7.00049 12.5021 7.00049C11.6117 7.00049 10.9964 6.76709 10.3449 6.51953C9.6724 6.26416 8.97647 6 8.00118 6C7.3868 6 2 6.19629 2 13.0005C2 18.5645 5.79713 24 8.00118 24C9.35056 24 10.1266 23.6846 10.8118 23.4062C11.347 23.189 11.81 23.001 12.5021 23.001C13.1941 23.001 13.6571 23.189 14.1923 23.4067C14.8775 23.6846 15.6536 24 17.0025 24C18.5466 24 20.7454 21.329 22 17.8182C19.6317 17.2047 18.0031 15.0597 18.0031 12.5Z" fill="#D3D3D7"/>
<path d="M12.0023 6C14.9319 5.4 17.0319 2.98512 17.0026 0C14.073 0.6 11.973 3.01489 12.0023 6Z" fill="#D3D3D7"/>
<path opacity="0.1" d="M8.00118 6.25C8.97647 6.25 9.6724 6.51416 10.3449 6.76953C10.9964 7.01709 11.6117 7.25049 12.5021 7.25049C13.3924 7.25049 14.0077 7.01709 14.6592 6.76953C15.3317 6.51416 16.0277 6.25 17.0029 6.25C17.3566 6.25 19.2847 6.33887 20.8631 7.69244C20.9239 7.659 20.9798 7.61798 21.0419 7.58679C19.4348 6.0816 17.3698 6 17.0029 6C16.0277 6 15.3317 6.26416 14.6592 6.51953C14.0077 6.76709 13.3924 7.00049 12.5021 7.00049C11.6117 7.00049 10.9964 6.76709 10.3449 6.51953C9.6724 6.26416 8.97647 6 8.00118 6C7.3868 6 2 6.19629 2 13.0005C2 13.0464 2.00519 13.0919 2.00568 13.1378C2.06819 6.45044 7.3904 6.25 8.00118 6.25Z" fill="white"/>
<path opacity="0.2" d="M17.0025 23.7499C15.6536 23.7499 14.8775 23.4345 14.1923 23.1567C13.6571 22.9389 13.1941 22.7509 12.5021 22.7509C11.81 22.7509 11.347 22.9389 10.8118 23.1562C10.1266 23.4345 9.35056 23.7499 8.00118 23.7499C5.81532 23.7499 2.06746 18.4033 2.00568 12.8877C2.00531 12.9272 2 12.9604 2 13.0004C2 18.5644 5.79713 23.9999 8.00118 23.9999C9.35056 23.9999 10.1266 23.6845 10.8118 23.4062C11.347 23.1889 11.81 23.0009 12.5021 23.0009C13.1941 23.0009 13.6571 23.1889 14.1923 23.4067C14.8775 23.6845 15.6536 23.9999 17.0025 23.9999C18.5466 23.9999 20.7454 21.3289 22 17.8182C21.9709 17.8107 21.9447 17.7968 21.9158 17.7888C20.6443 21.189 18.5137 23.7499 17.0025 23.7499Z" fill="black"/>
<path opacity="0.2" d="M16.9795 0.442249C16.7731 3.17339 14.7487 5.1762 12.0053 5.74694C12.0025 5.83348 12.0014 5.91248 12.0022 6.00006C14.8443 5.41797 16.9058 3.1225 16.9997 0.260742C16.991 0.307499 16.9943 0.386291 16.9795 0.442249Z" fill="black"/>
<path opacity="0.1" d="M12.0054 5.73423C12.017 5.66903 12.0315 5.48775 12.0458 5.37812C12.0562 5.24039 12.0712 5.10498 12.0906 4.97195C12.456 2.46627 14.3939 0.802763 16.9998 0.260681C17.0026 0.174133 17.0036 0.0875855 17.0027 0C14.1597 0.582214 12.0981 2.87113 12.0054 5.73423Z" fill="white"/>
<path d="M18.0031 12.5C18.0031 10.3485 19.2416 8.4906 21.0419 7.58679C19.4348 6.0816 17.3698 6 17.0029 6C16.0277 6 15.3317 6.26416 14.6592 6.51953C14.0077 6.76709 13.3924 7.00049 12.5021 7.00049C11.6117 7.00049 10.9964 6.76709 10.3449 6.51953C9.6724 6.26416 8.97647 6 8.00118 6C7.3868 6 2 6.19629 2 13.0005C2 18.5645 5.79713 24 8.00118 24C9.35056 24 10.1266 23.6846 10.8118 23.4062C11.347 23.189 11.81 23.001 12.5021 23.001C13.1941 23.001 13.6571 23.189 14.1923 23.4067C14.8775 23.6846 15.6536 24 17.0025 24C18.5466 24 20.7454 21.329 22 17.8182C19.6317 17.2047 18.0031 15.0597 18.0031 12.5ZM17.0026 0C14.073 0.599976 11.973 3.01489 12.0023 6C14.9319 5.39996 17.0319 2.98511 17.0026 0Z" fill="url(#paint0_linear)"/>
</g>
<defs>
<linearGradient id="paint0_linear" x1="3.39997" y1="7.84204" x2="22.5684" y2="16.7804" gradientUnits="userSpaceOnUse">
<stop stop-color="white" stop-opacity="0.2"/>
<stop offset="1" stop-color="white" stop-opacity="0"/>
</linearGradient>
<clipPath id="clip0">
<rect width="24" height="24" fill="white"/>
</clipPath>
</defs>
</svg>
