<svg width="24" height="24" viewBox="0 0 24 24" fill="none" xmlns="http://www.w3.org/2000/svg">
<path d="M22.2026 4.13794H1.79742C0.804703 4.13794 0 4.94264 0 5.93536V18.0647C0 19.0574 0.804703 19.8622 1.79742 19.8622H22.2026C23.1952 19.8622 24 19.0575 24 18.0647V5.93536C24 4.94264 23.1953 4.13794 22.2026 4.13794Z" fill="#73AF00"/>
<path d="M11.7843 6.33764L3.06293 11.6463C2.79804 11.8075 2.79804 12.1919 3.06293 12.3532L11.7843 17.6619C11.9164 17.7424 12.0824 17.7424 12.2146 17.6619L20.936 12.3532C21.2009 12.192 21.2009 11.8076 20.936 11.6463L12.2146 6.33764C12.0825 6.25725 11.9164 6.25725 11.7843 6.33764Z" fill="#FFE15A"/>
<path d="M12 15.3103C13.8282 15.3103 15.3103 13.8282 15.3103 12C15.3103 10.1718 13.8282 8.6897 12 8.6897C10.1718 8.6897 8.6897 10.1718 8.6897 12C8.6897 13.8282 10.1718 15.3103 12 15.3103Z" fill="#41479B"/>
<path d="M9.15946 10.3068C9.00327 10.5683 8.88267 10.8524 8.80298 11.1542C10.6381 11.0161 13.3528 11.5295 15.0806 13.206C15.1933 12.9182 15.2678 12.6115 15.2957 12.291C13.5117 10.7894 11.0451 10.2554 9.15946 10.3068Z" fill="#F5F5F5"/>
<path d="M12.1374 13.1302L12.2255 13.3945L12.5041 13.3966C12.5401 13.3969 12.5551 13.4429 12.5261 13.4644L12.3019 13.6299L12.386 13.8955C12.3969 13.9299 12.3577 13.9583 12.3284 13.9373L12.1017 13.7753L11.8751 13.9373C11.8458 13.9583 11.8066 13.9299 11.8175 13.8955L11.9015 13.6299L11.6774 13.4644C11.6484 13.4429 11.6634 13.3969 11.6994 13.3966L11.978 13.3945L12.0661 13.1302C12.0776 13.0959 12.1259 13.0959 12.1374 13.1302Z" fill="#F5F5F5"/>
<path d="M13.2198 13.8133L13.2578 13.927L13.3777 13.928C13.3932 13.9281 13.3996 13.9479 13.3871 13.9571L13.2907 14.0283L13.3268 14.1427C13.3315 14.1575 13.3147 14.1697 13.302 14.1607L13.2044 14.091L13.1069 14.1607C13.0943 14.1697 13.0774 14.1575 13.0821 14.1427L13.1182 14.0283L13.0217 13.9571C13.0092 13.9479 13.0157 13.9281 13.0312 13.928L13.1511 13.927L13.189 13.8133C13.1941 13.7986 13.2149 13.7986 13.2198 13.8133Z" fill="#F5F5F5"/>
<path d="M11.6693 12.6279L11.7072 12.7416L11.8271 12.7426C11.8426 12.7427 11.8491 12.7625 11.8366 12.7717L11.7401 12.8429L11.7762 12.9573C11.7809 12.9721 11.7641 12.9843 11.7514 12.9753L11.6539 12.9056L11.5563 12.9753C11.5437 12.9843 11.5269 12.9721 11.5315 12.9573L11.5676 12.8429L11.4712 12.7717C11.4587 12.7625 11.4651 12.7427 11.4806 12.7426L11.6006 12.7416L11.6385 12.6279C11.6435 12.6133 11.6643 12.6133 11.6693 12.6279Z" fill="#F5F5F5"/>
<path d="M9.56919 12.49L9.60711 12.6037L9.72702 12.6047C9.74253 12.6048 9.749 12.6246 9.73649 12.6338L9.64002 12.705L9.67616 12.8194C9.6808 12.8342 9.66402 12.8464 9.65132 12.8374L9.55377 12.7676L9.45623 12.8374C9.44362 12.8464 9.42674 12.8342 9.43143 12.8194L9.46757 12.705L9.3711 12.6338C9.35859 12.6246 9.36506 12.6048 9.38057 12.6047L9.50047 12.6037L9.5384 12.49C9.54346 12.4753 9.56427 12.4753 9.56919 12.49Z" fill="#F5F5F5"/>
<path d="M11.3253 13.7742L11.3632 13.8879L11.4831 13.8889C11.4986 13.889 11.5051 13.9088 11.4926 13.918L11.3961 13.9892L11.4322 14.1036C11.4369 14.1184 11.4201 14.1306 11.4075 14.1216L11.3099 14.0519L11.2124 14.1216C11.1997 14.1306 11.1829 14.1184 11.1875 14.1036L11.2237 13.9892L11.1272 13.918C11.1147 13.9088 11.1211 13.889 11.1367 13.8889L11.2566 13.8879L11.2945 13.7742C11.2995 13.7595 11.3204 13.7595 11.3253 13.7742Z" fill="#F5F5F5"/>
<path d="M10.3594 12.4109L10.3905 12.5039L10.4885 12.5046C10.5012 12.5047 10.5065 12.521 10.4963 12.5285L10.4174 12.5867L10.447 12.6802C10.4508 12.6923 10.437 12.7023 10.4267 12.6949L10.3469 12.6379L10.2671 12.6949C10.2568 12.7023 10.243 12.6923 10.2468 12.6802L10.2764 12.5867L10.1975 12.5285C10.1873 12.521 10.1925 12.5047 10.2053 12.5046L10.3034 12.5039L10.3344 12.4109C10.3384 12.3989 10.3554 12.3989 10.3594 12.4109Z" fill="#F5F5F5"/>
<path d="M13.3045 10.4906L13.3433 10.607L13.4659 10.6079C13.4818 10.608 13.4884 10.6283 13.4756 10.6378L13.3769 10.7106L13.4139 10.8276C13.4187 10.8427 13.4015 10.8552 13.3886 10.846L13.2888 10.7747L13.189 10.846C13.176 10.8553 13.1588 10.8427 13.1636 10.8276L13.2006 10.7106L13.102 10.6378C13.0892 10.6284 13.0958 10.6081 13.1116 10.6079L13.2342 10.607L13.2731 10.4906C13.2781 10.4755 13.2995 10.4755 13.3045 10.4906Z" fill="#F5F5F5"/>
<path d="M9.70417 11.8418L9.7352 11.9348L9.83326 11.9356C9.84592 11.9357 9.85122 11.9519 9.84104 11.9595L9.76215 12.0177L9.79173 12.1111C9.79558 12.1232 9.78179 12.1333 9.77143 12.1259L9.69165 12.0689L9.61187 12.1259C9.60151 12.1333 9.58778 12.1232 9.59157 12.1111L9.62115 12.0177L9.54226 11.9595C9.53204 11.9519 9.53729 11.9357 9.55004 11.9356L9.6481 11.9348L9.67914 11.8418C9.68312 11.8298 9.70014 11.8298 9.70417 11.8418Z" fill="#F5F5F5"/>
<path d="M10.177 13.1526L10.224 13.2935L10.3725 13.2946C10.3917 13.2947 10.3997 13.3193 10.3842 13.3307L10.2647 13.4189L10.3095 13.5605C10.3153 13.5788 10.2945 13.594 10.2788 13.5828L10.158 13.4964L10.0371 13.5828C10.0215 13.5939 10.0006 13.5788 10.0064 13.5605L10.0512 13.4189L9.93175 13.3307C9.91628 13.3193 9.92425 13.2947 9.94347 13.2946L10.092 13.2935L10.1389 13.1526C10.1452 13.1343 10.1709 13.1343 10.177 13.1526Z" fill="#F5F5F5"/>
<path d="M13.8234 13.8433L13.853 13.932L13.9464 13.9327C13.9585 13.9328 13.9635 13.9482 13.9538 13.9554L13.8787 14.0109L13.9069 14.0999C13.9105 14.1115 13.8974 14.121 13.8875 14.1139L13.8115 14.0596L13.7355 14.1139C13.7257 14.121 13.7125 14.1115 13.7161 14.0999L13.7443 14.0109L13.6692 13.9554C13.6595 13.9482 13.6645 13.9328 13.6766 13.9327L13.77 13.932L13.7995 13.8433C13.8034 13.8318 13.8196 13.8318 13.8234 13.8433Z" fill="#F5F5F5"/>
<path d="M14.1504 13.1668L14.1884 13.2806L14.3083 13.2815C14.3238 13.2816 14.3302 13.3014 14.3177 13.3107L14.2213 13.3819L14.2574 13.4962C14.262 13.511 14.2453 13.5232 14.2326 13.5142L14.1351 13.4445L14.0375 13.5142C14.0249 13.5232 14.008 13.511 14.0127 13.4962L14.0488 13.3819L13.9524 13.3107C13.9399 13.3015 13.9463 13.2816 13.9618 13.2815L14.0818 13.2806L14.1197 13.1668C14.1246 13.1521 14.1455 13.1521 14.1504 13.1668Z" fill="#F5F5F5"/>
</svg>
