<svg width="24" height="24" viewBox="0 0 24 24" fill="none" xmlns="http://www.w3.org/2000/svg">
<path d="M18.6209 4.13818H5.37964V19.8624H18.6209V4.13818Z" fill="#F5F5F5"/>
<path d="M1.79742 4.13794C0.804703 4.13794 0 4.94264 0 5.93536V18.0647C0 19.0574 0.804703 19.8621 1.79742 19.8621H5.37933V4.13794H1.79742Z" fill="#FF4B55"/>
<path d="M22.2022 4.13794H18.6204V19.8621H22.2022C23.1949 19.8621 23.9997 19.0574 23.9997 18.0646V5.93536C23.9997 4.94264 23.195 4.13794 22.2022 4.13794Z" fill="#FF4B55"/>
<path d="M14.5108 13.8167L16.9663 12.4136L16.4028 12.1319C16.2448 12.0529 16.1544 11.8822 16.1778 11.7071L16.3611 10.3326L15.3215 10.635C15.0919 10.7019 14.8536 10.5606 14.8019 10.3271L14.7024 9.87712L13.7263 11.0195C13.591 11.1778 13.3332 11.0569 13.3685 10.8516L13.7854 8.42779L13.1471 8.6023C12.9607 8.6533 12.7639 8.56846 12.673 8.39793L12.0009 7.13835V7.13647L12.0004 7.13741L11.9999 7.13647V7.13835L11.3279 8.39793C11.2369 8.56841 11.04 8.65326 10.8536 8.6023L10.2154 8.42779L10.6323 10.8516C10.6676 11.0568 10.4097 11.1778 10.2744 11.0195L9.29834 9.87716L9.19878 10.3272C9.14712 10.5607 8.90881 10.7019 8.67917 10.6351L7.63963 10.3326L7.82295 11.7071C7.84634 11.8822 7.75588 12.0529 7.59786 12.1319L7.03442 12.4136L9.48987 13.8167C9.74422 13.9621 9.85569 14.2703 9.75308 14.5447L9.54317 15.1061L11.6472 14.9265C11.7636 14.9166 11.8627 15.0103 11.8593 15.1271L11.793 17.3791H12.2068L12.1404 15.127C12.137 15.0102 12.2361 14.9165 12.3525 14.9264L14.4575 15.1061L14.2476 14.5447C14.1451 14.2703 14.2565 13.962 14.5108 13.8167Z" fill="#FF4B55"/>
</svg>
