<svg width="24" height="24" viewBox="0 0 24 24" fill="none" xmlns="http://www.w3.org/2000/svg">
<path d="M22.2026 4.13794H1.79742C0.804703 4.13794 0 4.94264 0 5.93536V18.0647C0 19.0574 0.804703 19.8622 1.79742 19.8622H22.2026C23.1952 19.8622 24 19.0575 24 18.0647V5.93536C24 4.94264 23.1953 4.13794 22.2026 4.13794Z" fill="#FF4B55"/>
<path d="M3.98457 6.59654L4.37907 7.77939L5.62595 7.78904C5.78738 7.79026 5.85432 7.99632 5.72443 8.09218L4.7214 8.83285L5.09748 10.0217C5.14613 10.1756 4.97091 10.3029 4.83957 10.2091L3.8252 9.48394L2.81082 10.209C2.67948 10.3029 2.50426 10.1755 2.55291 10.0216L2.92899 8.83281L1.92596 8.09218C1.79607 7.99628 1.86301 7.79026 2.02445 7.78904L3.27132 7.77939L3.66582 6.59654C3.71691 6.4434 3.93352 6.4434 3.98457 6.59654Z" fill="#FFE15A"/>
<path d="M8.51261 6.88829L8.7955 7.27397L9.25202 7.13119C9.31113 7.11272 9.35974 7.18013 9.32355 7.23033L9.04408 7.6185L9.32092 8.00855C9.35678 8.05903 9.3077 8.12611 9.24874 8.10722L8.79316 7.96139L8.50774 8.34525C8.4708 8.39494 8.39182 8.36897 8.39158 8.3071L8.38947 7.82874L7.93619 7.67588C7.8775 7.65605 7.87779 7.57299 7.93661 7.55358L8.39083 7.40377L8.39618 6.92546C8.39683 6.86372 8.476 6.83836 8.51261 6.88829Z" fill="#FFE15A"/>
<path d="M6.79036 5.73822L7.26586 5.78988L7.46873 5.35671C7.49503 5.30064 7.57758 5.31025 7.59019 5.37086L7.68797 5.83905L8.16262 5.89811C8.22408 5.90575 8.24044 5.98722 8.18667 6.01802L7.77159 6.25567L7.86211 6.72536C7.87383 6.7862 7.80141 6.82689 7.75551 6.78531L7.40119 6.46399L6.9825 6.69517C6.92831 6.72513 6.86714 6.66878 6.89255 6.6123L7.08862 6.17599L6.73931 5.84917C6.69417 5.80708 6.72881 5.73156 6.79036 5.73822Z" fill="#FFE15A"/>
<path d="M7.54158 10.3739L7.25874 10.7597L6.80222 10.6169C6.74311 10.5984 6.6945 10.6658 6.73069 10.716L7.01016 11.1042L6.73332 11.4943C6.69746 11.5447 6.74654 11.6118 6.8055 11.5929L7.26103 11.4471L7.54646 11.831C7.58339 11.8807 7.66238 11.8547 7.66261 11.7928L7.66472 11.3144L8.118 11.1616C8.17669 11.1418 8.17641 11.0587 8.11758 11.0393L7.66336 10.8895L7.65802 10.4112C7.65727 10.3493 7.57819 10.3239 7.54158 10.3739Z" fill="#FFE15A"/>
<path d="M9.26362 9.29315L8.78807 9.34481L8.5852 8.91164C8.5589 8.85557 8.4764 8.86518 8.46374 8.92579L8.36591 9.39398L7.89126 9.45304C7.82981 9.46068 7.81345 9.54215 7.86721 9.57295L8.28229 9.81061L8.19177 10.2803C8.18006 10.3411 8.25248 10.3818 8.29837 10.3402L8.6527 10.0189L9.07138 10.2501C9.12557 10.2801 9.18674 10.2237 9.16133 10.1672L8.96526 9.73092L9.31457 9.40411C9.3599 9.36201 9.32526 9.2865 9.26362 9.29315Z" fill="#FFE15A"/>
</svg>
