<svg width="16" height="16" viewBox="0 0 16 16" fill="none" xmlns="http://www.w3.org/2000/svg">
<path d="M10.8945 10.3848C10.8438 10.4355 10.8438 10.4863 10.8438 10.5371V13.4062H1.90625V4.46875H8.02539C8.07617 4.46875 8.12695 4.46875 8.17773 4.41797L8.99023 3.60547C9.11719 3.47852 9.01562 3.25 8.83789 3.25H1.90625C1.2207 3.25 0.6875 3.80859 0.6875 4.46875V13.4062C0.6875 14.0918 1.2207 14.625 1.90625 14.625H10.8438C11.5039 14.625 12.0625 14.0918 12.0625 13.4062V9.72461C12.0625 9.54688 11.834 9.44531 11.707 9.57227L10.8945 10.3848ZM14.8555 5.28125C15.4395 4.69727 15.4395 3.75781 14.8555 3.17383L13.7637 2.08203C13.1797 1.49805 12.2402 1.49805 11.6562 2.08203L5.00391 8.73438L4.75 11.0449C4.67383 11.7051 5.23242 12.2637 5.89258 12.1875L8.20312 11.9336L14.8555 5.28125ZM12.3672 6.04297L7.64453 10.7656L5.96875 10.9688L6.17188 9.29297L10.8945 4.57031L12.3672 6.04297ZM13.9922 4.03711C14.1191 4.13867 14.1191 4.29102 14.0176 4.41797L13.2305 5.20508L11.7578 3.70703L12.5195 2.94531C12.6211 2.81836 12.7988 2.81836 12.9004 2.94531L13.9922 4.03711Z" fill="#B4BFDF"/>
</svg>
