<svg width="24" height="24" viewBox="0 0 24 24" fill="none" xmlns="http://www.w3.org/2000/svg">
<path d="M12 24C18.6274 24 24 18.6274 24 12C24 5.37258 18.6274 0 12 0C5.37258 0 0 5.37258 0 12C0 18.6274 5.37258 24 12 24Z" fill="url(#paint0_radial)"/>
<path d="M12.0001 23.7291C18.5527 23.7291 23.8646 18.4172 23.8646 11.8646C23.8646 5.31195 18.5527 0 12.0001 0C5.44744 0 0.135498 5.31195 0.135498 11.8646C0.135498 18.4172 5.44744 23.7291 12.0001 23.7291Z" fill="url(#paint1_linear)"/>
<path opacity="0.1" d="M20.6664 6.88306L20.1841 6.79852L20.5561 6.20673C20.5547 6.20367 19.7964 6.68567 19.7951 6.68268C19.663 6.38971 19.3164 6.51752 19.0874 6.36853C19.1567 6.25995 19.1844 6.14648 19.2285 6.06134C19.2955 5.93195 19.5303 5.72156 19.4905 5.60333L19.5405 5.30695L19.6231 5.12708L19.1173 5.09131L18.8378 5.03296L18.5006 4.89941L18.449 5.50061L18.3193 5.63C18.3166 5.62799 18.3132 5.62482 18.3106 5.62286C18.0173 5.40515 17.8898 4.84918 17.53 4.97784C17.1702 5.10651 17.0316 4.77869 16.5734 4.98688C16.1152 5.19501 16.2178 5.05786 16.0374 5.27429C15.8568 5.49066 15.9073 5.83801 15.8788 6.05719C15.8533 6.25275 15.7105 6.53394 15.7407 6.74951C15.712 6.74237 15.6849 6.73816 15.6545 6.72668C15.4313 6.64197 15.5397 6.42322 15.2928 6.33423C15.1411 6.27948 15.1449 6.5224 15.2004 6.78302C15.193 6.78967 15.056 6.91144 14.8264 6.94531C14.5902 6.9801 14.5783 6.73627 14.3193 6.77875C14.0604 6.82117 14.5434 7.35162 14.7952 7.534C15.047 7.71631 15.1127 8.17712 15.4592 8.07355C15.6079 8.02905 15.7109 8.05408 15.8151 8.08356C16.0081 8.19794 16.0502 8.39673 16.4345 8.45361C16.629 8.48242 16.7159 8.50647 16.7708 8.52112L16.7866 8.54327L17.0146 9.02069L17.2701 8.33783C17.3002 8.30701 17.3206 8.27924 17.3473 8.24683C17.4517 8.67645 17.5867 9.22864 17.5834 9.229C17.0415 9.2832 17.0599 9.90894 16.6972 10.1964C16.5601 10.0265 16.3928 9.9209 16.2798 9.80414C16.1081 9.62671 15.8967 9.13617 15.6854 9.13617L15.2362 8.89612L14.9918 8.6665L14.6616 9.45972L14.4172 9.8772L14.0209 10.3469L14.9588 10.7539L15.0967 11.032C15.092 11.0353 15.0851 11.039 15.0806 11.0422C14.5727 11.3959 13.6108 11.301 13.6235 11.9483C13.6362 12.5957 13.0349 12.6417 13.1222 13.4899C13.2095 14.3381 13.0446 14.0994 13.2949 14.506C13.5452 14.9126 14.1303 15.0189 14.467 15.1828C14.7675 15.3291 15.1422 15.7102 15.5047 15.778C15.4777 15.8201 15.4564 15.8615 15.4215 15.9041C15.1652 16.2169 14.8722 15.9249 14.5961 16.2735C14.4263 16.4876 14.8186 16.6125 15.2672 16.6639C15.2739 16.6794 15.3957 16.965 15.3262 17.3523C15.2548 17.7504 14.8567 17.6381 14.7853 18.077C14.7138 18.5159 15.8264 18.0259 16.2551 17.7197C16.6837 17.4135 17.4594 17.5564 17.4799 16.944C17.4886 16.6812 17.5843 16.5292 17.6878 16.3776C17.9757 16.1293 18.3177 16.1688 18.6162 15.5823C18.7674 15.2852 18.8529 15.1586 18.906 15.0785L18.9501 15.0649L19.84 14.9562L18.8808 14.1775C18.775 13.9713 18.6328 13.7879 18.5491 13.6282C18.4665 13.4706 18.4105 13.2243 18.33 13.0062C18.454 12.9807 18.5731 12.9066 18.6855 12.7148C19.0021 12.1743 19.2841 12.3196 19.6684 11.5898C20.0527 10.8601 20.005 11.1083 20.0994 10.6949C20.1939 10.2816 19.9946 10.0151 19.931 9.77643C19.8675 9.53784 19.9219 9.00647 19.7373 8.9035L19.4619 8.4751L19.4907 8.34882C19.7028 8.30804 19.8171 8.17328 19.9296 8.09894C20.0512 8.01855 20.3587 7.94922 20.3817 7.8266L20.5696 7.5921L20.7806 7.57098L20.7877 7.24438L20.8959 6.94867L20.6664 6.88306ZM17.4942 8.07373C17.5006 8.06665 17.5089 8.0556 17.5151 8.04907C17.5878 7.97327 17.7151 7.89569 17.822 7.80969C17.8596 7.87433 17.9233 7.927 18.0518 7.95386C18.1701 7.97858 18.244 8.0163 18.3102 8.05682L17.9793 8.6665L17.4942 8.07373Z" fill="black"/>
<path d="M24 11.979C24 18.6051 18.6261 23.9999 12 23.9999C5.37394 23.9999 0 18.6051 0 11.979C0 9.85028 0.563455 7.84682 1.53388 6.11467C0.918266 5.23812 0.699113 3.50598 2.08696 2.06597C2.08696 2.61898 2.42088 3.56858 2.79651 4.27814C3.0991 4.8416 3.42296 5.24995 3.65217 5.19641C4.17466 5.07435 6 5.07119 6.26087 5.19641C6.68867 4.64333 7.73215 3.10945 9.3913 3.10945C8.46259 4.03816 5.80174 7.28336 10.4348 7.28336C10.9565 7.28336 11.4783 7.28336 11.4783 7.28336L8.34783 9.37032C8.34783 9.37032 8.70264 10.059 8.34783 10.4138C7.9513 10.0173 6.26087 10.8416 6.26087 11.979C6.26087 13.1164 7.47128 14.5877 9.91304 14.5877C12.3548 14.5877 11.7391 13.5442 13.0435 13.5442C14.3478 13.5442 14.6087 14.5877 14.6087 14.5877C12.8139 14.5877 11.5096 16.6747 9.3913 16.6747C10.4348 17.4468 11.1235 17.7181 12.5217 17.7181C15.9756 17.7181 18.7826 14.9112 18.7826 11.4573C18.7826 10.059 18.3235 8.77553 17.5513 7.73205C18.9495 8.77553 19.8887 10.3825 20.0556 12.2085C20.2435 11.4781 20.3478 10.6955 20.3478 9.89206C20.3478 6.76162 19.0956 2.56682 16.7896 0.980713C21.0365 2.82769 24 7.05376 24 11.979Z" fill="url(#paint2_radial)"/>
<path opacity="0.1" d="M6.26099 11.9792C6.26099 10.8418 7.95142 10.0175 8.34796 10.414C8.63855 10.1234 8.45496 9.61469 8.3783 9.43799C8.35815 9.54572 8.31598 9.64886 8.23187 9.73297C7.82275 9.32385 6.07861 10.1743 6.07861 11.3479C6.07861 11.6219 6.15344 11.9145 6.28986 12.2023C6.28009 12.1278 6.26099 12.0516 6.26099 11.9792Z" fill="black"/>
<path d="M20.3478 9.89203C20.3478 10.3301 20.2548 11.5755 20.0588 12.2077C20.0796 12.3422 20.1052 12.4752 20.1177 12.6123C20.3116 11.8586 20.613 10.0234 20.613 9.1944C20.613 6.92816 19.9747 4.12457 18.7733 2.08612C18.1505 1.65991 17.4896 1.28516 16.7896 0.980713C19.0956 2.56677 20.3478 6.7616 20.3478 9.89203Z" fill="url(#paint3_linear)"/>
<path d="M17.5513 7.73218C18.3234 8.77563 18.7825 10.0591 18.7825 11.4574C18.7825 12.0745 18.6895 12.6696 18.5225 13.2331C18.8268 12.4839 18.9981 11.6669 18.9981 10.8094C18.9981 10.1181 18.8834 9.45642 18.6824 8.83368C18.3514 8.42279 17.9756 8.04889 17.5513 7.73218Z" fill="url(#paint4_linear)"/>
<path opacity="0.1" d="M14.6087 14.588C14.6087 14.588 14.5443 14.3417 14.3321 14.0889C12.6613 14.3392 10.8178 16.2578 8.77808 16.2578C8.99701 16.4199 9.19916 16.5553 9.39703 16.6766C11.2206 16.7619 12.9724 14.588 14.6087 14.588Z" fill="black"/>
<path opacity="0.1" d="M2.20233 2.75403C2.13599 2.49774 2.08704 2.25519 2.08704 2.06616C2.04907 2.10559 2.0246 2.14709 1.98901 2.18695C2.05048 2.37445 2.12384 2.56555 2.20233 2.75403Z" fill="black"/>
<path opacity="0.1" d="M1.17719 5.34717C1.1861 5.33105 1.19226 5.31317 1.20129 5.29712C1.17969 5.2663 1.16296 5.22687 1.14233 5.19409C1.1543 5.24518 1.16284 5.29791 1.17719 5.34717Z" fill="black"/>
<path opacity="0.1" d="M11.9999 23.729C8.16495 23.729 4.69855 21.9761 2.42725 19.2373C4.62 22.1097 8.10831 23.9999 11.9999 23.9999C15.8915 23.9999 19.3542 22.1458 21.547 19.2734C19.2757 22.0122 15.8349 23.729 11.9999 23.729Z" fill="black"/>
<path opacity="0.1" d="M10.3002 7.2771L8.23169 8.65613C8.23169 8.65613 8.40839 9.00726 8.38855 9.3432L11.4782 7.28339C11.4782 7.28339 10.9565 7.28339 10.4347 7.28339C10.3851 7.28339 10.3481 7.27783 10.3002 7.2771Z" fill="black"/>
<path opacity="0.1" d="M7.81894 6.18372C7.66138 4.96477 8.90575 3.59528 9.3914 3.10962C9.0175 3.10962 8.67937 3.19513 8.36803 3.32214C7.83501 4.08844 7.42319 5.52802 7.81894 6.18372Z" fill="black"/>
<path d="M16.7896 0.980835C16.829 1.00793 16.8657 1.04163 16.9044 1.07025C15.4081 0.389221 13.7512 0 12 0C8.30579 0 5.00677 1.68909 2.83075 4.3363C2.8194 4.31573 2.8078 4.29932 2.79651 4.27826C2.4209 3.56866 2.08698 2.61908 2.08698 2.0661C0.699097 3.5061 0.918274 5.23822 1.53387 6.11475C0.563477 7.84692 0 9.8504 0 11.9791C0 18.6052 5.37396 24 12 24C18.626 24 24 18.6052 24 11.9791C24 7.05389 21.0365 2.82782 16.7896 0.980835Z" fill="url(#paint5_linear)"/>
<defs>
<radialGradient id="paint0_radial" cx="0" cy="0" r="1" gradientUnits="userSpaceOnUse" gradientTransform="translate(6.4375 -0.562501) scale(21.0836)">
<stop stop-color="#15BEF0"/>
<stop offset="0.268032" stop-color="#0D91CE"/>
<stop offset="0.530391" stop-color="#066DB1"/>
<stop offset="0.742498" stop-color="#0257A0"/>
<stop offset="0.877771" stop-color="#004E9A"/>
</radialGradient>
<linearGradient id="paint1_linear" x1="12.0001" y1="0" x2="12.0001" y2="23.7291" gradientUnits="userSpaceOnUse">
<stop stop-opacity="0"/>
<stop offset="1" stop-opacity="0.4"/>
</linearGradient>
<radialGradient id="paint2_radial" cx="0" cy="0" r="1" gradientUnits="userSpaceOnUse" gradientTransform="translate(17.625 5.44143) rotate(141.761) scale(16.6495 17.0195)">
<stop stop-color="#FFF203"/>
<stop offset="0.298428" stop-color="#FBC40D"/>
<stop offset="0.776505" stop-color="#F47E1C"/>
<stop offset="1" stop-color="#F26322"/>
</radialGradient>
<linearGradient id="paint3_linear" x1="14.86" y1="5.11868" x2="22.0489" y2="8.47091" gradientUnits="userSpaceOnUse">
<stop stop-color="white" stop-opacity="0.5"/>
<stop offset="1" stop-color="white" stop-opacity="0.2"/>
</linearGradient>
<linearGradient id="paint4_linear" x1="16.5845" y1="9.80538" x2="19.4893" y2="11.1599" gradientUnits="userSpaceOnUse">
<stop stop-color="white" stop-opacity="0.5"/>
<stop offset="1" stop-color="white" stop-opacity="0.2"/>
</linearGradient>
<linearGradient id="paint5_linear" x1="-0.14026" y1="6.33005" x2="22.8747" y2="17.0621" gradientUnits="userSpaceOnUse">
<stop stop-color="white" stop-opacity="0.2"/>
<stop offset="1" stop-color="white" stop-opacity="0"/>
</linearGradient>
</defs>
</svg>
