<svg width="24" height="24" viewBox="0 0 24 24" fill="none" xmlns="http://www.w3.org/2000/svg">
<path d="M22.2026 4.13794H1.79742C0.804703 4.13794 0 4.94264 0 5.93536V18.0647C0 19.0574 0.804703 19.8622 1.79742 19.8622H22.2026C23.1952 19.8622 24 19.0575 24 18.0647V5.93536C24 4.94264 23.1953 4.13794 22.2026 4.13794Z" fill="#41479B"/>
<path d="M24 7.03442H0V16.9654H24V7.03442Z" fill="#F5F5F5"/>
<path d="M14.1498 12L15.2248 10.1381H13.0749L11.9997 8.27588L10.9246 10.1381H8.77466L9.84964 12L8.77466 13.8619H10.9246L11.9997 15.7242L13.0748 13.862H15.2248L14.1498 12ZM14.1701 10.7471L13.7983 11.3911L13.4264 10.7471H14.1701ZM13.4467 12L12.7233 13.253H11.2761L10.5527 12L11.2761 10.747H12.7233L13.4467 12ZM11.9997 9.49379L12.3717 10.1381H11.6277L11.9997 9.49379ZM9.8293 10.7471H10.573L10.2011 11.3911L9.8293 10.7471ZM9.8293 13.253L10.2012 12.6089L10.573 13.253H9.8293ZM11.9997 14.5063L11.6277 13.8619H12.3717L11.9997 14.5063ZM13.7983 12.609L14.1701 13.253H13.4264L13.7983 12.609Z" fill="#41479B"/>
</svg>
