<svg width="24" height="24" viewBox="0 0 24 24" fill="none" xmlns="http://www.w3.org/2000/svg">
<path d="M19.6812 18.0337C19.8994 17.5654 20 16.9092 20 16C20 12.7534 18.5044 10.8804 17.3027 9.375C16.5752 8.46338 16 7.74316 16 7L16.001 6.76709C16.0088 5.38672 16.0249 2.51367 14.499 0.979004C13.853 0.32959 13.0122 0 12 0C9.89941 0 8.5 1.02051 8.5 6C8.5 7.37061 7.92334 8.49316 7.31299 9.68164C7.04541 10.2026 6.76855 10.7417 6.53662 11.3115C6.07471 12.4473 5 15.2271 5 16.5C5 16.5811 5.01953 16.6606 5.05713 16.7324L8.59619 23.481C8.67236 23.626 8.81738 23.7207 8.97998 23.7412C9 23.7437 9.02002 23.7451 9.04004 23.7451C9.18213 23.7451 9.32129 23.6826 9.41699 23.5757C9.63916 23.3281 11.1118 23 12 23H15.3921C15.5225 23 15.6475 22.9492 15.7407 22.8584L19.8486 18.8584C20.0469 18.6655 20.0508 18.3491 19.8584 18.1514C19.8066 18.0981 19.7461 18.0591 19.6812 18.0337Z" fill="#1A1A1A"/>
<path opacity="0.2" d="M7.31299 9.93164C7.92334 8.74316 8.5 7.62061 8.5 6.25C8.5 1.27051 9.89941 0.25 12 0.25C13.0122 0.25 13.853 0.57959 14.499 1.229C15.8328 2.57037 15.9883 4.9339 16.0012 6.42981C16.002 4.96265 15.9144 2.40253 14.499 0.979004C13.853 0.32959 13.0122 0 12 0C9.89941 0 8.5 1.02051 8.5 6C8.5 7.37061 7.92334 8.49316 7.31299 9.68164C7.04541 10.2026 6.76855 10.7417 6.53662 11.3115C6.07471 12.4473 5 15.2271 5 16.5C5 16.5228 5.013 16.5428 5.01605 16.5652C5.10077 15.2291 6.09442 12.6489 6.53662 11.5615C6.76855 10.9917 7.04541 10.4526 7.31299 9.93164Z" fill="white"/>
<path d="M19.8584 18.4013C19.9204 18.4651 19.9545 18.5424 19.9758 18.6227C20.0175 18.4595 19.9843 18.2808 19.8584 18.1513C19.8281 18.1202 19.7902 18.104 19.7548 18.0825C19.7304 18.1498 19.7095 18.2228 19.6812 18.2836C19.7461 18.309 19.8066 18.3481 19.8584 18.4013Z" fill="#0099D8"/>
<path opacity="0.2" d="M16 7.25C16 7.99316 16.5752 8.71338 17.3027 9.625C18.4932 11.1164 19.9677 12.9729 19.9951 16.1643C19.9959 16.1076 20 16.0588 20 16C20 12.7534 18.5044 10.8804 17.3027 9.375C16.577 8.46558 16.0038 7.74658 16.001 7.00537C16.001 7.00885 16.001 7.01361 16.001 7.01709L16 7.25Z" fill="white"/>
<path d="M16 6.99988C16 7.00171 16.001 7.00342 16.001 7.00525C16.002 6.83392 16.0029 6.64093 16.0012 6.42969C16.0011 6.54425 16.0015 6.66699 16.001 6.76697L16 6.99988Z" fill="#0099D8"/>
<path d="M16.1294 16.8117C16.1174 14.3771 15.7866 11.6384 13.8627 7.70581C12.9107 8.34955 11.1629 8.85875 10.9529 8.85875C10.5744 8.85875 9.74792 8.58855 9.14069 8.05248C8.89105 8.78893 8.54547 9.47081 8.20264 10.1386C7.94482 10.6401 7.67822 11.1591 7.46338 11.6884C6.85901 13.1733 6.16882 15.128 6.02954 16.1669C6.45251 16.4487 6.7475 17.0587 7.07324 17.7402C7.41064 18.4462 7.79297 19.2465 8.28564 19.5898C9.18719 20.2175 9.6546 21.1128 9.7771 21.9263C10.1202 21.9604 10.5526 21.9902 11.0439 21.9902C12.2639 21.9902 13.9177 21.7424 15.1412 20.9999C15.2098 19.6772 15.4422 17.5555 16.1294 16.8117Z" fill="white"/>
<path d="M19.9951 16.1643C19.9828 16.9843 19.8853 17.5957 19.6812 18.0337C19.7081 18.0443 19.7297 18.0673 19.7548 18.0826C19.9184 17.6317 20 17.0412 20 16.25C20 16.2199 19.9953 16.1942 19.9951 16.1643Z" fill="#0099D8"/>
<path opacity="0.1" d="M9.7772 21.9264C10.1203 21.9605 10.5527 21.9902 11.044 21.9902C12.264 21.9902 13.9178 21.7425 15.1413 21V20.75C13.9178 21.4925 12.264 21.7402 11.044 21.7402C10.5527 21.7402 10.0447 21.706 9.70166 21.6719" fill="black"/>
<path opacity="0.3" d="M15.7439 22.6083C15.6506 22.6992 15.5256 22.7499 15.3953 22.7499H12.0032C11.115 22.7499 9.64233 23.0781 9.42017 23.3256C9.32446 23.4326 9.1853 23.4951 9.04321 23.4951C9.02319 23.4951 9.00317 23.4936 8.98315 23.4911C8.82056 23.4706 8.67554 23.3759 8.59937 23.2309L5.0603 16.4824C5.03326 16.4307 5.02704 16.3725 5.01923 16.3152C5.01544 16.3747 5.00317 16.4457 5.00317 16.4999C5.00317 16.581 5.02271 16.6606 5.0603 16.7324L8.59937 23.4809C8.67554 23.6259 8.82056 23.7206 8.98315 23.7411C9.00317 23.7436 9.02319 23.7451 9.04321 23.7451C9.1853 23.7451 9.32446 23.6826 9.42017 23.5756C9.64233 23.3281 11.115 22.9999 12.0032 22.9999H15.3953C15.5256 22.9999 15.6506 22.9492 15.7439 22.8583L19.8518 18.8583C19.9861 18.7277 20.0237 18.5414 19.979 18.3727C19.957 18.4588 19.9203 18.5417 19.8518 18.6083L15.7439 22.6083Z" fill="black"/>
<path d="M20.9263 19.0742C20.7193 18.9385 20.505 18.7979 20.3536 18.6465C20.2652 18.5581 20.3057 18.1494 20.3272 17.9297C20.3687 17.5078 20.4117 17.0723 20.128 16.7593C20.0211 16.6411 19.8248 16.5 19.5001 16.5C19.2325 16.5 19.0372 16.7119 19.0255 16.979C19.0252 16.9863 19.0281 16.9928 19.0281 17H17.0001C17.0001 16.7236 16.7764 16.5 16.5001 16.5C15.0172 16.5 15.0001 21.9448 14.9942 22.064C14.9664 22.3623 14.9009 23.062 15.3487 23.5532C15.6187 23.8496 16.0059 24 16.5001 24C17.7979 24 18.4273 23.3311 19.0357 22.6846C19.1383 22.5752 19.2432 22.4639 19.3536 22.3535C19.607 22.1001 20.1026 21.9194 20.5401 21.7598C21.2579 21.4976 22.0001 21.2266 22.0001 20.5C22.0001 19.7788 21.4049 19.3882 20.9263 19.0742Z" fill="#FDB515"/>
<path d="M8.28564 19.5898C7.79297 19.2466 7.41064 18.4463 7.07324 17.7402C6.62695 16.8066 6.24121 16 5.5 16C4.56445 16 4.35986 16.8408 4.25049 17.2925C4.22021 17.417 4.17432 17.6045 4.16992 17.6265C4.0957 17.6724 3.81641 17.7275 3.63184 17.7642C3.02148 17.8853 2 18.0874 2 19C2 19.2656 2.03955 19.4912 2.08301 19.7261C2.16016 20.1421 2.23291 20.5347 2.01611 21.375C2.00537 21.4155 2 21.458 2 21.5C2 22.7021 3.86719 22.8579 4.98291 22.9507C5.16846 22.9663 5.32275 22.978 5.42188 22.9937C5.57568 23.0181 5.89795 23.1665 6.20947 23.3101C6.87598 23.6177 7.70557 24 8.5 24C9.07129 24 9.52832 23.6309 9.72266 23.0127C10.0249 22.0493 9.62451 20.522 8.28564 19.5898Z" fill="#FDB515"/>
<path opacity="0.2" d="M3.55304 18.0142C3.74396 17.9775 4.03296 17.9224 4.10974 17.8765C4.11426 17.8545 4.16174 17.667 4.19305 17.5425C4.30621 17.0908 4.51788 16.25 5.48578 16.25C6.25262 16.25 6.65173 17.0566 7.11346 17.9902C7.46252 18.6963 7.85809 19.4966 8.3678 19.8398C8.87555 20.1815 9.25018 20.6039 9.50903 21.0484C9.26233 20.5136 8.86749 19.9949 8.28558 19.5898C7.79291 19.2466 7.41058 18.4463 7.07318 17.7402C6.62689 16.8066 6.24115 16 5.49994 16C4.56439 16 4.3598 16.8408 4.25043 17.2925C4.22015 17.417 4.17426 17.6045 4.16986 17.6265C4.09564 17.6724 3.81635 17.7275 3.63177 17.7642C3.10168 17.8693 2.26337 18.0369 2.05151 18.6768C2.38275 18.2401 3.08429 18.1041 3.55304 18.0142Z" fill="white"/>
<path d="M19.4999 15.5C19.4041 15.5 19.3197 15.5341 19.2437 15.5807L15.9051 10.1175C15.5405 9.08747 15.0741 7.99481 14.4443 6.771C14.3183 6.52637 14.017 6.4292 13.7709 6.55518C13.5258 6.68164 13.4291 6.9834 13.5556 7.22901C15.8129 11.6157 15.9999 14.354 16.0009 16.9722C15.995 17.0772 15.9594 18.0137 16.498 18.5835C16.7558 18.856 17.102 19 17.4999 19L17.6762 19.001C17.7323 19.0015 17.789 19.002 17.8466 19.002C18.3549 19.002 18.9047 18.9634 19.3349 18.5366C19.7948 18.0806 19.9999 17.2983 19.9999 16C19.9999 15.7236 19.7763 15.5 19.4999 15.5Z" fill="#1A1A1A"/>
<path opacity="0.3" d="M19.3349 18.2865C18.9047 18.7133 18.3549 18.7518 17.8466 18.7518C17.789 18.7518 17.7324 18.7513 17.6762 18.7509L17.4999 18.7499C17.102 18.7499 16.7558 18.6058 16.498 18.3334C16.0947 17.9067 16.0134 17.2748 16.0005 16.9399C16.0005 16.9506 16.0009 16.9614 16.0009 16.972C15.9951 17.077 15.9594 18.0135 16.498 18.5834C16.7558 18.8558 17.102 18.9999 17.4999 18.9999L17.6762 19.0009C17.7324 19.0013 17.789 19.0018 17.8466 19.0018C18.3549 19.0018 18.9047 18.9633 19.3349 18.5365C19.7949 18.0804 19.9999 17.2982 19.9999 15.9999C19.9999 15.9838 19.9923 15.9703 19.9908 15.9546C19.9681 17.1214 19.7681 17.857 19.3349 18.2865Z" fill="black"/>
<path d="M13 3.0415C12.4204 3.0415 12 3.66357 12 4.521C12 5.37793 12.4204 6 13 6C13.5796 6 14 5.37793 14 4.521C14 3.66357 13.5796 3.0415 13 3.0415Z" fill="white"/>
<path d="M13 5.77647C13.2505 5.77647 13.4535 5.37879 13.4535 4.88824C13.4535 4.39768 13.2505 4 13 4C12.7495 4 12.5464 4.39768 12.5464 4.88824C12.5464 5.37879 12.7495 5.77647 13 5.77647Z" fill="black"/>
<path d="M10 3.0415C9.42041 3.0415 9 3.66357 9 4.521C9 5.37793 9.42041 6 10 6C10.5796 6 11 5.37793 11 4.521C11 3.66357 10.5796 3.0415 10 3.0415Z" fill="white"/>
<path d="M13.8018 7.74243C12.8387 8.36835 11.1588 8.85876 10.9529 8.85876C10.5743 8.85876 9.74786 8.58856 9.14062 8.05249L15.9222 14.834C15.7612 12.898 15.2534 10.6957 13.8018 7.74243Z" fill="url(#paint0_linear)"/>
<path d="M9.99998 5.74118C10.2455 5.74118 10.4445 5.3514 10.4445 4.87059C10.4445 4.38978 10.2455 4 9.99998 4C9.75445 4 9.55542 4.38978 9.55542 4.87059C9.55542 5.3514 9.75445 5.74118 9.99998 5.74118Z" fill="black"/>
<path d="M11.5981 5.00977C11.5659 5.00342 11.5327 5 11.5 5C10.4248 5 8.5 6.0083 8.5 7C8.5 7.93701 10.3911 9 11 9C11.2954 9 14.5 7.88721 14.5 7C14.5 5.69189 12.2788 5.146 11.5981 5.00977Z" fill="#FDB515"/>
<path d="M11.5981 5.00977C11.5659 5.00342 11.5327 5 11.5 5C10.4248 5 8.5 6.0083 8.5 7C8.5 7.93701 10.3911 9 11 9C11.2954 9 14.5 7.88721 14.5 7C14.5 5.69189 12.2788 5.146 11.5981 5.00977Z" fill="#FDB515"/>
<path opacity="0.1" d="M20.54 21.5096C20.1025 21.6693 19.6069 21.85 19.3535 22.1034C19.2431 22.2137 19.1382 22.3251 19.0356 22.4344C18.4272 23.0809 17.7978 23.7499 16.5 23.7499C16.0058 23.7499 15.6186 23.5995 15.3486 23.3031C15.0555 22.9815 14.9895 22.5784 14.9818 22.2493C14.9602 22.5947 14.9726 23.1406 15.3486 23.5531C15.6186 23.8495 16.0058 23.9999 16.5 23.9999C17.7978 23.9999 18.4272 23.3309 19.0356 22.6844C19.1382 22.5751 19.2431 22.4637 19.3535 22.3534C19.6069 22.1 20.1025 21.9193 20.54 21.7596C21.2578 21.4974 22 21.2264 22 20.4999C22 20.4636 21.9827 20.4374 21.9798 20.4028C21.8798 21.0128 21.2034 21.2673 20.54 21.5096Z" fill="black"/>
<path opacity="0.1" d="M9.72266 22.7628C9.52832 23.381 9.07129 23.7501 8.5 23.7501C7.70557 23.7501 6.87598 23.3678 6.20947 23.0602C5.89795 22.9166 5.57568 22.7682 5.42188 22.7438C5.32275 22.7281 5.16846 22.7164 4.98291 22.7008C3.9024 22.611 2.13245 22.4532 2.02081 21.3521C2.01862 21.3607 2.01837 21.3664 2.01611 21.3751C2.00537 21.4156 2 21.4581 2 21.5001C2 22.7023 3.86719 22.858 4.98291 22.9508C5.16846 22.9664 5.32275 22.9781 5.42188 22.9938C5.57568 23.0182 5.89795 23.1666 6.20947 23.3102C6.87598 23.6178 7.70557 24.0001 8.5 24.0001C9.07129 24.0001 9.52832 23.631 9.72266 23.0128C9.8017 22.7609 9.82965 22.4694 9.80835 22.1611C9.80292 22.3752 9.77966 22.5811 9.72266 22.7628Z" fill="black"/>
<path opacity="0.1" d="M10.9891 8.75C10.4286 8.75 8.81781 7.86877 8.50134 6.99402C8.50134 6.99603 8.5 6.99799 8.5 7C8.5 7.93701 10.3911 9 11 9C11.2954 9 14.5 7.88721 14.5 7C14.5 6.98065 14.4895 6.96509 14.4885 6.94604C14.014 7.80133 11.2648 8.75 10.9891 8.75Z" fill="black"/>
<path d="M20.9263 19.0742C20.7192 18.9384 20.5049 18.7978 20.3535 18.6464C20.2651 18.558 20.3057 18.1494 20.3271 17.9296C20.3687 17.5078 20.4116 17.0722 20.1279 16.7592C20.0917 16.7191 20.0338 16.6815 19.9712 16.6462C19.9083 17.5566 19.7104 18.1642 19.335 18.5366C18.9048 18.9633 18.355 19.0019 17.8467 19.0019C17.7891 19.0019 17.7324 19.0014 17.6763 19.0009L17.5 18.9999C17.1021 18.9999 16.7559 18.8559 16.498 18.5834L19.9188 22.0042C20.1185 21.9149 20.335 21.8345 20.54 21.7597C21.2578 21.4975 22 21.2265 22 20.4999C22 19.7787 21.4048 19.3881 20.9263 19.0742Z" fill="url(#paint1_linear)"/>
<path d="M20.9263 19.0742C20.7192 18.9385 20.5049 18.7979 20.3535 18.6465C20.2651 18.5581 20.3057 18.1494 20.3271 17.9297C20.3687 17.5078 20.4116 17.0723 20.1279 16.7593C20.0938 16.7216 20.0332 16.6852 19.9796 16.6481C19.993 16.4476 20 16.2325 20 16C20 12.7534 18.5044 10.8804 17.3027 9.375C16.5752 8.46338 16 7.74316 16 7L16.001 6.76709C16.0088 5.38672 16.0249 2.51367 14.499 0.979004C13.853 0.32959 13.0122 0 12 0C9.89941 0 8.5 1.02051 8.5 6C8.5 7.37061 7.92334 8.49316 7.31299 9.68164C7.04541 10.2026 6.76855 10.7417 6.53662 11.3115C6.11786 12.3412 5.2038 14.7108 5.03516 16.0951C4.49469 16.3225 4.33838 16.9296 4.25049 17.2925C4.22021 17.417 4.17432 17.6045 4.16992 17.6265C4.0957 17.6724 3.81641 17.7275 3.63184 17.7642C3.02148 17.8853 2 18.0874 2 19C2 19.2656 2.03955 19.4912 2.08301 19.7261C2.16016 20.1421 2.23291 20.5347 2.01611 21.375C2.00537 21.4155 2 21.458 2 21.5C2 22.7021 3.86719 22.8579 4.98291 22.9507C5.16846 22.9663 5.32275 22.978 5.42188 22.9937C5.57568 23.0181 5.89795 23.1665 6.20947 23.3101C6.87598 23.6177 7.70557 24 8.5 24C8.84192 24 9.13373 23.8546 9.36194 23.6158C9.37939 23.601 9.40161 23.5929 9.41699 23.5757C9.63916 23.3281 11.1118 23 12 23H15.0607C15.1158 23.1927 15.1952 23.3849 15.3486 23.5532C15.6187 23.8496 16.0059 24 16.5 24C17.7979 24 18.4272 23.3311 19.0356 22.6846C19.1382 22.5752 19.2432 22.4639 19.3535 22.3535C19.6069 22.1001 20.1025 21.9194 20.54 21.7598C21.2578 21.4976 22 21.2266 22 20.5C22 19.7788 21.4048 19.3882 20.9263 19.0742Z" fill="url(#paint2_linear)"/>
<defs>
<linearGradient id="paint0_linear" x1="10.3834" y1="6.80968" x2="17.165" y2="13.5912" gradientUnits="userSpaceOnUse">
<stop stop-opacity="0.1"/>
<stop offset="1" stop-opacity="0"/>
</linearGradient>
<linearGradient id="paint1_linear" x1="17.8615" y1="17.22" x2="21.7588" y2="21.1172" gradientUnits="userSpaceOnUse">
<stop stop-opacity="0.1"/>
<stop offset="1" stop-opacity="0"/>
</linearGradient>
<linearGradient id="paint2_linear" x1="5.24505" y1="10.0597" x2="23.0856" y2="18.3789" gradientUnits="userSpaceOnUse">
<stop stop-color="white" stop-opacity="0.2"/>
<stop offset="1" stop-color="white" stop-opacity="0"/>
</linearGradient>
</defs>
</svg>
