<svg width="16" height="16" viewBox="0 0 16 16" fill="none" xmlns="http://www.w3.org/2000/svg">
<path d="M9.11719 12.1875H9.72656C9.87891 12.1875 10.0312 12.0605 10.0312 11.8828V6.39844C10.0312 6.24609 9.87891 6.09375 9.72656 6.09375H9.11719C8.93945 6.09375 8.8125 6.24609 8.8125 6.39844V11.8828C8.8125 12.0605 8.93945 12.1875 9.11719 12.1875ZM13.2812 3.65625H11.1738L10.3105 2.23438C10.1074 1.87891 9.70117 1.625 9.26953 1.625H6.70508C6.27344 1.625 5.86719 1.87891 5.66406 2.23438L4.80078 3.65625H2.71875C2.49023 3.65625 2.3125 3.85938 2.3125 4.0625V4.46875C2.3125 4.69727 2.49023 4.875 2.71875 4.875H3.125V13.4062C3.125 14.0918 3.6582 14.625 4.34375 14.625H11.6562C12.3164 14.625 12.875 14.0918 12.875 13.4062V4.875H13.2812C13.4844 4.875 13.6875 4.69727 13.6875 4.46875V4.0625C13.6875 3.85938 13.4844 3.65625 13.2812 3.65625ZM6.6543 2.91992C6.67969 2.89453 6.73047 2.84375 6.78125 2.84375C6.78125 2.84375 6.78125 2.84375 6.80664 2.84375H9.19336C9.24414 2.84375 9.29492 2.89453 9.32031 2.91992L9.75195 3.65625H6.22266L6.6543 2.91992ZM11.6562 13.4062H4.34375V4.875H11.6562V13.4062ZM6.27344 12.1875H6.88281C7.03516 12.1875 7.1875 12.0605 7.1875 11.8828V6.39844C7.1875 6.24609 7.03516 6.09375 6.88281 6.09375H6.27344C6.0957 6.09375 5.96875 6.24609 5.96875 6.39844V11.8828C5.96875 12.0605 6.0957 12.1875 6.27344 12.1875Z" fill="#F2AEAE"/>
</svg>
