<svg width="24" height="24" viewBox="0 0 24 24" fill="none" xmlns="http://www.w3.org/2000/svg">
<path d="M22.2026 4.13794H1.79742C0.804703 4.13794 0 4.94264 0 5.93536V18.0647C0 19.0574 0.804703 19.8621 1.79742 19.8621H22.2026C23.1952 19.8621 24 19.0574 24 18.0647V5.93536C24 4.94264 23.1953 4.13794 22.2026 4.13794Z" fill="#F5F5F5"/>
<path d="M0.0983887 5.3475H23.9006C23.6571 4.64358 22.9888 4.13794 22.2021 4.13794H1.79695C1.0102 4.13794 0.341998 4.64358 0.0983887 5.3475Z" fill="#FF4B55"/>
<path d="M24 8.97632H0V10.1858H24V8.97632Z" fill="#FF4B55"/>
<path d="M24 6.55688H0V7.7664H24V6.55688Z" fill="#FF4B55"/>
<path d="M0 12.1912C0 12.4198 0.185297 12.6051 0.413813 12.6051H24V11.3955H0V12.1912Z" fill="#FF4B55"/>
<path d="M24 16.2339H0V17.4434H24V16.2339Z" fill="#FF4B55"/>
<path d="M23.9007 18.6526H0.0983887C0.341998 19.3565 1.01025 19.8622 1.79695 19.8622H22.2021C22.9889 19.8622 23.6571 19.3565 23.9007 18.6526Z" fill="#FF4B55"/>
<path d="M24 13.8145H0V15.024H24V13.8145Z" fill="#FF4B55"/>
<path d="M0.413813 12.6048H10.7587C10.9872 12.6048 11.1725 12.4195 11.1725 12.191V4.55175C11.1725 4.32319 10.9872 4.13794 10.7587 4.13794H1.79742C0.804703 4.13799 0 4.94269 0 5.93541V12.191C0 12.4196 0.185297 12.6048 0.413813 12.6048Z" fill="#41479B"/>
<path d="M1.16259 5.08796L1.25419 5.36264L1.54373 5.36485C1.58123 5.36518 1.59675 5.41299 1.56661 5.43525L1.33369 5.60724L1.42106 5.88328C1.4324 5.919 1.39167 5.94863 1.36115 5.92678L1.12561 5.75846L0.890061 5.92683C0.859546 5.94868 0.818905 5.91905 0.830155 5.88333L0.91753 5.60728L0.684609 5.4353C0.654468 5.41299 0.669984 5.36518 0.707484 5.36489L0.99703 5.36269L1.08862 5.088C1.10044 5.05238 1.15069 5.05238 1.16259 5.08796Z" fill="#F5F5F5"/>
<path d="M1.16259 6.52469L1.25419 6.79938L1.54373 6.80158C1.58123 6.80191 1.59675 6.84968 1.56661 6.87199L1.33369 7.04402L1.42106 7.32007C1.4324 7.35579 1.39167 7.38542 1.36115 7.36357L1.12561 7.19524L0.890061 7.36362C0.859546 7.38542 0.818905 7.35584 0.830155 7.32012L0.91753 7.04407L0.684609 6.87204C0.654468 6.84972 0.669984 6.80196 0.707484 6.80163L0.99703 6.79943L1.08862 6.52474C1.10044 6.48916 1.15069 6.48916 1.16259 6.52469Z" fill="#F5F5F5"/>
<path d="M1.16259 7.96174L1.25419 8.23642L1.54373 8.23863C1.58123 8.23896 1.59675 8.28672 1.56661 8.30903L1.33369 8.48107L1.42106 8.75711C1.4324 8.79283 1.39167 8.82246 1.36115 8.80061L1.12561 8.63229L0.890061 8.80066C0.859546 8.82246 0.818905 8.79293 0.830155 8.75716L0.91753 8.48111L0.684609 8.30908C0.654468 8.28677 0.669984 8.239 0.707484 8.23867L0.99703 8.23647L1.08862 7.96178C1.10044 7.92616 1.15069 7.92616 1.16259 7.96174Z" fill="#F5F5F5"/>
<path d="M1.16259 9.39875L1.25419 9.67343L1.54373 9.67564C1.58123 9.67596 1.59675 9.72378 1.56661 9.74604L1.33369 9.91807L1.42106 10.1941C1.4324 10.2298 1.39167 10.2595 1.36115 10.2376L1.12561 10.0693L0.890061 10.2377C0.859546 10.2595 0.818905 10.2299 0.830155 10.1942L0.91753 9.91812L0.684609 9.74609C0.654468 9.72387 0.669984 9.67601 0.707484 9.67568L0.99703 9.67348L1.08862 9.39879C1.10044 9.36317 1.15069 9.36317 1.16259 9.39875Z" fill="#F5F5F5"/>
<path d="M1.16259 10.8355L1.25419 11.1102L1.54373 11.1124C1.58123 11.1127 1.59675 11.1605 1.56661 11.1828L1.33369 11.3548L1.42106 11.6309C1.4324 11.6666 1.39167 11.6962 1.36115 11.6744L1.12561 11.506L0.890061 11.6744C0.859546 11.6962 0.818905 11.6666 0.830155 11.6309L0.91753 11.3549L0.684609 11.1828C0.654468 11.1605 0.669984 11.1127 0.707484 11.1124L0.99703 11.1102L1.08862 10.8355C1.10044 10.7999 1.15069 10.7999 1.16259 10.8355Z" fill="#F5F5F5"/>
<path d="M2.27783 5.79227L2.36942 6.06696L2.65897 6.06917C2.69647 6.06949 2.71198 6.11731 2.68184 6.13957L2.44892 6.31161L2.53629 6.58765C2.54764 6.62337 2.5069 6.653 2.47639 6.63115L2.24084 6.46278L2.0053 6.63115C1.97478 6.65295 1.93414 6.62337 1.94539 6.58765L2.03276 6.31161L1.79984 6.13957C1.7697 6.11726 1.78522 6.06949 1.82272 6.06917L2.11226 6.06696L2.20386 5.79227C2.21567 5.75674 2.26597 5.75674 2.27783 5.79227Z" fill="#F5F5F5"/>
<path d="M2.27783 7.22908L2.36942 7.50376L2.65897 7.50597C2.69647 7.5063 2.71198 7.55411 2.68184 7.57637L2.44892 7.7484L2.53629 8.02445C2.54764 8.06017 2.5069 8.0898 2.47639 8.06795L2.24084 7.89958L2.0053 8.06795C1.97478 8.08975 1.93414 8.06022 1.94539 8.02445L2.03276 7.7484L1.79984 7.57637C1.7697 7.55415 1.78522 7.5063 1.82272 7.50597L2.11226 7.50376L2.20386 7.22908C2.21567 7.1935 2.26597 7.1935 2.27783 7.22908Z" fill="#F5F5F5"/>
<path d="M2.27783 8.66609L2.36942 8.94078L2.65897 8.94298C2.69647 8.94331 2.71198 8.99107 2.68184 9.01339L2.44892 9.18542L2.53629 9.46147C2.54764 9.49719 2.5069 9.52681 2.47639 9.50497L2.24084 9.33659L2.0053 9.50497C1.97478 9.52676 1.93414 9.49719 1.94539 9.46147L2.03276 9.18542L1.79984 9.01339C1.7697 8.99107 1.78522 8.94331 1.82272 8.94298L2.11226 8.94078L2.20386 8.66609C2.21567 8.63051 2.26597 8.63051 2.27783 8.66609Z" fill="#F5F5F5"/>
<path d="M2.27783 10.1031L2.36942 10.3778L2.65897 10.38C2.69647 10.3803 2.71198 10.428 2.68184 10.4504L2.44892 10.6224L2.53629 10.8984C2.54764 10.9342 2.5069 10.9638 2.47639 10.9419L2.24084 10.7736L2.0053 10.9419C1.97478 10.9638 1.93414 10.9342 1.94539 10.8984L2.03276 10.6224L1.79984 10.4504C1.7697 10.428 1.78522 10.3803 1.82272 10.38L2.11226 10.3778L2.20386 10.1031C2.21567 10.0675 2.26597 10.0675 2.27783 10.1031Z" fill="#F5F5F5"/>
<path d="M3.3933 5.08772L3.4849 5.36241L3.77444 5.36461C3.81194 5.36494 3.82746 5.41275 3.79732 5.43502L3.5644 5.607L3.65177 5.88305C3.66312 5.91877 3.62238 5.94839 3.59187 5.92655L3.35632 5.75817L3.12077 5.92655C3.09026 5.94839 3.04962 5.91877 3.06087 5.88305L3.14824 5.607L2.91532 5.43502C2.88518 5.4127 2.9007 5.36489 2.9382 5.36461L3.22774 5.36241L3.31934 5.08772C3.33115 5.05214 3.38145 5.05214 3.3933 5.08772Z" fill="#F5F5F5"/>
<path d="M3.3933 6.5247L3.4849 6.79938L3.77444 6.80159C3.81194 6.80191 3.82746 6.84968 3.79732 6.87199L3.5644 7.04402L3.65177 7.32007C3.66312 7.35579 3.62238 7.38541 3.59187 7.36357L3.35632 7.19519L3.12077 7.36357C3.09026 7.38537 3.04962 7.35579 3.06087 7.32007L3.14824 7.04402L2.91532 6.87199C2.88518 6.84968 2.9007 6.80191 2.9382 6.80159L3.22774 6.79938L3.31934 6.5247C3.33115 6.48916 3.38145 6.48916 3.3933 6.5247Z" fill="#F5F5F5"/>
<path d="M3.3933 7.9615L3.4849 8.23619L3.77444 8.23839C3.81194 8.23872 3.82746 8.28648 3.79732 8.3088L3.5644 8.48083L3.65177 8.75687C3.66312 8.79259 3.62238 8.82222 3.59187 8.80037L3.35632 8.632L3.12077 8.80037C3.09026 8.82217 3.04962 8.79264 3.06087 8.75687L3.14824 8.48083L2.91532 8.3088C2.88518 8.28648 2.9007 8.23872 2.9382 8.23839L3.22774 8.23619L3.31934 7.9615C3.33115 7.92592 3.38145 7.92592 3.3933 7.9615Z" fill="#F5F5F5"/>
<path d="M3.3933 9.39851L3.4849 9.6732L3.77444 9.6754C3.81194 9.67573 3.82746 9.72354 3.79732 9.74581L3.5644 9.91784L3.65177 10.1939C3.66312 10.2296 3.62238 10.2592 3.59187 10.2374L3.35632 10.069L3.12077 10.2374C3.09026 10.2592 3.04962 10.2296 3.06087 10.1939L3.14824 9.91784L2.91532 9.74581C2.88518 9.72359 2.9007 9.67573 2.9382 9.6754L3.22774 9.6732L3.31934 9.39851C3.33115 9.36293 3.38145 9.36293 3.3933 9.39851Z" fill="#F5F5F5"/>
<path d="M3.3933 10.8355L3.4849 11.1102L3.77444 11.1124C3.81194 11.1127 3.82746 11.1605 3.79732 11.1828L3.5644 11.3548L3.65177 11.6309C3.66312 11.6666 3.62238 11.6962 3.59187 11.6744L3.35632 11.506L3.12077 11.6744C3.09026 11.6962 3.04962 11.6666 3.06087 11.6309L3.14824 11.3548L2.91532 11.1828C2.88518 11.1605 2.9007 11.1127 2.9382 11.1124L3.22774 11.1102L3.31934 10.8355C3.33115 10.8 3.38145 10.8 3.3933 10.8355Z" fill="#F5F5F5"/>
<path d="M4.50781 5.79227L4.5994 6.06696L4.88895 6.06917C4.92645 6.06949 4.94196 6.11731 4.91182 6.13957L4.6789 6.31161L4.76628 6.58765C4.77762 6.62337 4.73689 6.653 4.70637 6.63115L4.47082 6.46278L4.23528 6.63115C4.20476 6.65295 4.16412 6.62337 4.17537 6.58765L4.26275 6.31161L4.02982 6.13957C3.99968 6.11726 4.0152 6.06949 4.0527 6.06917L4.34225 6.06696L4.43384 5.79227C4.4456 5.75674 4.49595 5.75674 4.50781 5.79227Z" fill="#F5F5F5"/>
<path d="M4.50781 7.22908L4.5994 7.50376L4.88895 7.50597C4.92645 7.5063 4.94196 7.55411 4.91182 7.57637L4.6789 7.7484L4.76628 8.02445C4.77762 8.06017 4.73689 8.0898 4.70637 8.06795L4.47082 7.89958L4.23528 8.06795C4.20476 8.08975 4.16412 8.06022 4.17537 8.02445L4.26275 7.7484L4.02982 7.57637C3.99968 7.55415 4.0152 7.5063 4.0527 7.50597L4.34225 7.50376L4.43384 7.22908C4.4456 7.1935 4.49595 7.1935 4.50781 7.22908Z" fill="#F5F5F5"/>
<path d="M4.50781 8.66609L4.5994 8.94078L4.88895 8.94298C4.92645 8.94331 4.94196 8.99107 4.91182 9.01339L4.6789 9.18542L4.76628 9.46147C4.77762 9.49719 4.73689 9.52681 4.70637 9.50497L4.47082 9.33659L4.23528 9.50497C4.20476 9.52676 4.16412 9.49719 4.17537 9.46147L4.26275 9.18542L4.02982 9.01339C3.99968 8.99107 4.0152 8.94331 4.0527 8.94298L4.34225 8.94078L4.43384 8.66609C4.4456 8.63051 4.49595 8.63051 4.50781 8.66609Z" fill="#F5F5F5"/>
<path d="M4.50781 10.1031L4.5994 10.3778L4.88895 10.38C4.92645 10.3803 4.94196 10.428 4.91182 10.4504L4.6789 10.6224L4.76628 10.8984C4.77762 10.9342 4.73689 10.9638 4.70637 10.9419L4.47082 10.7736L4.23528 10.9419C4.20476 10.9638 4.16412 10.9342 4.17537 10.8984L4.26275 10.6224L4.02982 10.4504C3.99968 10.428 4.0152 10.3803 4.0527 10.38L4.34225 10.3778L4.43384 10.1031C4.4456 10.0675 4.49595 10.0675 4.50781 10.1031Z" fill="#F5F5F5"/>
<path d="M5.62407 5.08796L5.71566 5.36264L6.00521 5.36485C6.04271 5.36518 6.05822 5.41299 6.02808 5.43525L5.79516 5.60724L5.88254 5.88328C5.89388 5.919 5.85314 5.94863 5.82263 5.92678L5.58704 5.75846L5.35149 5.92683C5.32097 5.94868 5.28033 5.91905 5.29158 5.88333L5.37896 5.60728L5.14603 5.4353C5.11589 5.41299 5.13141 5.36518 5.16891 5.36489L5.45846 5.36269L5.55005 5.088C5.56191 5.05238 5.61221 5.05238 5.62407 5.08796Z" fill="#F5F5F5"/>
<path d="M5.62407 6.5247L5.71566 6.79938L6.00521 6.80159C6.04271 6.80191 6.05822 6.84968 6.02808 6.87199L5.79516 7.04402L5.88254 7.32007C5.89388 7.35579 5.85314 7.38541 5.82263 7.36357L5.58704 7.19519L5.35149 7.36357C5.32097 7.38537 5.28033 7.35579 5.29158 7.32007L5.37896 7.04402L5.14603 6.87199C5.11589 6.84968 5.13141 6.80191 5.16891 6.80159L5.45846 6.79938L5.55005 6.5247C5.56191 6.48916 5.61221 6.48916 5.62407 6.5247Z" fill="#F5F5F5"/>
<path d="M5.62407 7.96126L5.71566 8.23595L6.00521 8.23815C6.04271 8.23848 6.05822 8.28624 6.02808 8.30856L5.79516 8.48059L5.88254 8.75663C5.89388 8.79235 5.85314 8.82198 5.82263 8.80014L5.58704 8.63171L5.35149 8.80009C5.32097 8.82188 5.28033 8.79231 5.29158 8.75659L5.37896 8.48054L5.14603 8.30851C5.11589 8.2862 5.13141 8.23843 5.16891 8.2381L5.45846 8.2359L5.55005 7.96121C5.56191 7.92568 5.61221 7.92568 5.62407 7.96126Z" fill="#F5F5F5"/>
<path d="M5.62407 9.39851L5.71566 9.6732L6.00521 9.6754C6.04271 9.67573 6.05822 9.72354 6.02808 9.74581L5.79516 9.91784L5.88254 10.1939C5.89388 10.2296 5.85314 10.2592 5.82263 10.2374L5.58704 10.069L5.35149 10.2374C5.32097 10.2592 5.28033 10.2296 5.29158 10.1939L5.37896 9.91784L5.14603 9.74581C5.11589 9.72359 5.13141 9.67573 5.16891 9.6754L5.45846 9.6732L5.55005 9.39851C5.56191 9.36293 5.61221 9.36293 5.62407 9.39851Z" fill="#F5F5F5"/>
<path d="M5.62407 10.8355L5.71566 11.1102L6.00521 11.1124C6.04271 11.1127 6.05822 11.1605 6.02808 11.1828L5.79516 11.3548L5.88254 11.6309C5.89388 11.6666 5.85314 11.6962 5.82263 11.6744L5.58704 11.506L5.35149 11.6744C5.32097 11.6962 5.28033 11.6666 5.29158 11.6309L5.37896 11.3548L5.14603 11.1828C5.11589 11.1605 5.13141 11.1127 5.16891 11.1124L5.45846 11.1102L5.55005 10.8355C5.56191 10.8 5.61221 10.8 5.62407 10.8355Z" fill="#F5F5F5"/>
<path d="M6.73827 5.79227L6.82987 6.06696L7.11941 6.06917C7.15691 6.06949 7.17243 6.11731 7.14228 6.13957L6.90936 6.31161L6.99674 6.58765C7.00808 6.62337 6.96735 6.653 6.93683 6.63115L6.70129 6.46278L6.46574 6.63115C6.43523 6.65295 6.39459 6.62337 6.40584 6.58765L6.49321 6.31161L6.26029 6.13957C6.23015 6.11726 6.24567 6.06949 6.28317 6.06917L6.57271 6.06696L6.6643 5.79227C6.67616 5.75674 6.72641 5.75674 6.73827 5.79227Z" fill="#F5F5F5"/>
<path d="M6.73827 7.22908L6.82987 7.50376L7.11941 7.50597C7.15691 7.5063 7.17243 7.55411 7.14228 7.57637L6.90936 7.7484L6.99674 8.02445C7.00808 8.06017 6.96735 8.0898 6.93683 8.06795L6.70129 7.89958L6.46574 8.06795C6.43523 8.08975 6.39459 8.06022 6.40584 8.02445L6.49321 7.7484L6.26029 7.57637C6.23015 7.55415 6.24567 7.5063 6.28317 7.50597L6.57271 7.50376L6.6643 7.22908C6.67616 7.1935 6.72641 7.1935 6.73827 7.22908Z" fill="#F5F5F5"/>
<path d="M6.73827 8.66609L6.82987 8.94078L7.11941 8.94298C7.15691 8.94331 7.17243 8.99107 7.14228 9.01339L6.90936 9.18542L6.99674 9.46147C7.00808 9.49719 6.96735 9.52681 6.93683 9.50497L6.70129 9.33659L6.46574 9.50497C6.43523 9.52676 6.39459 9.49719 6.40584 9.46147L6.49321 9.18542L6.26029 9.01339C6.23015 8.99107 6.24567 8.94331 6.28317 8.94298L6.57271 8.94078L6.6643 8.66609C6.67616 8.63051 6.72641 8.63051 6.73827 8.66609Z" fill="#F5F5F5"/>
<path d="M6.73827 10.1031L6.82987 10.3778L7.11941 10.38C7.15691 10.3803 7.17243 10.428 7.14228 10.4504L6.90936 10.6224L6.99674 10.8984C7.00808 10.9342 6.96735 10.9638 6.93683 10.9419L6.70129 10.7736L6.46574 10.9419C6.43523 10.9638 6.39459 10.9342 6.40584 10.8984L6.49321 10.6224L6.26029 10.4504C6.23015 10.428 6.24567 10.3803 6.28317 10.38L6.57271 10.3778L6.6643 10.1031C6.67616 10.0675 6.72641 10.0675 6.73827 10.1031Z" fill="#F5F5F5"/>
<path d="M7.85473 5.08772L7.94632 5.36241L8.23586 5.36461C8.27336 5.36494 8.28888 5.41275 8.25874 5.43502L8.02582 5.607L8.11319 5.88305C8.12454 5.91877 8.0838 5.94839 8.05329 5.92655L7.81774 5.75817L7.5822 5.92655C7.55168 5.94839 7.51104 5.91877 7.52229 5.88305L7.60967 5.607L7.37675 5.43502C7.34661 5.4127 7.36212 5.36489 7.39962 5.36461L7.68917 5.36241L7.78076 5.08772C7.79252 5.05214 7.84287 5.05214 7.85473 5.08772Z" fill="#F5F5F5"/>
<path d="M7.85473 6.5247L7.94632 6.79938L8.23586 6.80159C8.27336 6.80191 8.28888 6.84968 8.25874 6.87199L8.02582 7.04402L8.11319 7.32007C8.12454 7.35579 8.0838 7.38541 8.05329 7.36357L7.81774 7.19519L7.5822 7.36357C7.55168 7.38537 7.51104 7.35579 7.52229 7.32007L7.60967 7.04402L7.37675 6.87199C7.34661 6.84968 7.36212 6.80191 7.39962 6.80159L7.68917 6.79938L7.78076 6.5247C7.79252 6.48916 7.84287 6.48916 7.85473 6.5247Z" fill="#F5F5F5"/>
<path d="M7.85473 7.9615L7.94632 8.23619L8.23586 8.23839C8.27336 8.23872 8.28888 8.28648 8.25874 8.3088L8.02582 8.48083L8.11319 8.75687C8.12454 8.79259 8.0838 8.82222 8.05329 8.80037L7.81774 8.632L7.5822 8.80037C7.55168 8.82217 7.51104 8.79264 7.52229 8.75687L7.60967 8.48083L7.37675 8.3088C7.34661 8.28648 7.36212 8.23872 7.39962 8.23839L7.68917 8.23619L7.78076 7.9615C7.79252 7.92592 7.84287 7.92592 7.85473 7.9615Z" fill="#F5F5F5"/>
<path d="M7.85473 9.39851L7.94632 9.6732L8.23586 9.6754C8.27336 9.67573 8.28888 9.72354 8.25874 9.74581L8.02582 9.91784L8.11319 10.1939C8.12454 10.2296 8.0838 10.2592 8.05329 10.2374L7.81774 10.069L7.5822 10.2374C7.55168 10.2592 7.51104 10.2296 7.52229 10.1939L7.60967 9.91784L7.37675 9.74581C7.34661 9.72359 7.36212 9.67573 7.39962 9.6754L7.68917 9.6732L7.78076 9.39851C7.79252 9.36293 7.84287 9.36293 7.85473 9.39851Z" fill="#F5F5F5"/>
<path d="M7.85473 10.8355L7.94632 11.1102L8.23586 11.1124C8.27336 11.1127 8.28888 11.1605 8.25874 11.1828L8.02582 11.3548L8.11319 11.6309C8.12454 11.6666 8.0838 11.6962 8.05329 11.6744L7.81774 11.506L7.5822 11.6744C7.55168 11.6962 7.51104 11.6666 7.52229 11.6309L7.60967 11.3548L7.37675 11.1828C7.34661 11.1605 7.36212 11.1127 7.39962 11.1124L7.68917 11.1102L7.78076 10.8355C7.79252 10.8 7.84287 10.8 7.85473 10.8355Z" fill="#F5F5F5"/>
<path d="M8.96996 5.79227L9.06156 6.06696L9.3511 6.06917C9.3886 6.06949 9.40412 6.11731 9.37398 6.13957L9.14106 6.31161L9.22843 6.58765C9.23978 6.62337 9.19904 6.653 9.16853 6.63115L8.93298 6.46278L8.69743 6.63115C8.66692 6.65295 8.62628 6.62337 8.63753 6.58765L8.7249 6.31161L8.49198 6.13957C8.46184 6.11726 8.47736 6.06949 8.51486 6.06917L8.8044 6.06696L8.896 5.79227C8.90781 5.75674 8.9581 5.75674 8.96996 5.79227Z" fill="#F5F5F5"/>
<path d="M8.96996 7.22908L9.06156 7.50376L9.3511 7.50597C9.3886 7.5063 9.40412 7.55411 9.37398 7.57637L9.14106 7.7484L9.22843 8.02445C9.23978 8.06017 9.19904 8.0898 9.16853 8.06795L8.93298 7.89958L8.69743 8.06795C8.66692 8.08975 8.62628 8.06022 8.63753 8.02445L8.7249 7.7484L8.49198 7.57637C8.46184 7.55415 8.47736 7.5063 8.51486 7.50597L8.8044 7.50376L8.896 7.22908C8.90781 7.1935 8.9581 7.1935 8.96996 7.22908Z" fill="#F5F5F5"/>
<path d="M8.96996 8.66609L9.06156 8.94078L9.3511 8.94298C9.3886 8.94331 9.40412 8.99107 9.37398 9.01339L9.14106 9.18542L9.22843 9.46147C9.23978 9.49719 9.19904 9.52681 9.16853 9.50497L8.93298 9.33659L8.69743 9.50497C8.66692 9.52676 8.62628 9.49719 8.63753 9.46147L8.7249 9.18542L8.49198 9.01339C8.46184 8.99107 8.47736 8.94331 8.51486 8.94298L8.8044 8.94078L8.896 8.66609C8.90781 8.63051 8.9581 8.63051 8.96996 8.66609Z" fill="#F5F5F5"/>
<path d="M8.96996 10.1031L9.06156 10.3778L9.3511 10.38C9.3886 10.3803 9.40412 10.428 9.37398 10.4504L9.14106 10.6224L9.22843 10.8984C9.23978 10.9342 9.19904 10.9638 9.16853 10.9419L8.93298 10.7736L8.69743 10.9419C8.66692 10.9638 8.62628 10.9342 8.63753 10.8984L8.7249 10.6224L8.49198 10.4504C8.46184 10.428 8.47736 10.3803 8.51486 10.38L8.8044 10.3778L8.896 10.1031C8.90781 10.0675 8.9581 10.0675 8.96996 10.1031Z" fill="#F5F5F5"/>
<path d="M10.0845 5.08772L10.1761 5.36241L10.4656 5.36461C10.5031 5.36494 10.5186 5.41275 10.4885 5.43502L10.2556 5.607L10.3429 5.88305C10.3543 5.91877 10.3135 5.94839 10.283 5.92655L10.0475 5.75817L9.81194 5.92655C9.78142 5.94839 9.74078 5.91877 9.75203 5.88305L9.83941 5.607L9.60648 5.43502C9.57634 5.4127 9.59186 5.36489 9.62936 5.36461L9.91891 5.36241L10.0105 5.08772C10.0223 5.05214 10.0726 5.05214 10.0845 5.08772Z" fill="#F5F5F5"/>
<path d="M10.0845 6.5247L10.1761 6.79938L10.4656 6.80159C10.5031 6.80191 10.5186 6.84968 10.4885 6.87199L10.2556 7.04402L10.3429 7.32007C10.3543 7.35579 10.3135 7.38541 10.283 7.36357L10.0475 7.19519L9.81194 7.36357C9.78142 7.38537 9.74078 7.35579 9.75203 7.32007L9.83941 7.04402L9.60648 6.87199C9.57634 6.84968 9.59186 6.80191 9.62936 6.80159L9.91891 6.79938L10.0105 6.5247C10.0223 6.48916 10.0726 6.48916 10.0845 6.5247Z" fill="#F5F5F5"/>
<path d="M10.0845 7.9615L10.1761 8.23619L10.4656 8.23839C10.5031 8.23872 10.5186 8.28648 10.4885 8.3088L10.2556 8.48083L10.3429 8.75687C10.3543 8.79259 10.3135 8.82222 10.283 8.80037L10.0475 8.632L9.81194 8.80037C9.78142 8.82217 9.74078 8.79264 9.75203 8.75687L9.83941 8.48083L9.60648 8.3088C9.57634 8.28648 9.59186 8.23872 9.62936 8.23839L9.91891 8.23619L10.0105 7.9615C10.0223 7.92592 10.0726 7.92592 10.0845 7.9615Z" fill="#F5F5F5"/>
<path d="M10.0845 9.39851L10.1761 9.6732L10.4656 9.6754C10.5031 9.67573 10.5186 9.72354 10.4885 9.74581L10.2556 9.91784L10.3429 10.1939C10.3543 10.2296 10.3135 10.2592 10.283 10.2374L10.0475 10.069L9.81194 10.2374C9.78142 10.2592 9.74078 10.2296 9.75203 10.1939L9.83941 9.91784L9.60648 9.74581C9.57634 9.72359 9.59186 9.67573 9.62936 9.6754L9.91891 9.6732L10.0105 9.39851C10.0223 9.36293 10.0726 9.36293 10.0845 9.39851Z" fill="#F5F5F5"/>
<path d="M10.0845 10.8355L10.1761 11.1102L10.4656 11.1124C10.5031 11.1127 10.5186 11.1605 10.4885 11.1828L10.2556 11.3548L10.3429 11.6309C10.3543 11.6666 10.3135 11.6962 10.283 11.6744L10.0475 11.506L9.81194 11.6744C9.78142 11.6962 9.74078 11.6666 9.75203 11.6309L9.83941 11.3548L9.60648 11.1828C9.57634 11.1605 9.59186 11.1127 9.62936 11.1124L9.91891 11.1102L10.0105 10.8355C10.0223 10.8 10.0726 10.8 10.0845 10.8355Z" fill="#F5F5F5"/>
</svg>
