<svg width="24" height="24" viewBox="0 0 24 24" fill="none" xmlns="http://www.w3.org/2000/svg">
<path d="M12 11H23V1L12 2V11Z" fill="#009ADA"/>
<path d="M10 11.0001V2.18188L1 3.00006V11.0001H10Z" fill="#009ADA"/>
<path opacity="0.2" d="M12 2V2.25L23 1.25V1L12 2Z" fill="white"/>
<path opacity="0.1" d="M23 10.75H12V11H23V10.75Z" fill="black"/>
<path opacity="0.2" d="M1 3.00006V3.25006L10 2.43188V2.18188L1 3.00006Z" fill="white"/>
<path opacity="0.1" d="M10 10.75H1V11H10V10.75Z" fill="black"/>
<path d="M12 13H23V23L12 22V13Z" fill="#009ADA"/>
<path d="M10 13V21.8182L1 21V13H10Z" fill="#009ADA"/>
<path opacity="0.1" d="M12 22V21.75L23 22.75V23L12 22Z" fill="black"/>
<path opacity="0.2" d="M23 13H12V13.25H23V13Z" fill="white"/>
<path opacity="0.1" d="M1 21V20.75L10 21.5682V21.8182L1 21Z" fill="black"/>
<path opacity="0.2" d="M10 13H1V13.25H10V13Z" fill="white"/>
<path d="M12 2V11H23V1L12 2ZM1 11H10V2.18182L1 3V11ZM12 22L23 23V13H12V22ZM1 21L10 21.8182V13H1V21Z" fill="url(#paint0_linear)"/>
<defs>
<linearGradient id="paint0_linear" x1="-0.0995096" y1="5.35791" x2="25.6316" y2="17.3565" gradientUnits="userSpaceOnUse">
<stop stop-color="white" stop-opacity="0.2"/>
<stop offset="1" stop-color="white" stop-opacity="0"/>
</linearGradient>
</defs>
</svg>
