<svg width="28" height="24" viewBox="0 0 28 24" fill="none" xmlns="http://www.w3.org/2000/svg">
<rect x="0.5" y="0.5" width="27" height="23" rx="4.5" fill="#734950" stroke="#B75457"/>
<path d="M16.1875 16.625H16.5625C16.6562 16.625 16.75 16.5547 16.75 16.4375V10.0625C16.75 9.96875 16.6562 9.875 16.5625 9.875H16.1875C16.0703 9.875 16 9.96875 16 10.0625V16.4375C16 16.5547 16.0703 16.625 16.1875 16.625ZM12.4375 16.625H12.8125C12.9062 16.625 13 16.5547 13 16.4375V10.0625C13 9.96875 12.9062 9.875 12.8125 9.875H12.4375C12.3203 9.875 12.25 9.96875 12.25 10.0625V16.4375C12.25 16.5547 12.3203 16.625 12.4375 16.625ZM19.5625 8H17.125L16.3281 6.96875C16.1172 6.6875 15.7891 6.5 15.4375 6.5H13.5625C13.1875 6.5 12.8594 6.6875 12.6484 6.96875L11.875 8H9.4375C9.32031 8 9.25 8.09375 9.25 8.1875V8.5625C9.25 8.67969 9.32031 8.75 9.4375 8.75H10V17.375C10 18.0078 10.4922 18.5 11.125 18.5H17.875C18.4844 18.5 19 18.0078 19 17.375V8.75H19.5625C19.6562 8.75 19.75 8.67969 19.75 8.5625V8.1875C19.75 8.09375 19.6562 8 19.5625 8ZM13.2578 7.41406C13.3281 7.32031 13.4219 7.27344 13.5625 7.25H15.4375C15.5547 7.27344 15.6484 7.32031 15.7188 7.41406L16.1875 8H12.8125L13.2578 7.41406ZM18.25 17.375C18.25 17.5859 18.0625 17.75 17.875 17.75H11.125C10.9141 17.75 10.75 17.5859 10.75 17.375V8.75H18.25V17.375ZM14.3125 16.625H14.6875C14.7812 16.625 14.875 16.5547 14.875 16.4375V10.0625C14.875 9.96875 14.7812 9.875 14.6875 9.875H14.3125C14.1953 9.875 14.125 9.96875 14.125 10.0625V16.4375C14.125 16.5547 14.1953 16.625 14.3125 16.625Z" fill="#F2AEAE"/>
</svg>
