<svg width="20" height="20" viewBox="0 0 20 20" fill="none" xmlns="http://www.w3.org/2000/svg">
    <g clip-path="url(#clip0)">
        <path d="M1.42047 16.5508H6.66664V3.44934H1.49785C0.670586 3.44934 0 4.11993 0 4.94719V15.055C0 15.8562 0.629219 16.5106 1.42047 16.5508Z" fill="#41479B"/>
        <path d="M13.3338 3.44922H6.66699V16.5504H13.3338V3.44922Z" fill="#FFE15A"/>
        <path d="M18.5792 16.5508C19.3704 16.5106 19.9996 15.8562 19.9996 15.0549V4.94719C19.9996 4.11997 19.3291 3.44934 18.5018 3.44934H13.333V16.5508H18.5792Z" fill="#FF4B55"/>
        <path d="M12.345 11.1199C12.345 11.0198 12.2639 10.9387 12.1638 10.9387C12.1421 10.9387 12.1215 10.9431 12.1022 10.9501C12.0125 10.8704 11.8499 10.6724 12.013 10.3929C12.0351 10.4101 12.0624 10.4207 12.0925 10.4207C12.1644 10.4207 12.2227 10.3624 12.2227 10.2906C12.2227 10.2338 12.1861 10.186 12.1353 10.1682C12.2694 10.0998 12.4605 9.95471 12.4507 9.68334C12.4366 9.2985 12.1214 9.08607 11.928 9.171C11.9287 9.16561 11.9296 9.16029 11.9296 9.15475C11.9296 9.08385 11.8722 9.02639 11.8013 9.02639C11.7577 9.02639 11.7193 9.04822 11.6962 9.08143C11.6883 9.04295 11.6892 8.9715 11.7787 8.89428C11.9448 8.7508 12.1336 8.40721 11.79 8.16557C11.5997 8.03178 11.236 7.96768 11.1142 8.15049C11.0613 8.22975 11.1037 8.34365 11.164 8.36924C11.0668 8.42346 10.8824 8.50482 10.7366 8.44123C10.529 8.35064 10.6489 8.17068 10.6951 8.0901C10.7763 7.9485 10.7253 7.71631 10.4535 7.71631C10.2722 7.71631 10.1816 7.89756 10.0004 7.89756C9.8192 7.89756 9.72858 7.71631 9.54737 7.71631C9.27553 7.71631 9.22455 7.9485 9.30572 8.0901C9.35193 8.17064 9.47186 8.35061 9.2642 8.44123C9.11846 8.50486 8.93404 8.42346 8.83678 8.36924C8.89709 8.34369 8.93951 8.22978 8.88666 8.15049C8.76482 7.96771 8.40111 8.03178 8.21084 8.16557C7.86724 8.40721 8.05607 8.7508 8.22217 8.89428C8.31162 8.9715 8.31256 9.04299 8.30467 9.08143C8.28146 9.04822 8.2431 9.02639 8.19955 9.02639C8.12865 9.02639 8.07119 9.08385 8.07119 9.15475C8.07119 9.16029 8.07213 9.16564 8.07283 9.171C7.87943 9.08604 7.56416 9.2985 7.55017 9.68334C7.54029 9.95467 7.73146 10.0998 7.86549 10.1682C7.81474 10.186 7.77814 10.2338 7.77814 10.2906C7.77814 10.3625 7.83642 10.4207 7.9083 10.4207C7.93838 10.4207 7.96572 10.4101 7.98779 10.3929C8.15088 10.6724 7.98838 10.8704 7.89865 10.9501C7.87935 10.9431 7.85877 10.9387 7.83705 10.9387C7.73697 10.9387 7.6558 11.0198 7.6558 11.1199C7.6558 11.2139 7.72756 11.2903 7.81916 11.2994C7.69424 11.4277 7.58217 11.7105 7.82572 12.0317C8.09189 12.3829 8.72619 12.3546 9.03201 12.3659C9.22592 12.3731 9.37178 12.4735 9.45276 12.5461C9.401 12.578 9.36615 12.6347 9.36615 12.7C9.36615 12.7915 9.43424 12.8664 9.5224 12.8787C9.55444 12.93 9.61088 12.9643 9.67576 12.9643C9.74826 12.9643 9.81033 12.9215 9.83936 12.8599C9.93506 12.9388 10.0005 12.9719 10.0005 12.9719C10.0005 12.9719 10.0659 12.9388 10.1616 12.8599C10.1906 12.9214 10.2527 12.9643 10.3252 12.9643C10.3901 12.9643 10.4465 12.93 10.4786 12.8787C10.5667 12.8665 10.6348 12.7915 10.6348 12.7C10.6348 12.6347 10.6 12.578 10.5482 12.5461C10.6292 12.4735 10.775 12.3731 10.969 12.3659C11.2748 12.3546 11.9091 12.3829 12.1753 12.0317C12.4188 11.7105 12.3067 11.4276 12.1818 11.2994C12.2733 11.2902 12.345 11.2139 12.345 11.1199Z" fill="#DCBE82"/>
        <path d="M8.36914 8.79212V11.42C8.36914 11.7203 8.61254 11.9637 8.91285 11.9637H9.63777C9.90961 11.9637 10.0002 12.1449 10.0002 12.1449C10.0002 12.1449 10.0908 11.9637 10.3627 11.9637H11.0876C11.3879 11.9637 11.6313 11.7203 11.6313 11.42V8.79212C11.6313 8.74209 11.5908 8.70154 11.5407 8.70154H8.45984C8.40969 8.70146 8.36914 8.74209 8.36914 8.79212Z" fill="#D2AA73"/>
        <path d="M9.90902 8.88293H8.5498V10.2422H9.90902V8.88293Z" fill="#FF4B55"/>
        <path d="M9.90805 11.7824C9.15734 11.7824 8.54883 11.1739 8.54883 10.4232H9.90805V11.7824Z" fill="#FF4B55"/>
        <path d="M10.0898 11.7824V10.4232H11.4491C11.449 11.1739 10.8405 11.7824 10.0898 11.7824Z" fill="#FFE15A"/>
        <path d="M10.285 8.88293H10.0908V10.2422H10.285V8.88293Z" fill="#FFE15A"/>
        <path d="M10.4793 8.88293H10.2852V10.2422H10.4793V8.88293Z" fill="#FF4B55"/>
        <path d="M10.6737 8.88293H10.4795V10.2422H10.6737V8.88293Z" fill="#FFE15A"/>
        <path d="M10.867 8.88293H10.6729V10.2422H10.867V8.88293Z" fill="#FF4B55"/>
        <path d="M11.0623 8.88293H10.8682V10.2422H11.0623V8.88293Z" fill="#FFE15A"/>
        <path d="M11.451 8.88293H11.2568V10.2422H11.451V8.88293Z" fill="#FFE15A"/>
        <path d="M11.2567 8.88293H11.0625V10.2422H11.2567V8.88293Z" fill="#FF4B55"/>
        <path d="M9.15395 10.4236H9.00293V11.7828H9.15395V10.4236Z" fill="#FF4B55"/>
        <path d="M9.30531 10.4233H9.1543V11.7826H9.30531V10.4233Z" fill="#FFE15A"/>
        <path d="M9.60707 10.4233H9.45605V11.7826H9.60707V10.4233Z" fill="#FFE15A"/>
        <path d="M9.4557 10.4233H9.30469V11.7826H9.4557V10.4233Z" fill="#FF4B55"/>
        <path d="M9.90883 10.4233H9.75781V11.7826H9.90883V10.4233Z" fill="#FFE15A"/>
        <path d="M9.75941 10.4233H9.6084V11.7826H9.75941V10.4233Z" fill="#FF4B55"/>
        <path d="M8.7018 11.7133V10.4232H8.55078V11.42C8.55074 11.541 8.61063 11.6475 8.7018 11.7133Z" fill="#FFE15A"/>
        <path d="M8.85121 11.7764V10.4232H8.7002V11.7133C8.74422 11.7451 8.79539 11.767 8.85121 11.7764Z" fill="#FF4B55"/>
        <path d="M8.85254 10.4232V11.7764C8.87227 11.7797 8.89223 11.7825 8.91297 11.7825H9.00356V10.4233L8.85254 10.4232Z" fill="#FFE15A"/>
        <path d="M8.75293 10.1647C8.74617 10.1647 8.73934 10.1628 8.73328 10.1588C8.64418 10.0999 8.63899 10.0384 8.64383 10.0071C8.65036 9.96475 8.68184 9.92964 8.72403 9.91756C8.76418 9.90627 8.80426 9.91811 8.83129 9.94956C8.88754 10.015 8.94562 10.0407 8.99453 10.0226C9.03324 10.0083 9.05633 9.97011 9.05633 9.94159C9.05633 9.92186 9.07226 9.90588 9.09203 9.90588C9.11179 9.90588 9.12773 9.92182 9.12773 9.94159C9.12773 10.004 9.08219 10.0662 9.01937 10.0895C8.97348 10.1065 8.88117 10.1169 8.77719 9.99612C8.76602 9.98323 8.75289 9.98362 8.7436 9.9862C8.73094 9.98983 8.71692 10.0011 8.71434 10.0179C8.71055 10.0425 8.7318 10.0721 8.77262 10.0992C8.7891 10.1101 8.79356 10.1323 8.7827 10.1487C8.77586 10.1591 8.76449 10.1647 8.75293 10.1647Z" fill="#F5F5F5"/>
        <path d="M9.71075 10.1648C9.69918 10.1648 9.68782 10.1591 9.68098 10.1488C9.67012 10.1323 9.67461 10.1102 9.69106 10.0993C9.73188 10.0723 9.75313 10.0426 9.74934 10.018C9.74672 10.0012 9.73274 9.98995 9.72008 9.98632C9.71079 9.98374 9.69762 9.98331 9.68649 9.99624C9.5825 10.1171 9.49016 10.1067 9.4443 10.0896C9.38148 10.0664 9.33594 10.0041 9.33594 9.94171C9.33594 9.92198 9.35188 9.90601 9.37164 9.90601C9.39137 9.90601 9.40734 9.92194 9.40734 9.94171C9.40734 9.97022 9.43043 10.0083 9.46914 10.0227C9.51805 10.0409 9.57617 10.0151 9.63239 9.94968C9.65946 9.91808 9.69954 9.90632 9.73965 9.91769C9.78184 9.92976 9.81336 9.96487 9.81985 10.0072C9.82469 10.0385 9.8195 10.1 9.73039 10.1589C9.72434 10.1628 9.7175 10.1648 9.71075 10.1648Z" fill="#F5F5F5"/>
        <path d="M8.73295 10.2071C8.72541 10.2071 8.71783 10.2047 8.71135 10.1998C8.69564 10.1878 8.69263 10.1655 8.70455 10.1498L9.48049 9.12952C9.48791 9.11613 9.49072 9.09757 9.49392 9.0762C9.4999 9.03613 9.5074 8.98624 9.56857 8.94945C9.60845 8.92554 9.65576 8.92621 9.69533 8.95148C9.739 8.97937 9.76474 9.03132 9.75943 9.08074C9.75623 9.11077 9.73869 9.16558 9.6574 9.1957C9.63881 9.20261 9.61834 9.19308 9.61154 9.17468C9.6047 9.1562 9.61412 9.13562 9.63256 9.12882C9.65627 9.12003 9.68521 9.10324 9.68842 9.07316C9.69088 9.05035 9.67791 9.02515 9.65685 9.01163C9.6451 9.0041 9.62662 8.99765 9.60533 9.01066C9.57295 9.03011 9.56974 9.05144 9.56443 9.08679C9.56068 9.11183 9.55642 9.14019 9.5397 9.16906L8.76131 10.193C8.75443 10.2021 8.74373 10.2071 8.73295 10.2071Z" fill="#FFE15A"/>
        <path d="M9.23484 9.08472L8.87793 9.51304L9.02066 9.9414H9.44902L9.59184 9.51304L9.23484 9.08472Z" fill="#FFE15A"/>
        <path d="M9.235 9.0293L8.83789 9.50582L8.99508 9.97746H9.47484L9.63203 9.50582L9.235 9.0293ZM8.9182 9.52102L9.19934 9.18367V9.90605H9.04656L8.9182 9.52102ZM9.42348 9.90605H9.2707V9.18367L9.55184 9.52102L9.42348 9.90605Z" fill="#F5F5F5"/>
        <path d="M11.1161 10.8525L11.1215 10.7733C11.1215 10.7733 11.1918 10.7229 11.1575 10.6761C11.1233 10.6293 11.0837 10.6203 11.0009 10.6311C10.9181 10.6419 10.7885 10.6401 10.7327 10.6437C10.6769 10.6473 10.6481 10.6778 10.5599 10.6527L10.5833 10.5987C10.5833 10.5987 10.5419 10.6023 10.5167 10.6149C10.5029 10.6218 10.4699 10.5771 10.4375 10.5843C10.4052 10.5914 10.3727 10.6581 10.3223 10.6923L10.3493 10.7463C10.3493 10.7463 10.3798 10.7319 10.4033 10.7481C10.4267 10.7643 10.4339 10.7751 10.4735 10.7751L10.4988 10.7859C10.4988 10.7859 10.4897 10.8435 10.5275 10.8705C10.5275 10.8705 10.4843 10.9264 10.4897 10.9353C10.4951 10.9444 10.5311 11.0128 10.5455 11.0523L10.578 10.9911C10.578 10.9911 10.5293 10.9479 10.5384 10.9425C10.5474 10.9371 10.5797 10.9299 10.5743 10.9155C10.5689 10.9011 10.5996 10.9173 10.6338 10.9227C10.6338 10.9227 10.6355 10.9767 10.6428 10.9839C10.65 10.9911 10.6608 11.0199 10.659 11.0505C10.6572 11.0811 10.6302 11.0901 10.6302 11.0901L10.6788 11.1045C10.6788 11.1045 10.6914 11.0865 10.7004 11.0883C10.7004 11.0883 10.6968 10.9389 10.7166 10.9155C10.7166 10.9155 10.8336 10.9389 10.8876 10.9101C10.8876 10.9101 10.8945 10.9188 10.908 10.9271C10.9026 10.9396 10.8981 10.9521 10.9001 10.9558C10.9046 10.964 10.9191 10.963 10.9227 10.954C10.924 10.9506 10.9261 10.9436 10.9282 10.9364C10.9348 10.9385 10.9419 10.9402 10.9501 10.941C10.9493 10.9524 10.9492 10.9629 10.9518 10.9653C10.9586 10.9716 10.9721 10.9662 10.9727 10.9565C10.973 10.9534 10.9728 10.9474 10.9727 10.941C10.982 10.9402 10.9919 10.9385 11.0028 10.9353L10.9416 11.0361L10.911 11.0487L10.9506 11.0685L10.9866 11.0541C10.9866 11.0541 11.0208 10.9677 11.0766 10.9425C11.0766 10.9425 11.1144 11.0325 11.0676 11.0811L11.109 11.1045L11.1288 11.0632C11.1288 11.0632 11.1216 10.9822 11.1486 10.93L11.1161 10.8525Z" fill="#FF4B55"/>
        <path d="M10.4382 10.5952C10.4382 10.5952 10.4201 10.578 10.4156 10.5554C10.4111 10.5329 10.4056 10.5229 10.3857 10.5166C10.3857 10.5166 10.3984 10.5311 10.3966 10.5536C10.3948 10.5762 10.3966 10.607 10.4092 10.6169L10.4382 10.5952Z" fill="#4173CD"/>
        <path d="M10.5956 10.6589C10.5956 10.6589 10.5711 10.7424 10.4989 10.7858L10.4736 10.775C10.4736 10.775 10.5507 10.7091 10.56 10.6526L10.5956 10.6589Z" fill="#4173CD"/>
        <path d="M10.4718 10.615C10.4692 10.6123 10.5035 10.6024 10.4953 10.5752C10.4871 10.5481 10.4871 10.5282 10.5035 10.5156C10.5035 10.5156 10.5053 10.5382 10.5179 10.5527C10.5305 10.5671 10.5378 10.6032 10.517 10.624C10.5171 10.624 10.4962 10.6403 10.4718 10.615Z" fill="#4173CD"/>
        <path d="M10.4766 10.8614C10.4723 10.8593 10.4704 10.854 10.4726 10.8497L10.4835 10.8275C10.4898 10.8145 10.4856 10.7984 10.4731 10.7911C10.4593 10.7832 10.442 10.7887 10.4351 10.8027L10.4237 10.8257C10.4216 10.83 10.4164 10.8319 10.4121 10.8297L10.4053 10.8436C10.4053 10.8436 10.4153 10.8485 10.4274 10.8544L10.4271 10.8549C10.4243 10.8605 10.4267 10.8673 10.4323 10.87C10.4378 10.8728 10.4446 10.8705 10.4474 10.8649L10.4477 10.8644C10.4598 10.8703 10.4698 10.8752 10.4698 10.8752L10.4766 10.8614Z" fill="#4173CD"/>
        <path d="M10.5633 11.0135L10.5904 11.019L10.5678 11.0886L10.5449 11.0523L10.5633 11.0135Z" fill="#4173CD"/>
        <path d="M10.6298 11.09L10.6133 11.1192H10.6783L10.6784 11.1044L10.6298 11.09Z" fill="#4173CD"/>
        <path d="M10.9498 11.0685V11.0858H10.876L10.9117 11.0502L10.9498 11.0685Z" fill="#4173CD"/>
        <path d="M11.0677 11.0809L11.0312 11.1174H11.108L11.1091 11.1043L11.0677 11.0809Z" fill="#4173CD"/>
        <path d="M11.1161 11.4163L11.1215 11.3371C11.1215 11.3371 11.1918 11.2867 11.1575 11.2399C11.1233 11.1931 11.0837 11.1841 11.0009 11.1949C10.9181 11.2057 10.7885 11.204 10.7327 11.2075C10.6769 11.2111 10.6481 11.2417 10.5599 11.2165L10.5833 11.1625C10.5833 11.1625 10.5419 11.1661 10.5167 11.1787C10.5029 11.1856 10.4699 11.1409 10.4375 11.1481C10.4052 11.1553 10.3727 11.2219 10.3223 11.2561L10.3493 11.3102C10.3493 11.3102 10.3798 11.2958 10.4033 11.312C10.4267 11.3282 10.4339 11.339 10.4735 11.339L10.4988 11.3498C10.4988 11.3498 10.4897 11.4074 10.5275 11.4344C10.5275 11.4344 10.4843 11.4902 10.4897 11.4992C10.4951 11.5082 10.5311 11.5766 10.5455 11.6161L10.578 11.5549C10.578 11.5549 10.5293 11.5117 10.5384 11.5063C10.5474 11.5009 10.5797 11.4937 10.5743 11.4793C10.5689 11.4649 10.5996 11.4811 10.6338 11.4865C10.6338 11.4865 10.6355 11.5405 10.6428 11.5477C10.65 11.5549 10.6608 11.5837 10.659 11.6143C10.6572 11.6449 10.6302 11.6539 10.6302 11.6539L10.6788 11.6683C10.6788 11.6683 10.6914 11.6503 10.7004 11.6521C10.7004 11.6521 10.6968 11.5027 10.7166 11.4793C10.7166 11.4793 10.8336 11.5027 10.8876 11.4739C10.8876 11.4739 10.8945 11.4826 10.908 11.4909C10.9026 11.5034 10.8981 11.5159 10.9001 11.5196C10.9046 11.5278 10.9191 11.5268 10.9227 11.5178C10.924 11.5144 10.9261 11.5074 10.9282 11.5002C10.9348 11.5024 10.9419 11.504 10.9501 11.5049C10.9493 11.5162 10.9492 11.5267 10.9518 11.5291C10.9586 11.5354 10.9721 11.53 10.9727 11.5203C10.973 11.5172 10.9728 11.5112 10.9727 11.5048C10.982 11.504 10.9919 11.5024 11.0028 11.4991L10.9416 11.5999L10.911 11.6125L10.9506 11.6323L10.9866 11.6179C10.9866 11.6179 11.0208 11.5315 11.0766 11.5063C11.0766 11.5063 11.1144 11.5963 11.0676 11.6449L11.109 11.6683L11.1288 11.627C11.1288 11.627 11.1216 11.546 11.1486 11.4938L11.1161 11.4163Z" fill="#FF4B55"/>
        <path d="M10.4382 11.1591C10.4382 11.1591 10.4201 11.142 10.4156 11.1194C10.4111 11.0968 10.4056 11.0869 10.3857 11.0806C10.3857 11.0806 10.3984 11.095 10.3966 11.1176C10.3948 11.1402 10.3966 11.1709 10.4092 11.1808L10.4382 11.1591Z" fill="#4173CD"/>
        <path d="M10.5956 11.2228C10.5956 11.2228 10.5711 11.3064 10.4989 11.3498L10.4736 11.339C10.4736 11.339 10.5507 11.2731 10.56 11.2166L10.5956 11.2228Z" fill="#4173CD"/>
        <path d="M10.4718 11.179C10.4692 11.1763 10.5035 11.1663 10.4953 11.1392C10.4871 11.1121 10.4871 11.0922 10.5035 11.0796C10.5035 11.0796 10.5053 11.1022 10.5179 11.1166C10.5306 11.1311 10.5378 11.1672 10.517 11.188C10.5171 11.188 10.4962 11.2043 10.4718 11.179Z" fill="#4173CD"/>
        <path d="M10.4766 11.4254C10.4723 11.4233 10.4704 11.418 10.4726 11.4137L10.4835 11.3915C10.4898 11.3785 10.4856 11.3623 10.4731 11.3551C10.4593 11.3472 10.442 11.3526 10.4351 11.3667L10.4237 11.3897C10.4216 11.394 10.4164 11.3958 10.4121 11.3937L10.4053 11.4075C10.4053 11.4075 10.4153 11.4124 10.4274 11.4184L10.4271 11.4189C10.4243 11.4245 10.4267 11.4313 10.4323 11.434C10.4378 11.4368 10.4446 11.4344 10.4474 11.4289L10.4477 11.4283C10.4598 11.4343 10.4698 11.4392 10.4698 11.4392L10.4766 11.4254Z" fill="#4173CD"/>
        <path d="M10.5633 11.5775L10.5904 11.5829L10.5678 11.6525L10.5449 11.6162L10.5633 11.5775Z" fill="#4173CD"/>
        <path d="M10.6298 11.6541L10.6133 11.6833H10.6783L10.6784 11.6685L10.6298 11.6541Z" fill="#4173CD"/>
        <path d="M10.9498 11.6325V11.6498H10.876L10.9117 11.6141L10.9498 11.6325Z" fill="#4173CD"/>
        <path d="M11.0677 11.6449L11.0312 11.6814H11.108L11.1091 11.6683L11.0677 11.6449Z" fill="#4173CD"/>
    </g>
    <defs>
        <clipPath id="clip0">
            <rect width="20" height="20" fill="white"/>
        </clipPath>
    </defs>
</svg>
