<svg width="17" height="21" viewBox="0 0 17 21" fill="none" xmlns="http://www.w3.org/2000/svg">
    <path d="M9.84921 17.0625C9.84921 16.3652 9.21677 15.75 8.5 15.75C7.74107 15.75 7.15079 16.2012 7.15079 17.0625C7.15079 17.8008 7.74107 18.375 8.5 18.375C9.21677 18.375 9.84921 17.8008 9.84921 17.0625ZM17 1.96875C17 0.902344 16.0724 0 14.9762 0H2.02381C0.885417 0 0 0.902344 0 1.96875V19.0312C0 20.1387 0.885417 21 2.02381 21H14.9762C16.0724 21 17 20.1387 17 19.0312V1.96875ZM14.9762 18.7852C14.9762 18.9492 14.8497 19.0312 14.7232 19.0312H2.27679C2.10813 19.0312 2.02381 18.9492 2.02381 18.7852V2.21484C2.02381 2.0918 2.10813 1.96875 2.27679 1.96875H14.7232C14.8497 1.96875 14.9762 2.0918 14.9762 2.21484V18.7852Z" fill="black" fill-opacity="0.6"/>
</svg>
