<svg width="28" height="28" viewBox="0 0 28 28" fill="none" xmlns="http://www.w3.org/2000/svg">
    <circle cx="14" cy="14" r="14" fill="#434753"/>
    <path d="M18.8125 12.875H14.875V8.9375C14.875 8.71875 14.6562 8.5 14.4375 8.5H13.5625C13.3164 8.5 13.125 8.71875 13.125 8.9375V12.875H9.1875C8.94141 12.875 8.75 13.0938 8.75 13.3125V14.1875C8.75 14.4336 8.94141 14.625 9.1875 14.625H13.125V18.5625C13.125 18.8086 13.3164 19 13.5625 19H14.4375C14.6562 19 14.875 18.8086 14.875 18.5625V14.625H18.8125C19.0312 14.625 19.25 14.4336 19.25 14.1875V13.3125C19.25 13.0938 19.0312 12.875 18.8125 12.875Z" fill="white" fill-opacity="0.6"/>
</svg>
