<svg width="36" height="36" viewBox="0 0 36 36" fill="none" xmlns="http://www.w3.org/2000/svg">
    <circle cx="18" cy="18" r="18" fill="#434753"/>
    <path d="M18.001 16.7412C19.915 16.7412 21.501 15.1826 21.501 13.2412C21.501 11.3271 19.915 9.74121 18.001 9.74121C16.0596 9.74121 14.501 11.3271 14.501 13.2412C14.501 15.1826 16.0596 16.7412 18.001 16.7412ZM20.4346 17.6162H19.9697C19.3682 17.917 18.7119 18.0537 18.001 18.0537C17.29 18.0537 16.6064 17.917 16.0049 17.6162H15.54C13.5166 17.6162 11.876 19.2842 11.876 21.3076V22.4287C11.876 23.167 12.4502 23.7412 13.1885 23.7412H22.8135C23.5244 23.7412 24.126 23.167 24.126 22.4287V21.3076C24.126 19.2842 22.458 17.6162 20.4346 17.6162Z" fill="white" fillOpacity="0.6"/>
</svg>
