<svg width="24" height="24" viewBox="0 0 24 24" fill="none" xmlns="http://www.w3.org/2000/svg">
    <path d="M12 24C18.6274 24 24 18.6274 24 12C24 5.37258 18.6274 0 12 0C5.37258 0 0 5.37258 0 12C0 18.6274 5.37258 24 12 24Z" fill="#D80027"/>
    <path d="M6.56719 7.30322L7.60312 10.4907H10.9547L8.24531 12.4642L9.28125 15.6517L6.56719 13.6829L3.85313 15.6517L4.89375 12.4642L2.17969 10.4907H5.53125L6.56719 7.30322Z" fill="#FFDA44"/>
    <path d="M14.2274 18.586L13.4352 17.611L12.2634 18.0657L12.9431 17.011L12.1509 16.0313L13.3649 16.3547L14.0493 15.3L14.1149 16.5563L15.3337 16.8797L14.1571 17.3297L14.2274 18.586Z" fill="#FFDA44"/>
    <path d="M15.8024 15.7266L16.1774 14.5266L15.1509 13.8L16.4071 13.7813L16.7774 12.5813L17.1853 13.7719L18.4415 13.7579L17.4337 14.5079L17.8368 15.6985L16.8103 14.9719L15.8024 15.7266Z" fill="#FFDA44"/>
    <path d="M17.9241 8.80796L17.371 9.93765L18.271 10.8142L17.0288 10.6361L16.4757 11.7611L16.2601 10.5236L15.0132 10.3455L16.1288 9.75952L15.9132 8.51733L16.8132 9.3939L17.9241 8.80796Z" fill="#FFDA44"/>
    <path d="M14.2606 5.38599L14.1669 6.63755L15.3341 7.11099L14.1106 7.41099L14.0216 8.66724L13.3606 7.59849L12.1372 7.89849L12.9481 6.93755L12.2825 5.87349L13.4497 6.34692L14.2606 5.38599Z" fill="#FFDA44"/>
</svg>
