<svg width="36" height="36" viewBox="0 0 36 36" fill="none" xmlns="http://www.w3.org/2000/svg">
    <path d="M18 15.7812C16.9062 15.7812 16.0312 16.6836 16.0312 17.75C16.0312 18.8438 16.9062 19.7188 18 19.7188C19.0664 19.7188 19.9688 18.8438 19.9688 17.75C19.9688 16.6836 19.0664 15.7812 18 15.7812ZM16.0312 12.9375C16.0312 14.0312 16.9062 14.9062 18 14.9062C19.0664 14.9062 19.9688 14.0312 19.9688 12.9375C19.9688 11.8711 19.0664 10.9688 18 10.9688C16.9062 10.9688 16.0312 11.8711 16.0312 12.9375ZM16.0312 22.5625C16.0312 23.6562 16.9062 24.5312 18 24.5312C19.0664 24.5312 19.9688 23.6562 19.9688 22.5625C19.9688 21.4961 19.0664 20.5938 18 20.5938C16.9062 20.5938 16.0312 21.4961 16.0312 22.5625Z" fill="white" fill-opacity="0.6"/>
</svg>
