<svg width="18" height="15" viewBox="0 0 18 15" fill="none" xmlns="http://www.w3.org/2000/svg">
    <path d="M14.9609 6.13672C15.125 6.38281 15.4258 6.49219 15.7266 6.41016C16.1094 6.27344 16.3555 6.16406 16.6562 5.91797C16.9023 5.72656 16.957 5.37109 16.793 5.09766L16.7383 4.96094C16.793 4.87891 16.8477 4.76953 16.9023 4.6875H17.0391C17.3398 4.6875 17.6133 4.44141 17.6953 4.14062C17.75 3.75781 17.75 3.45703 17.6953 3.10156C17.6133 2.77344 17.3672 2.55469 17.0391 2.55469H16.9023C16.8477 2.44531 16.793 2.36328 16.7383 2.25391L16.793 2.14453C16.957 1.87109 16.9023 1.51562 16.6562 1.32422C16.3555 1.05078 16.1094 0.914062 15.7539 0.804688C15.4531 0.695312 15.125 0.804688 14.9609 1.07812L14.9062 1.21484C14.7969 1.1875 14.6875 1.1875 14.5508 1.21484L14.4961 1.07812C14.332 0.804688 14.0039 0.695312 13.7031 0.804688C13.3477 0.914062 13.0742 1.07812 12.8008 1.32422C12.5547 1.51562 12.5 1.87109 12.6641 2.14453L12.7188 2.25391C12.6641 2.36328 12.6094 2.44531 12.5547 2.55469H12.3086C12.0078 2.55469 11.7344 2.77344 11.6797 3.10156C11.5977 3.48438 11.5977 3.75781 11.6523 4.14062C11.7344 4.44141 11.9805 4.6875 12.3086 4.6875H12.5547C12.6094 4.76953 12.6641 4.87891 12.7188 4.96094L12.6641 5.09766C12.5 5.37109 12.5547 5.72656 12.8008 5.91797C13.1016 6.16406 13.375 6.30078 13.7305 6.41016C14.0312 6.49219 14.332 6.38281 14.4961 6.13672L14.5508 6.02734C14.6875 6.02734 14.7969 6.02734 14.9062 6.02734L14.9609 6.13672ZM15.2891 5.17969L15.043 5.23438C14.8242 5.28906 14.6328 5.28906 14.4414 5.23438L14.168 5.17969L13.8672 5.69922C13.7031 5.61719 13.5117 5.50781 13.375 5.39844L13.6484 4.87891L13.4844 4.6875C13.3477 4.52344 13.2383 4.35938 13.1836 4.16797L13.0742 3.92188H12.5C12.4727 3.70312 12.4727 3.51172 12.5 3.32031H13.0742L13.1836 3.07422C13.2383 2.88281 13.3477 2.69141 13.4844 2.55469L13.6484 2.33594L13.375 1.84375C13.5117 1.70703 13.7031 1.625 13.8672 1.54297L14.168 2.03516L14.4141 2.00781C14.6328 1.95312 14.8242 1.95312 15.043 2.00781L15.2891 2.03516L15.5898 1.54297C15.7812 1.625 15.9453 1.70703 16.1094 1.84375L15.8086 2.33594L15.9727 2.55469C16.1094 2.69141 16.2188 2.88281 16.2734 3.07422L16.3828 3.32031H16.957C16.9844 3.51172 16.9844 3.73047 16.957 3.92188H16.3828L16.2734 4.16797C16.2188 4.35938 16.1094 4.52344 15.9727 4.6875L15.8086 4.90625L16.1094 5.39844C15.9453 5.50781 15.7812 5.61719 15.5898 5.69922L15.2891 5.17969ZM4.21484 13.1914C4.21484 13.4922 4.43359 13.7656 4.70703 13.8203C5.71875 14.0664 6.48438 14.0664 7.49609 13.8203C7.79688 13.7656 8.01562 13.4922 8.01562 13.1914V12.3164C8.37109 12.1797 8.69922 11.9883 9.02734 11.7422L9.76562 12.1797C10.0391 12.3438 10.3672 12.2891 10.5859 12.0703C11.2148 11.3867 11.9258 10.4844 12.1172 9.63672C12.1719 9.36328 12.0352 9.0625 11.8164 8.92578L11.0508 8.46094C11.0781 8.07812 11.0781 7.66797 11.0508 7.28516L11.7344 6.875C11.9805 6.71094 12.0898 6.38281 12.0078 6.10938C11.707 5.20703 11.3242 4.49609 10.5859 3.67578C10.3672 3.45703 10.0391 3.40234 9.76562 3.56641L9.02734 4.00391C8.69922 3.75781 8.37109 3.56641 8.01562 3.42969V2.55469C8.01562 2.25391 7.79688 1.98047 7.49609 1.92578C6.42969 1.67969 5.66406 1.70703 4.73438 1.92578C4.43359 1.98047 4.21484 2.25391 4.21484 2.55469V3.42969C3.85938 3.56641 3.53125 3.75781 3.20312 4.00391L2.46484 3.56641C2.19141 3.40234 1.86328 3.45703 1.64453 3.67578C0.988281 4.41406 0.605469 5.04297 0.277344 6.10938C0.167969 6.38281 0.304688 6.71094 0.550781 6.875L1.31641 7.28516C1.26172 7.66797 1.26172 8.05078 1.31641 8.43359L0.550781 8.87109C0.304688 9.03516 0.167969 9.36328 0.277344 9.63672C0.605469 10.7031 0.988281 11.332 1.64453 12.043C1.86328 12.2891 2.19141 12.3438 2.46484 12.1797L3.20312 11.7422C3.53125 11.9883 3.85938 12.1797 4.21484 12.3164V13.1914ZM5.08984 13.0273V11.7148L4.78906 11.6055C4.32422 11.4414 3.91406 11.1953 3.53125 10.8945L3.3125 10.6758L2.16406 11.332C1.69922 10.8125 1.37109 10.2109 1.15234 9.55469L2.27344 8.89844L2.21875 8.59766C2.13672 8.10547 2.13672 7.64062 2.21875 7.14844L2.27344 6.84766L1.15234 6.19141C1.31641 5.64453 1.78125 4.85156 2.16406 4.41406L3.3125 5.07031L3.53125 4.85156C3.91406 4.55078 4.32422 4.30469 4.78906 4.14062L5.08984 4.03125V2.71875C5.77344 2.58203 6.45703 2.58203 7.14062 2.71875V4.03125L7.44141 4.14062C7.90625 4.30469 8.31641 4.52344 8.69922 4.85156L8.91797 5.07031L10.0664 4.41406C10.5312 4.93359 10.9961 5.53516 11.2148 6.19141L10.0664 6.84766L10.1484 7.14844C10.2305 7.61328 10.2305 8.10547 10.1484 8.59766L10.0664 8.89844L11.2148 9.55469C10.9961 10.2109 10.5312 10.8125 10.0664 11.332L8.91797 10.6758L8.69922 10.8945C8.31641 11.1953 7.90625 11.4414 7.44141 11.6055L7.14062 11.7148V13.0273C6.45703 13.1641 5.77344 13.1641 5.08984 13.0273ZM6.12891 10.1289C7.38672 10.1289 8.39844 9.11719 8.39844 7.85938C8.39844 6.62891 7.38672 5.61719 6.12891 5.61719C4.89844 5.61719 3.85938 6.62891 3.85938 7.85938C3.85938 9.11719 4.89844 10.1289 6.12891 10.1289ZM6.12891 6.49219C6.89453 6.49219 7.52344 7.09375 7.52344 7.85938C7.52344 8.65234 6.89453 9.25391 6.12891 9.25391C5.36328 9.25391 4.73438 8.65234 4.73438 7.85938C4.73438 7.09375 5.36328 6.49219 6.12891 6.49219ZM14.9609 14.4492C15.125 14.6953 15.4258 14.832 15.7266 14.7227C16.1094 14.6133 16.3555 14.4766 16.6562 14.2305C16.9023 14.0391 16.957 13.6836 16.793 13.4102L16.7383 13.3008C16.793 13.1914 16.8477 13.1094 16.9023 13H17.0391C17.3398 13 17.6133 12.7812 17.6953 12.4805C17.75 12.0703 17.75 11.7969 17.6953 11.4141C17.6133 11.1133 17.3672 10.8672 17.0391 10.8672H16.9023C16.8477 10.7852 16.793 10.6758 16.7383 10.5938L16.793 10.457C16.957 10.1836 16.9023 9.85547 16.6562 9.63672C16.3555 9.39062 16.1094 9.25391 15.7539 9.11719C15.4531 9.00781 15.125 9.14453 14.9609 9.41797L14.9062 9.52734C14.7969 9.52734 14.6875 9.52734 14.5508 9.52734L14.4961 9.41797C14.332 9.14453 14.0039 9.00781 13.7031 9.11719C13.3477 9.25391 13.0742 9.39062 12.8008 9.63672C12.5547 9.85547 12.5 10.1836 12.6641 10.457L12.7188 10.5938C12.6641 10.6758 12.6094 10.7852 12.5547 10.8672H12.3086C12.0078 10.8672 11.7344 11.1133 11.6797 11.4141C11.5977 11.7969 11.5977 12.0977 11.6523 12.4531C11.7344 12.7812 11.9805 13 12.3086 13H12.5547C12.6094 13.1094 12.6641 13.1914 12.7188 13.3008L12.6641 13.4102C12.5 13.6836 12.5547 14.0391 12.8008 14.2305C13.1016 14.5039 13.375 14.6133 13.7305 14.7227C14.0312 14.832 14.332 14.7227 14.4961 14.4492L14.5508 14.3398C14.6875 14.3672 14.7969 14.3672 14.9062 14.3398L14.9609 14.4492ZM15.2891 13.5195L15.043 13.5469C14.8242 13.6016 14.6328 13.6016 14.4414 13.5469L14.168 13.5195L13.8672 14.0117C13.7031 13.9297 13.5117 13.8477 13.375 13.7109L13.6484 13.2188L13.4844 13C13.3477 12.8633 13.2383 12.6719 13.1836 12.4805L13.0742 12.2344H12.5C12.4727 12.043 12.4727 11.8516 12.5 11.6328H13.0742L13.1836 11.3867C13.2383 11.1953 13.3477 11.0312 13.4844 10.8672L13.6484 10.6758L13.375 10.1562C13.5117 10.0469 13.7031 9.9375 13.8672 9.85547L14.168 10.375L14.4414 10.3203C14.6328 10.293 14.8242 10.293 15.043 10.3203L15.2891 10.375L15.5898 9.85547C15.7812 9.9375 15.9453 10.0469 16.1094 10.1562L15.8086 10.6758L15.9727 10.8672C16.1094 11.0312 16.2188 11.1953 16.2734 11.3867L16.3828 11.6328H16.957C16.9844 11.8516 16.9844 12.043 16.957 12.2344H16.3828L16.2734 12.4805C16.2188 12.6719 16.1094 12.8633 15.9727 13L15.8086 13.2188L16.1094 13.7109C15.9453 13.8477 15.7812 13.9297 15.5898 14.0117L15.2891 13.5195ZM15.5625 11.9062C15.5625 11.4414 15.1523 11.0312 14.6875 11.0312C14.1953 11.0312 13.8125 11.4414 13.8125 11.9062C13.8125 12.3984 14.1953 12.7812 14.6875 12.7812C15.1523 12.7812 15.5625 12.3984 15.5625 11.9062ZM15.5625 3.59375C15.5625 3.10156 15.1523 2.71875 14.6875 2.71875C14.1953 2.71875 13.8125 3.10156 13.8125 3.59375C13.8125 4.08594 14.1953 4.46875 14.6875 4.46875C15.1523 4.46875 15.5625 4.08594 15.5625 3.59375Z" fill="white" fill-opacity="0.6"/>
</svg>
