<svg width="14" height="15" viewBox="0 0 14 15" fill="none" xmlns="http://www.w3.org/2000/svg">
    <path d="M12.5024 6.73047L13.3774 6.23828C13.6235 6.10156 13.7603 5.80078 13.6782 5.5C13.3774 4.35156 12.7485 3.3125 11.9282 2.46484C11.7095 2.27344 11.3813 2.21875 11.1353 2.35547L10.2603 2.875C10.0415 2.71094 9.63135 2.46484 9.35791 2.35547V1.34375C9.35791 1.07031 9.13916 0.769531 8.86572 0.714844C7.74463 0.414062 6.51416 0.414062 5.39307 0.714844C5.09229 0.796875 4.90088 1.04297 4.90088 1.34375V2.35547C4.62744 2.46484 4.21729 2.71094 3.99854 2.875L3.12354 2.35547C2.87744 2.21875 2.54932 2.27344 2.33057 2.46484C1.51025 3.3125 0.881348 4.35156 0.580566 5.5C0.498535 5.80078 0.635254 6.10156 0.881348 6.23828L1.75635 6.73047C1.729 6.89453 1.729 7.11328 1.729 7.25C1.729 7.41406 1.729 7.63281 1.75635 7.76953L0.881348 8.28906C0.635254 8.42578 0.498535 8.72656 0.580566 9.02734C0.881348 10.1758 1.51025 11.2148 2.33057 12.0625C2.54932 12.2539 2.87744 12.3086 3.12354 12.1719L3.99854 11.6523C4.21729 11.8164 4.62744 12.0625 4.90088 12.1719V13.1836C4.90088 13.457 5.11963 13.7578 5.39307 13.8125C6.51416 14.1133 7.74463 14.1133 8.86572 13.8125C9.1665 13.7305 9.35791 13.4844 9.35791 13.1836V12.1719C9.63135 12.0625 10.0415 11.8164 10.2603 11.6523L11.1353 12.1719C11.3813 12.3086 11.7095 12.2539 11.9282 12.0625C12.7485 11.2148 13.3774 10.1758 13.6782 9.02734C13.7603 8.72656 13.6235 8.42578 13.3774 8.28906L12.5024 7.76953C12.5298 7.44141 12.5298 7.08594 12.5024 6.73047ZM11.0532 8.48047L12.2563 9.16406C12.0923 9.65625 11.6548 10.3672 11.3267 10.75L10.1235 10.0664C9.24854 10.8047 9.13916 10.8867 8.04541 11.2695V12.6641C7.79932 12.6914 7.38916 12.7461 7.14307 12.7461C6.86963 12.7461 6.45947 12.6914 6.21338 12.6641V11.2695C5.11963 10.8867 4.98291 10.8047 4.13525 10.0664L2.93213 10.75C2.604 10.3672 2.1665 9.65625 2.00244 9.16406L3.20557 8.48047C2.98682 7.33203 2.98682 7.19531 3.20557 6.04688L2.00244 5.36328C2.22119 4.78906 2.52197 4.24219 2.93213 3.77734L4.13525 4.46094C5.01025 3.72266 5.11963 3.64062 6.21338 3.25781V1.86328C6.45947 1.83594 6.86963 1.78125 7.14307 1.78125C7.38916 1.78125 7.79932 1.83594 8.04541 1.86328V3.25781C9.13916 3.64062 9.27588 3.72266 10.1235 4.46094L11.3267 3.77734C11.6548 4.16016 12.0923 4.87109 12.2563 5.36328L11.0532 6.04688C11.272 7.19531 11.272 7.33203 11.0532 8.48047ZM7.14307 4.625C5.69385 4.625 4.51807 5.82812 4.51807 7.25C4.51807 8.69922 5.69385 9.875 7.14307 9.875C8.56494 9.875 9.76807 8.69922 9.76807 7.25C9.76807 5.82812 8.56494 4.625 7.14307 4.625ZM7.14307 8.5625C6.40479 8.5625 5.83057 7.98828 5.83057 7.25C5.83057 6.53906 6.40479 5.9375 7.14307 5.9375C7.854 5.9375 8.45557 6.53906 8.45557 7.25C8.45557 7.98828 7.854 8.5625 7.14307 8.5625Z" fill="white" fill-opacity="0.6"/>
</svg>
