<svg width="13" height="13" viewBox="0 0 13 13" fill="none" xmlns="http://www.w3.org/2000/svg">
    <path d="M7.58789 8.71143C7.58789 9.37549 7.33887 9.9248 6.84082 10.3594C6.34277 10.7891 5.64697 11.0601 4.75342 11.1724V12.8716H3.80859V11.2383C3.26172 11.2383 2.73193 11.1968 2.21924 11.1138C1.70654 11.0259 1.28662 10.9062 0.959473 10.7549V9.6123C1.36475 9.79297 1.83105 9.94189 2.3584 10.0591C2.89062 10.1714 3.37402 10.2275 3.80859 10.2275V7.00488C2.80762 6.6875 2.10449 6.31885 1.69922 5.89893C1.29883 5.479 1.09863 4.93701 1.09863 4.27295C1.09863 3.6333 1.34521 3.1084 1.83838 2.69824C2.33643 2.28809 2.99316 2.03906 3.80859 1.95117V0.618164H4.75342V1.93652C5.65186 1.96094 6.51855 2.1416 7.35352 2.47852L6.97266 3.43799C6.24512 3.1499 5.50537 2.979 4.75342 2.92529V6.104C5.52002 6.34814 6.09375 6.5874 6.47461 6.82178C6.85547 7.05127 7.13623 7.31738 7.31689 7.62012C7.49756 7.91797 7.58789 8.28174 7.58789 8.71143ZM6.34277 8.80664C6.34277 8.45508 6.23291 8.17188 6.01318 7.95703C5.79834 7.7373 5.37842 7.52002 4.75342 7.30518V10.1543C5.81299 10.0078 6.34277 9.55859 6.34277 8.80664ZM2.33643 4.2583C2.33643 4.62939 2.44629 4.92725 2.66602 5.15186C2.88574 5.37646 3.2666 5.58887 3.80859 5.78906V2.95459C3.3252 3.03271 2.95898 3.18652 2.70996 3.41602C2.46094 3.64062 2.33643 3.92139 2.33643 4.2583Z" fill="white" fill-opacity="0.6"/>
</svg>
