<svg width="24" height="24" viewBox="0 0 24 24" fill="none" xmlns="http://www.w3.org/2000/svg">
    <path d="M12 24C18.6274 24 24 18.6274 24 12C24 5.37258 18.6274 0 12 0C5.37258 0 0 5.37258 0 12C0 18.6274 5.37258 24 12 24Z" fill="#F0F0F0"/>
    <path d="M2.47934 4.69409C1.53673 5.92048 0.825969 7.334 0.412109 8.86958H6.65483L2.47934 4.69409Z" fill="#0052B4"/>
    <path d="M23.5839 8.86954C23.1701 7.334 22.4593 5.92048 21.5167 4.69409L17.3413 8.86954H23.5839Z" fill="#0052B4"/>
    <path d="M0.412109 15.1304C0.826016 16.6659 1.53678 18.0794 2.47934 19.3058L6.65469 15.1304H0.412109Z" fill="#0052B4"/>
    <path d="M19.3029 2.48061C18.0765 1.538 16.663 0.827236 15.1274 0.41333V6.656L19.3029 2.48061Z" fill="#0052B4"/>
    <path d="M4.69189 21.5193C5.91829 22.4619 7.3318 23.1727 8.86733 23.5866V17.344L4.69189 21.5193Z" fill="#0052B4"/>
    <path d="M8.86728 0.41333C7.33175 0.827236 5.91824 1.538 4.69189 2.48056L8.86728 6.65595V0.41333Z" fill="#0052B4"/>
    <path d="M15.1284 23.5866C16.6639 23.1727 18.0775 22.4619 19.3038 21.5194L15.1284 17.344V23.5866Z" fill="#0052B4"/>
    <path d="M17.3413 15.1304L21.5167 19.3058C22.4593 18.0795 23.1701 16.6659 23.5839 15.1304H17.3413Z" fill="#0052B4"/>
    <path d="M23.8984 10.4348H13.5653H13.5653V0.101578C13.0529 0.034875 12.5305 0 12 0C11.4694 0 10.9471 0.034875 10.4348 0.101578V10.4347V10.4347H0.101578C0.034875 10.9471 0 11.4695 0 12C0 12.5306 0.034875 13.0529 0.101578 13.5652H10.4347H10.4347V23.8984C10.9471 23.9651 11.4694 24 12 24C12.5305 24 13.0529 23.9652 13.5652 23.8984V13.5653V13.5653H23.8984C23.9651 13.0529 24 12.5306 24 12C24 11.4695 23.9651 10.9471 23.8984 10.4348Z" fill="#D80027"/>
    <path d="M15.1323 15.1304L20.4871 20.4852C20.7334 20.239 20.9684 19.9817 21.1925 19.7148L16.608 15.1304H15.1323V15.1304Z" fill="#D80027"/>
    <path d="M8.86901 15.1306H8.86892L3.51416 20.4854C3.76035 20.7317 4.01774 20.9666 4.28455 21.1908L8.86901 16.6062V15.1306Z" fill="#D80027"/>
    <path d="M8.86878 8.86961V8.86951L3.51397 3.51465C3.26769 3.76084 3.03275 4.01823 2.80859 4.28504L7.39311 8.86956H8.86878V8.86961Z" fill="#D80027"/>
    <path d="M15.1323 8.86957L20.4872 3.51466C20.241 3.26837 19.9836 3.03344 19.7168 2.80933L15.1323 7.39385V8.86957Z" fill="#D80027"/>
</svg>
