<svg width="24" height="24" viewBox="0 0 24 24" fill="none" xmlns="http://www.w3.org/2000/svg">
    <path d="M0 12.0001C0 13.4679 0.264047 14.874 0.746391 16.174L12 17.2175L23.2536 16.174C23.736 14.874 24 13.4679 24 12.0001C24 10.5322 23.736 9.12618 23.2536 7.8262L12 6.78271L0.746391 7.8262C0.264047 9.12618 0 10.5322 0 12.0001Z" fill="#FFDA44"/>
    <path d="M23.2548 7.82611C21.5593 3.25655 17.1607 0 12.0012 0C6.84159 0 2.44307 3.25655 0.747559 7.82611H23.2548Z" fill="#D80027"/>
    <path d="M0.747559 16.1738C2.44307 20.7434 6.84159 23.9999 12.0012 23.9999C17.1607 23.9999 21.5593 20.7434 23.2548 16.1738H0.747559Z" fill="#D80027"/>
</svg>
