<svg width="164" height="24" viewBox="0 0 164 24" fill="none" xmlns="http://www.w3.org/2000/svg">
    <path d="M37.85 20H42.57C43.05 20 43.31 19.6 43.27 19.1L43.25 18.7C43.23 18.2 42.95 17.94 42.45 17.94H38.41C37.55 17.94 37.25 17.64 37.25 16.78V6.98C37.25 6.48 36.97 6.2 36.47 6.2H35.53C35.01 6.2 34.75 6.48 34.75 6.98V17.2C34.75 18.84 35.53 20 37.85 20ZM46.3197 8.58C47.0997 8.58 47.6997 7.98 47.6997 7.2C47.6997 6.42 47.0997 5.82 46.3197 5.82C45.5197 5.82 44.8997 6.42 44.8997 7.2C44.8997 7.98 45.5197 8.58 46.3197 8.58ZM45.9197 20H46.6797C47.2197 20 47.4997 19.72 47.4997 19.18V11.04C47.4997 10.48 47.2197 10.2 46.6797 10.2H45.9197C45.3797 10.2 45.0997 10.48 45.0997 11.04V19.18C45.0997 19.72 45.3797 20 45.9197 20ZM51.1527 20H51.9327C52.4727 20 52.7527 19.72 52.7527 19.18V13C52.7527 12.86 52.8327 12.76 52.9727 12.7C54.2127 12.14 55.0527 11.98 55.9727 11.98C56.7727 11.98 57.0327 12.28 57.0327 13.38V19.18C57.0327 19.72 57.3127 20 57.8527 20H58.6327C59.1727 20 59.4527 19.72 59.4527 19.18V12.76C59.4527 10.92 58.4927 9.94 56.7327 9.94C55.4327 9.94 54.1127 10.22 52.8327 10.96C52.6127 11.08 52.4727 11.04 52.4327 10.86L52.4127 10.72C52.3327 10.38 52.0727 10.2 51.5927 10.2H51.1527C50.6127 10.2 50.3327 10.48 50.3327 11.04V19.18C50.3327 19.72 50.6127 20 51.1527 20ZM62.9495 20H63.7295C64.2695 20 64.5495 19.72 64.5495 19.18V16.82C64.5495 16.46 64.5295 16.06 64.4695 15.66C64.4495 15.46 64.5495 15.32 64.7695 15.32H65.2695C65.4295 15.32 65.5495 15.4 65.6295 15.54L68.1495 19.46C68.3895 19.86 68.6895 20 69.1495 20H70.0495C70.7295 20 70.9695 19.58 70.5895 19L68.1895 15.5C68.0295 15.24 67.7695 14.92 67.5895 14.78C67.4095 14.62 67.4095 14.46 67.5895 14.34C67.7695 14.2 68.0095 13.96 68.1895 13.68L70.1495 11.22C70.5895 10.66 70.3695 10.2 69.6495 10.2H68.8095C68.3495 10.2 68.0695 10.36 67.7895 10.7L65.6295 13.5C65.5095 13.64 65.4295 13.7 65.2495 13.7H64.7695C64.5695 13.7 64.4695 13.56 64.4895 13.36C64.5495 12.9 64.5695 12.46 64.5695 11.98L64.5495 6.84C64.5495 6.3 64.2695 6 63.7295 6H62.9495C62.4095 6 62.1295 6.3 62.1295 6.84V19.18C62.1295 19.72 62.4095 20 62.9495 20ZM76.9211 20.24C77.9211 20.24 79.2811 20.14 80.3011 19.84C80.7811 19.7 80.9811 19.34 80.8811 18.82C80.8011 18.28 80.5011 18.06 79.9611 18.1C79.0011 18.2 77.9811 18.26 77.2411 18.26C75.6611 18.26 74.8811 17.96 74.6611 16.44C74.6211 16.24 74.7211 16.12 74.9411 16.12H79.1411C80.5811 16.12 81.2211 15.1 81.2211 13.32C81.2211 11.1 79.9611 9.94 76.7811 9.94C73.4411 9.94 72.0211 11.2 72.0211 15.08C72.0211 18.82 73.3811 20.24 76.9211 20.24ZM74.8811 14.44C74.6611 14.44 74.5611 14.34 74.5811 14.12C74.6811 12.34 75.0811 11.86 76.8811 11.86C78.3611 11.86 78.8211 12.26 78.8211 13.3C78.8211 14.02 78.7611 14.44 78.1011 14.44H74.8811ZM84.2581 20H85.0381C85.5781 20 85.8581 19.72 85.8581 19.18V13C85.8581 12.86 85.9381 12.76 86.0781 12.7C87.3181 12.14 88.1581 11.98 89.0781 11.98C89.8781 11.98 90.1381 12.28 90.1381 13.38V19.18C90.1381 19.72 90.4181 20 90.9581 20H91.7381C92.2781 20 92.5581 19.72 92.5581 19.18V12.76C92.5581 10.92 91.5981 9.94 89.8381 9.94C88.5381 9.94 87.2181 10.22 85.9381 10.96C85.7181 11.08 85.5781 11.04 85.5381 10.86L85.5181 10.72C85.4381 10.38 85.1781 10.2 84.6981 10.2H84.2581C83.7181 10.2 83.4381 10.48 83.4381 11.04V19.18C83.4381 19.72 83.7181 20 84.2581 20ZM103.89 20.26C107.43 20.26 108.79 19.18 108.79 16.38C108.79 14.58 108.13 13.06 105.95 12.38L103.29 11.54C102.21 11.22 101.73 10.7 101.73 9.72C101.73 8.4 102.37 8.14 104.05 8.14C105.13 8.14 106.41 8.16 107.43 8.2C107.93 8.22 108.21 7.94 108.25 7.46L108.27 7.16C108.33 6.68 108.11 6.36 107.65 6.28C106.39 6.02 105.07 5.96 103.97 5.96C100.65 5.96 99.2295 6.84 99.2295 9.68C99.2295 11.5 99.9695 13.02 102.01 13.66L104.79 14.56C105.79 14.86 106.25 15.34 106.25 16.36C106.25 17.52 105.75 18.06 103.93 18.06C103.09 18.06 102.31 18.04 100.29 18C99.7695 17.98 99.4695 18.24 99.4295 18.74L99.4095 19.06C99.3695 19.56 99.5895 19.86 100.09 19.94C101.75 20.22 103.15 20.26 103.89 20.26ZM111.856 23.96H112.636C113.176 23.96 113.456 23.66 113.456 23.12V21.42C113.476 20.76 113.436 20.64 113.356 20.06C113.316 19.74 113.436 19.76 113.716 19.86C114.676 20.22 115.736 20.24 116.216 20.24C118.636 20.24 120.296 19.46 120.296 15.02C120.296 11.92 119.356 9.94 115.636 9.94C114.456 9.94 112.436 10.18 111.616 10.46C111.196 10.62 111.036 10.88 111.036 11.28V23.12C111.036 23.66 111.316 23.96 111.856 23.96ZM115.756 18.24C115.196 18.24 114.476 18.2 113.696 18.02C113.516 17.98 113.436 17.8 113.436 17.52L113.456 12.48C113.456 12.22 113.596 12.08 113.856 12.04C114.216 11.94 115.136 11.86 115.756 11.88C117.216 11.92 117.796 12.62 117.796 15.08C117.796 17.82 117.216 18.24 115.756 18.24ZM123.399 20H124.179C124.719 20 124.999 19.72 124.999 19.18V13.1C124.999 12.9 125.079 12.8 125.219 12.72C126.459 12.22 127.299 11.98 128.219 11.98C129.019 11.98 129.279 12.28 129.279 13.38V19.18C129.279 19.72 129.559 20 130.099 20H130.879C131.419 20 131.699 19.72 131.699 19.18V12.76C131.699 10.92 130.739 9.94 128.979 9.94C127.779 9.94 126.559 10.26 125.339 10.82C125.079 10.98 124.919 10.92 124.939 10.66C124.999 10.22 125.019 9.72 125.019 9.22L124.999 6.84C124.999 6.3 124.719 6 124.179 6H123.399C122.859 6 122.579 6.3 122.579 6.84V19.18C122.579 19.72 122.859 20 123.399 20ZM138.816 20.24C139.816 20.24 141.176 20.14 142.196 19.84C142.676 19.7 142.876 19.34 142.776 18.82C142.696 18.28 142.396 18.06 141.856 18.1C140.896 18.2 139.876 18.26 139.136 18.26C137.556 18.26 136.776 17.96 136.556 16.44C136.516 16.24 136.616 16.12 136.836 16.12H141.036C142.476 16.12 143.116 15.1 143.116 13.32C143.116 11.1 141.856 9.94 138.676 9.94C135.336 9.94 133.916 11.2 133.916 15.08C133.916 18.82 135.276 20.24 138.816 20.24ZM136.776 14.44C136.556 14.44 136.456 14.34 136.476 14.12C136.576 12.34 136.976 11.86 138.776 11.86C140.256 11.86 140.716 12.26 140.716 13.3C140.716 14.02 140.656 14.44 139.996 14.44H136.776ZM146.113 20H146.973C147.493 20 147.753 19.74 147.753 19.22V13.1C147.753 12.92 147.853 12.8 148.013 12.74C149.273 12.42 150.593 12.26 151.013 12.2C151.473 12.14 151.733 11.96 151.793 11.46L151.853 10.78C151.913 10.24 151.653 9.92 151.113 9.98C149.833 10.06 148.853 10.36 147.753 11C147.553 11.14 147.373 11.08 147.313 10.84L147.293 10.74C147.213 10.32 146.953 10.2 146.493 10.2H146.113C145.593 10.2 145.333 10.46 145.333 10.98V19.22C145.333 19.74 145.593 20 146.113 20ZM157.878 20.24C158.878 20.24 160.238 20.14 161.258 19.84C161.738 19.7 161.938 19.34 161.838 18.82C161.758 18.28 161.458 18.06 160.918 18.1C159.958 18.2 158.938 18.26 158.198 18.26C156.618 18.26 155.838 17.96 155.618 16.44C155.578 16.24 155.678 16.12 155.898 16.12H160.098C161.538 16.12 162.178 15.1 162.178 13.32C162.178 11.1 160.918 9.94 157.738 9.94C154.398 9.94 152.978 11.2 152.978 15.08C152.978 18.82 154.338 20.24 157.878 20.24ZM155.838 14.44C155.618 14.44 155.518 14.34 155.538 14.12C155.638 12.34 156.038 11.86 157.838 11.86C159.318 11.86 159.778 12.26 159.778 13.3C159.778 14.02 159.718 14.44 159.058 14.44H155.838Z" fill="white"/>
    <path fillRule="evenodd" clipRule="evenodd" d="M8.02537 12.3718C8.02537 12.3718 14.4293 8.3623 19.6886 12.6639L19.6886 12.6639C19.7789 12.7386 19.8695 12.8154 19.9601 12.8942V12.8941C19.4933 7.80426 15.2146 3.81738 10.0027 3.81738C7.81998 3.81738 5.8022 4.5187 4.15785 5.70524C4.20558 6.29366 4.68823 11.0937 8.02537 12.3718ZM20.0019 13.686C20.0006 13.591 19.9985 13.496 19.9947 13.4016C19.9928 13.3482 19.9897 13.2949 19.9866 13.2416L19.984 13.1967C19.978 13.0968 19.9704 12.9972 19.9613 12.8981L19.9466 12.8929L19.8696 12.8649C18.705 12.4413 14.8566 11.0414 12.0632 12.688C12.0632 12.688 12.4811 20.5092 5.64387 22.8213C6.81432 23.3891 8.11188 23.7358 9.48264 23.8061L9.50663 23.807C9.64053 23.8136 9.77553 23.816 9.91076 23.8173C11.7742 23.8156 13.6608 23.3027 15.3485 22.2254C18.3804 20.2904 20.024 17.0164 20.0019 13.686ZM5.63031 22.8156C2.29731 21.1933 0 17.7746 0 13.8187C0 10.4853 1.6324 7.53471 4.13971 5.71747C3.24636 13.0973 9.89845 16.2745 9.89845 16.2745C9.89845 20.3875 6.15968 22.5325 5.63031 22.8156Z" fill="#6279C3"/>
    <path fillRule="evenodd" clipRule="evenodd" d="M9.89751 16.2747C9.89751 20.3879 6.15874 22.5328 5.62937 22.8159C5.63328 22.8178 5.63695 22.8199 5.64085 22.8217C12.4781 20.5097 12.0602 12.6885 12.0602 12.6885C14.9187 11.0035 18.8818 12.5086 19.9436 12.8934C19.9485 12.8951 19.9534 12.8968 19.9583 12.8986C19.9582 12.8972 19.9581 12.896 19.958 12.8947C19.8674 12.8158 19.7768 12.739 19.6864 12.6643C14.4271 8.36263 8.02316 12.3722 8.02316 12.3722C4.6861 11.0941 4.20337 6.29399 4.15564 5.70557C4.15002 5.70963 4.14431 5.71361 4.13869 5.71768C3.24542 13.0975 9.89751 16.2747 9.89751 16.2747Z" fill="white"/>
</svg>
