<svg width="24" height="24" viewBox="0 0 24 24" fill="none" xmlns="http://www.w3.org/2000/svg">
    <path d="M18.8828 18.6152L15.3379 15.0703C15.25 15.0117 15.1621 14.9531 15.0742 14.9531H14.6934C15.6016 13.8984 16.1875 12.4922 16.1875 10.9688C16.1875 7.62891 13.4336 4.875 10.0938 4.875C6.72461 4.875 4 7.62891 4 10.9688C4 14.3379 6.72461 17.0625 10.0938 17.0625C11.6172 17.0625 12.9941 16.5059 14.0781 15.5977V15.9785C14.0781 16.0664 14.1074 16.1543 14.166 16.2422L17.7109 19.7871C17.8574 19.9336 18.0918 19.9336 18.209 19.7871L18.8828 19.1133C19.0293 18.9961 19.0293 18.7617 18.8828 18.6152ZM10.0938 15.6562C7.48633 15.6562 5.40625 13.5762 5.40625 10.9688C5.40625 8.39062 7.48633 6.28125 10.0938 6.28125C12.6719 6.28125 14.7812 8.39062 14.7812 10.9688C14.7812 13.5762 12.6719 15.6562 10.0938 15.6562Z" fill="white" fill-opacity="0.87"/>
</svg>
