<svg width="36" height="36" viewBox="0 0 36 36" fill="none" xmlns="http://www.w3.org/2000/svg">
    <circle cx="18" cy="18" r="18" fill="#434753"/>
    <path d="M18.001 17.6162C19.915 17.6162 21.501 16.0576 21.501 14.1162V9.74121L19.751 10.6162L18.001 9.74121L16.251 10.6162L14.501 9.74121V14.1162C14.501 16.0576 16.0596 17.6162 18.001 17.6162ZM15.8135 13.2412H20.1885V14.1162C20.1885 15.3467 19.2041 16.3037 18.001 16.3037C16.7705 16.3037 15.8135 15.3467 15.8135 14.1162V13.2412ZM20.4346 18.0537C20.1338 18.0537 19.833 18.1357 19.5596 18.2451C19.0674 18.4092 18.5479 18.4912 18.001 18.4912C17.4268 18.4912 16.9072 18.4092 16.415 18.2451C16.1416 18.1357 15.8408 18.0537 15.54 18.0537C13.5166 18.0537 11.876 19.7217 11.876 21.7451V22.4287C11.876 23.167 12.4502 23.7412 13.1885 23.7412H22.8135C23.5244 23.7412 24.126 23.167 24.126 22.4287V21.7451C24.126 19.7217 22.458 18.0537 20.4346 18.0537ZM22.8135 22.4287H13.1885V21.7451C13.1885 20.4326 14.2275 19.3662 15.54 19.3662C15.6494 19.3662 15.7861 19.4209 15.9775 19.4756C16.6338 19.6943 17.3174 19.8037 18.001 19.8037C18.6572 19.8037 19.3408 19.6943 19.9971 19.4756C20.1885 19.4209 20.3252 19.3662 20.4346 19.3662C21.7471 19.3662 22.8135 20.4326 22.8135 21.7451V22.4287Z" fill="white" fill-opacity="0.6"/>
</svg>
