<svg width="36" height="36" viewBox="0 0 36 36" fill="none" xmlns="http://www.w3.org/2000/svg">
    <circle cx="18" cy="18" r="18" fill="#434753"/>
    <path d="M20.4346 18.0537C19.6416 18.0537 19.2861 18.4912 18.001 18.4912C16.6885 18.4912 16.333 18.0537 15.54 18.0537C13.5166 18.0537 11.876 19.7217 11.876 21.7451V22.4287C11.876 23.167 12.4502 23.7412 13.1885 23.7412H22.8135C23.5244 23.7412 24.126 23.167 24.126 22.4287V21.7451C24.126 19.7217 22.458 18.0537 20.4346 18.0537ZM22.8135 22.4287H13.1885V21.7451C13.1885 20.4326 14.2275 19.3662 15.54 19.3662C15.9502 19.3662 16.5791 19.8037 18.001 19.8037C19.3955 19.8037 20.0244 19.3662 20.4346 19.3662C21.7471 19.3662 22.8135 20.4326 22.8135 21.7451V22.4287ZM18.001 17.6162C20.1611 17.6162 21.9385 15.8662 21.9385 13.6787C21.9385 11.5186 20.1611 9.74121 18.001 9.74121C15.8135 9.74121 14.0635 11.5186 14.0635 13.6787C14.0635 15.8662 15.8135 17.6162 18.001 17.6162ZM18.001 11.0537C19.4229 11.0537 20.626 12.2568 20.626 13.6787C20.626 15.1279 19.4229 16.3037 18.001 16.3037C16.5518 16.3037 15.376 15.1279 15.376 13.6787C15.376 12.2568 16.5518 11.0537 18.001 11.0537Z" fill="white" fill-opacity="0.6"/>
</svg>
