<svg width="14" height="15" viewBox="0 0 14 15" fill="none" xmlns="http://www.w3.org/2000/svg">
    <path d="M9.13281 3.58594L10.3359 1.61719C10.7188 1.04297 10.3086 0.25 9.625 0.25H4.375C3.66406 0.25 3.25391 1.04297 3.63672 1.61719L4.83984 3.58594C-0.273438 6.83984 0 10.9961 0 11.5156C0 13.0469 1.33984 14.25 2.98047 14.25H10.9922C12.6328 14.25 13.9727 13.0469 13.9727 11.5156C13.9727 10.9961 14.2188 6.8125 9.13281 3.58594ZM4.375 1.125H9.625L8.25781 3.3125H5.71484L4.375 1.125ZM13.125 11.5156C13.125 12.5547 12.168 13.375 10.9922 13.375H2.98047C1.80469 13.375 0.875 12.5547 0.875 11.5156V11.4336C0.847656 9.79297 1.42188 6.70312 5.46875 4.1875H8.50391C12.5508 6.70312 13.125 9.79297 13.125 11.4336V11.5156ZM7.79297 8.75391L6.45312 8.37109C6.28906 8.31641 6.20703 8.15234 6.20703 7.98828C6.20703 7.76953 6.34375 7.60547 6.53516 7.60547H7.38281C7.49219 7.60547 7.65625 7.66016 7.76562 7.71484C7.79297 7.74219 7.84766 7.74219 7.90234 7.74219C7.95703 7.74219 8.01172 7.71484 8.06641 7.6875L8.42188 7.35938C8.44922 7.30469 8.47656 7.25 8.47656 7.19531C8.47656 7.11328 8.44922 7.03125 8.39453 7.00391C8.17578 6.83984 7.73828 6.67578 7.46484 6.67578V6.18359C7.46484 6.04688 7.35547 5.9375 7.21875 5.9375H6.75391C6.61719 5.9375 6.50781 6.04688 6.50781 6.18359V6.67578C5.79688 6.67578 5.25 7.27734 5.25 7.98828C5.25 8.58984 5.63281 9.10938 6.17969 9.27344L7.51953 9.65625C7.68359 9.71094 7.76562 9.875 7.76562 10.0391C7.76562 10.2578 7.62891 10.4219 7.4375 10.4219H6.58984C6.48047 10.4219 6.31641 10.3672 6.20703 10.3125C6.17969 10.2852 6.125 10.2852 6.07031 10.2852C6.01562 10.2852 5.96094 10.3125 5.90625 10.3398L5.55078 10.668C5.52344 10.7227 5.49609 10.7773 5.49609 10.832C5.49609 10.9141 5.52344 10.9961 5.57812 11.0234C5.79688 11.1875 6.23438 11.3516 6.50781 11.3516V11.8438C6.50781 11.9805 6.61719 12.0625 6.75391 12.0625H7.21875C7.35547 12.0625 7.46484 11.9805 7.46484 11.8438V11.3516C8.17578 11.3516 8.72266 10.75 8.72266 10.0391C8.75 9.4375 8.33984 8.91797 7.79297 8.75391Z" fill="white" fill-opacity="0.6"/>
</svg>
