<svg width="14" height="15" viewBox="0 0 14 15" fill="none" xmlns="http://www.w3.org/2000/svg">
    <path d="M13.5898 2.92969L11.3203 0.660156C11.0742 0.414062 10.7188 0.25 10.3906 0.25H4.8125C4.07422 0.277344 3.5 0.851562 3.5 1.58984V4.78906C3.33594 4.78906 3.17188 4.76172 2.81641 4.65234C2.78906 4.65234 2.73438 4.65234 2.67969 4.65234C2.54297 4.65234 2.40625 4.70703 2.32422 4.78906C1.83203 5.30859 1.85938 5.28125 1.17578 5.47266C0.984375 5.52734 0.847656 5.66406 0.792969 5.85547C0.628906 6.53906 0.628906 6.51172 0.136719 7.00391C0 7.14062 -0.0546875 7.35938 0 7.55078C0.191406 8.20703 0.191406 8.20703 0 8.86328C-0.0546875 9.05469 0 9.27344 0.136719 9.41016C0.628906 9.90234 0.628906 9.90234 0.792969 10.5586C0.847656 10.75 0.984375 10.8867 1.17578 10.9414C1.23047 10.9688 1.25781 10.9688 1.3125 10.9688V13.8125C1.3125 13.9766 1.36719 14.1133 1.50391 14.1953C1.64062 14.2773 1.80469 14.2773 1.94141 14.2227L3.5 13.4297L5.03125 14.2227C5.11328 14.25 5.16797 14.25 5.25 14.25H12.6875C13.3984 14.25 14 13.6758 14 12.9648V3.85938C14 3.53125 13.8359 3.17578 13.5898 2.92969ZM10.5 1.15234C10.5547 1.17969 10.6367 1.20703 10.6914 1.26172L12.9883 3.55859C13.043 3.61328 13.0703 3.69531 13.0977 3.77734H10.5V1.15234ZM0.902344 8.91797C1.03906 8.31641 1.03906 8.09766 0.902344 7.49609C1.3125 7.05859 1.42188 6.86719 1.58594 6.26562C2.1875 6.10156 2.35156 5.99219 2.78906 5.55469C3.0625 5.63672 3.25391 5.66406 3.5 5.66406C3.71875 5.66406 3.91016 5.63672 4.18359 5.55469C4.59375 5.99219 4.78516 6.10156 5.38672 6.26562C5.55078 6.86719 5.63281 7.03125 6.07031 7.49609C5.90625 8.09766 5.90625 8.31641 6.07031 8.91797C5.66016 9.35547 5.55078 9.54688 5.38672 10.1484C4.97656 10.2578 4.73047 10.3398 4.34766 10.668C4.07422 10.5586 3.80078 10.5039 3.5 10.5039C3.17188 10.5039 2.89844 10.5586 2.625 10.6953C2.24219 10.3672 1.99609 10.2578 1.58594 10.1484C1.42188 9.54688 1.33984 9.38281 0.902344 8.91797ZM3.69141 12.5547C3.55469 12.5 3.41797 12.5 3.28125 12.5547L2.1875 13.1289V11.4609C2.1875 11.4883 2.1875 11.4883 2.1875 11.4883C2.29688 11.5977 2.43359 11.625 2.54297 11.625C2.65234 11.625 2.73438 11.5977 2.84375 11.5703C3.03516 11.4336 3.25391 11.3789 3.5 11.3789C3.71875 11.3789 3.9375 11.4336 4.12891 11.543C4.23828 11.625 4.32031 11.625 4.42969 11.625C4.56641 11.625 4.67578 11.5977 4.78516 11.4883C4.78516 11.4883 4.78516 11.4883 4.8125 11.4609V13.1289L3.69141 12.5547ZM13.125 12.9648C13.125 13.1836 12.9062 13.4023 12.6875 13.4023H5.6875V10.9688C5.71484 10.9688 5.74219 10.9688 5.79688 10.9414C5.98828 10.8867 6.125 10.75 6.17969 10.5586C6.34375 9.875 6.34375 9.90234 6.83594 9.41016C6.97266 9.27344 7.02734 9.05469 6.97266 8.86328C6.78125 8.20703 6.78125 8.20703 6.97266 7.55078C7.02734 7.35938 6.97266 7.14062 6.83594 7.00391C6.34375 6.51172 6.34375 6.51172 6.17969 5.85547C6.125 5.66406 5.98828 5.52734 5.79688 5.47266C5.14062 5.28125 5.14062 5.30859 4.64844 4.78906C4.56641 4.70703 4.45703 4.67969 4.375 4.65234V1.58984C4.375 1.34375 4.56641 1.125 4.8125 1.125H9.625V3.99609C9.625 4.35156 9.89844 4.625 10.2812 4.625H13.125V12.9648Z" fill="white" fill-opacity="0.6"/>
</svg>
