<svg width="12" height="14" viewBox="0 0 12 14" fill="none" xmlns="http://www.w3.org/2000/svg">
    <path d="M6 7.125C7.77734 7.125 9.25 5.67773 9.25 3.875C9.25 2.09766 7.77734 0.625 6 0.625C4.19727 0.625 2.75 2.09766 2.75 3.875C2.75 5.67773 4.19727 7.125 6 7.125ZM8.25977 7.9375H7.82812C7.26953 8.2168 6.66016 8.34375 6 8.34375C5.33984 8.34375 4.70508 8.2168 4.14648 7.9375H3.71484C1.83594 7.9375 0.3125 9.48633 0.3125 11.3652V12.4062C0.3125 13.0918 0.845703 13.625 1.53125 13.625H10.4688C11.1289 13.625 11.6875 13.0918 11.6875 12.4062V11.3652C11.6875 9.48633 10.1387 7.9375 8.25977 7.9375Z" fill="white" fill-opacity="0.6"/>
</svg>