<svg width="14" height="14" viewBox="0 0 14 14" fill="none" xmlns="http://www.w3.org/2000/svg">
    <path d="M12.6445 2.07227L11.6797 1.10742C11.375 0.802734 10.9434 0.625 10.5371 0.625C10.1309 0.625 9.69922 0.802734 9.39453 1.10742L7.49023 3.01172L6.62695 3.875L0.431641 10.0703L0.126953 12.9648C0.0761719 13.3203 0.355469 13.625 0.710938 13.625C0.736328 13.625 0.761719 13.625 0.787109 13.625L3.68164 13.3203L9.87695 7.125L10.7402 6.26172L12.6445 4.35742C13.2793 3.72266 13.2793 2.70703 12.6445 2.07227ZM3.12305 12.1523L1.42188 12.3301L1.59961 10.6289L7.46484 4.73828L8.25195 3.95117L9.80078 5.5L9.01367 6.28711L3.12305 12.1523ZM11.7812 3.49414L10.6641 4.63672L9.11523 3.08789L10.2578 1.9707C10.3594 1.86914 10.4863 1.84375 10.5371 1.84375C10.5879 1.84375 10.7148 1.86914 10.8164 1.9707L11.7812 2.93555C11.9336 3.08789 11.9336 3.3418 11.7812 3.49414Z" fill="black" fill-opacity="0.48"/>
</svg>
