<svg width="20" height="20" viewBox="0 0 20 20" fill="none" xmlns="http://www.w3.org/2000/svg">
    <path d="M10 0C4.47713 0 0 4.47713 0 10C0 15.5228 4.47713 20 10 20C15.5229 20 20 15.5228 20 10C20 4.47713 15.5229 0 10 0ZM10.4167 17.0833C7.42513 17.0833 5 13.912 5 10C5 6.08795 7.42513 2.91667 10.4167 2.91667C13.4082 2.91667 15.8333 6.08795 15.8333 10C15.8333 13.912 13.4082 17.0833 10.4167 17.0833Z" fill="#EE3124"/>
    <path d="M10 0C4.47713 0 0 4.47713 0 10C0 15.5228 4.47713 20 10 20C15.5229 20 20 15.5228 20 10C20 4.47713 15.5229 0 10 0ZM10.4167 17.0833C7.42513 17.0833 5 13.912 5 10C5 6.08795 7.42513 2.91667 10.4167 2.91667C13.4082 2.91667 15.8333 6.08795 15.8333 10C15.8333 13.912 13.4082 17.0833 10.4167 17.0833Z" fill="url(#paint0_linear)"/>
    <path d="M13.3333 18.3333C8.73098 18.3333 5 14.6024 5 10C5 5.39759 8.73098 1.66667 13.3333 1.66667C14.3623 1.66667 15.3434 1.86203 16.2533 2.20306C14.5403 0.827433 12.368 0 10 0C4.47713 0 0 4.47713 0 10C0 15.5228 4.47713 20 10 20C12.368 20 14.5403 19.1726 16.2533 17.7969C15.3434 18.138 14.3623 18.3333 13.3333 18.3333Z" fill="#EE3124"/>
    <path d="M13.3333 18.3333C8.73098 18.3333 5 14.6024 5 10C5 5.39759 8.73098 1.66667 13.3333 1.66667C14.3623 1.66667 15.3434 1.86203 16.2533 2.20306C14.5403 0.827433 12.368 0 10 0C4.47713 0 0 4.47713 0 10C0 15.5228 4.47713 20 10 20C12.368 20 14.5403 19.1726 16.2533 17.7969C15.3434 18.138 14.3623 18.3333 13.3333 18.3333Z" fill="url(#paint1_linear)"/>
    <path d="M10 0C4.47713 0 0 4.47713 0 10C0 15.5228 4.47713 20 10 20C15.5229 20 20 15.5228 20 10C20 4.47713 15.5229 0 10 0ZM10.4167 17.0833C7.42513 17.0833 5 13.912 5 10C5 6.08795 7.42513 2.91667 10.4167 2.91667C13.4082 2.91667 15.8333 6.08795 15.8333 10C15.8333 13.912 13.4082 17.0833 10.4167 17.0833Z" fill="url(#paint2_linear)"/>
    <defs>
        <linearGradient id="paint0_linear" x1="11.9669" y1="17.1991" x2="8.39049" y2="4.10887" gradientUnits="userSpaceOnUse">
            <stop stop-color="#F2F2F2" stop-opacity="0.1"/>
            <stop offset="0.341215" stop-color="#969696" stop-opacity="0.168243"/>
            <stop offset="0.662638" stop-color="#454545" stop-opacity="0.232528"/>
            <stop offset="0.888792" stop-color="#131313" stop-opacity="0.277758"/>
            <stop offset="1" stop-opacity="0.3"/>
        </linearGradient>
        <linearGradient id="paint1_linear" x1="7.26443" y1="2.79667" x2="10.4589" y2="17.1022" gradientUnits="userSpaceOnUse">
            <stop stop-color="white" stop-opacity="0.1"/>
            <stop offset="1" stop-opacity="0.3"/>
        </linearGradient>
        <linearGradient id="paint2_linear" x1="0.934755" y1="5.7728" x2="19.0652" y2="14.2272" gradientUnits="userSpaceOnUse">
            <stop stop-color="white" stop-opacity="0.2"/>
            <stop offset="1" stop-color="white" stop-opacity="0"/>
        </linearGradient>
    </defs>
</svg>

