<svg width="13" height="14" viewBox="0 0 13 14" fill="none" xmlns="http://www.w3.org/2000/svg">
    <path d="M12.8984 12.0332L9.82617 8.96094C9.75 8.91016 9.67383 8.85938 9.59766 8.85938H9.26758C10.0547 7.94531 10.5625 6.72656 10.5625 5.40625C10.5625 2.51172 8.17578 0.125 5.28125 0.125C2.36133 0.125 0 2.51172 0 5.40625C0 8.32617 2.36133 10.6875 5.28125 10.6875C6.60156 10.6875 7.79492 10.2051 8.73438 9.41797V9.74805C8.73438 9.82422 8.75977 9.90039 8.81055 9.97656L11.8828 13.0488C12.0098 13.1758 12.2129 13.1758 12.3145 13.0488L12.8984 12.4648C13.0254 12.3633 13.0254 12.1602 12.8984 12.0332ZM5.28125 9.46875C3.02148 9.46875 1.21875 7.66602 1.21875 5.40625C1.21875 3.17188 3.02148 1.34375 5.28125 1.34375C7.51562 1.34375 9.34375 3.17188 9.34375 5.40625C9.34375 7.66602 7.51562 9.46875 5.28125 9.46875Z" fill="black" fill-opacity="0.48"/>
</svg>
